<?xml version="1.0" encoding="iso-8859-1"?>
<!-- Generator: Adobe Illustrator 19.0.0, SVG Export Plug-In . SVG Version: 6.00 Build 0)  -->
<svg version="1.1" id="Capa_1" xmlns="http://www.w3.org/2000/svg" xmlns:xlink="http://www.w3.org/1999/xlink" x="0px" y="0px"
	 viewBox="0 0 397.324 397.324" style="enable-background:new 0 0 397.324 397.324;" xml:space="preserve">
<path style="fill:#F9E0D2;" d="M275.754,361.312c-37.264,37.264-97.904,37.264-135.168,0l-37.216-37.216
	c-6.016-6.016-8.304-14.64-6.064-23.04l20.752-78.448c0.416-2.768,2.048-7.856,6.448-12.256c5.04-5.04,12.08-7.488,19.328-6.736
	l22.336,2.272l-65.648-65.648c-9.36-9.36-9.36-24.576,0-33.936s24.576-9.36,33.936,0l113.104,113.104
	c2.192,2.192,5.392,2.784,8.208,1.776l-0.016-28.896c0.016-23.376,15.328-44.976,37.312-52.752l10.672-3.808l-0.112,160.32
	C303.05,320.736,293.146,343.92,275.754,361.312z"/>
<g>
	<path style="fill:#010101;" d="M297.498,129.968c-11.952,2.72-22.64,8.752-31.008,17.104c-11.568,11.568-18.72,27.552-18.72,45.2
		l0.016,16.016L140.138,100.64c-12.448-12.448-32.816-12.448-45.248,0c-12.448,12.448-12.448,32.816,0,45.248l49.776,49.776
		c-9.2-0.944-18.72,1.984-25.776,9.024c-4.896,4.896-7.808,11.024-8.848,17.376l-20.528,76.928
		c-2.816,10.64-0.096,22.432,8.224,30.768l37.216,37.216c40.464,40.464,106.032,40.464,146.496,0
		c19.6-19.6,29.616-45.088,30.208-70.752l0.112,0.096v-2.512c0-0.048,0-0.096,0-0.112l-0.016-152.384
		c0.016-6.432-5.2-11.648-11.648-11.648C299.194,129.664,298.314,129.744,297.498,129.968z M295.786,295.84
		c-0.544,22.656-9.76,43.904-25.68,59.808c-34.16,34.16-89.712,34.16-123.856,0l-37.216-37.216c-3.984-3.984-5.472-9.712-4-15.328
		l20.768-78.432c0.384-2.336,1.456-5.744,4.368-8.672c4.528-4.528,9.984-4.72,12.848-4.432l22.352,2.256
		c3.36,0.336,6.576-1.472,8.032-4.528s0.816-6.688-1.568-9.088l-65.648-65.648c-6.24-6.24-6.24-16.4,0-22.624
		c6.24-6.24,16.4-6.24,22.624,0L241.914,225.04c4.816,4.816,11.872,5.824,17.728,3.2c2.512-1.136,4.128-3.632,4.128-6.384v-29.568
		c0-12.8,4.992-24.832,14.032-33.888c5.104-5.104,11.36-8.96,18.08-11.344L295.786,295.84z"/>
</g>
</svg>
