<?xml version="1.0" encoding="utf-8"?>
<!-- Generator: Adobe Illustrator 24.3.0, SVG Export Plug-In . SVG Version: 6.00 Build 0)  -->
<svg version="1.1" id="Layer_1" xmlns="http://www.w3.org/2000/svg" xmlns:xlink="http://www.w3.org/1999/xlink" x="0px" y="0px"
	 viewBox="0 0 371 500" style="enable-background:new 0 0 371 500;" xml:space="preserve">
<style type="text/css">
	.st0{opacity:0.8;}
	.st1{fill:#284956;}
	.st2{fill:#418B78;}
	.st3{fill:#FFFFFF;}
	.st4{fill:#FFBE9D;}
	.st5{fill:#FC6666;}
	.st6{fill:#183B56;}
	.st7{fill:#263238;}
	.st8{opacity:0.4;enable-background:new    ;}
	.st9{opacity:0.6;}
	.st10{opacity:0.6;fill:#FFFFFF;enable-background:new    ;}
	.st11{fill:#455A64;}
	.st12{fill:#EB996E;}
</style>
<g id="freepik--background-complete--inject-2" class="st0">
	<path class="st1" d="M259.2,92.1h65.8c0,0-5.8-10.6-22.7-9c-16.2,1.5-17-5.2-25.2-6S261.9,82.5,259.2,92.1z"/>
	<path class="st1" d="M87.3,265.9c0,0-6.6,3.6,3,17.3s15.8,20.4,15.8,20.4s1.8,3.2-1,4.2s-9.3,0.8-10.1,4.5c-0.8,3.9,2.3,7,8.1,9.2
		s18.4,7.8,19.5,8.3s2.4,2,0.6,2.9s-15.9,4.4-13.9,11s19.3,10.3,21.2,10.8s2.4,1.1,2.4,2.1s-4.9,1.7-8.8,2.9s-8.4,3.2-6.9,6.9
		s12.4,10.4,36.3,9.5l11.1-1.2l4.7-10.1c8.8-22.3,6-34.8,3-37.4s-6.4,0.9-8.8,4.2s-4.7,7.7-5.6,7.4s-1.4-1-1.2-3s2.4-19.5-3.2-23.6
		s-13.5,8.1-15,9.5s-2.4-0.2-2.6-1.5s-1.1-14.9-1.4-21.2s-2.1-10.2-6.1-10.7s-5.8,5.7-7.6,8.1s-4.3-0.4-4.3-0.4s-4.2-8.1-14-21.6
		S87.2,266,87.2,266"/>
	<path class="st1" d="M165.6,377.2c-7.2-10-19.7-28-30.4-43.4s-20.6-29.3-27.7-39.4c-3.6-5-6.4-9.1-8.5-11.9l-2.3-3.2l-0.6-0.8
		c-0.1-0.2-0.2-0.3-0.2-0.3s0.1,0.1,0.2,0.3l0.6,0.8l2.4,3.2c2,2.8,5,6.8,8.6,11.8c7.2,10,17,23.9,27.8,39.3s23.2,33.4,30.4,43.4"/>
	<path class="st1" d="M104.1,312.8c0.3,0,0.5,0,0.8,0.1c0.5,0.1,1.2,0.2,2.1,0.4c1.8,0.4,4.3,1,7,1.7l7,1.9l2.1,0.6
		c0.3,0,0.5,0.1,0.8,0.2c-0.3,0-0.5,0-0.8-0.1c-0.5-0.1-1.2-0.2-2.1-0.5c-1.8-0.4-4.3-1-7-1.8l-7-1.8l-2.1-0.5
		C104.6,313,104.4,312.9,104.1,312.8z"/>
	<path class="st1" d="M124.6,317c-0.1,0,0.9-5.2,2.3-11.6s2.6-11.5,2.6-11.5s-0.9,5.2-2.3,11.6S124.7,317,124.6,317z"/>
	<path class="st1" d="M140.1,341.3c0.1-0.3,0.2-0.5,0.4-0.7l1.1-2c0.9-1.7,2.1-4,3.4-6.6s2.3-5,3.1-6.7l0.9-2
		c0.1-0.3,0.2-0.5,0.4-0.7c-0.1,0.3-0.1,0.5-0.2,0.8c-0.2,0.5-0.4,1.2-0.8,2.1c-0.7,1.8-1.7,4.2-3,6.8s-2.5,4.9-3.5,6.5
		c-0.5,0.8-0.9,1.5-1.2,1.9C140.4,340.9,140.3,341.1,140.1,341.3z"/>
	<path class="st1" d="M120.8,341.7c0.2-0.1,0.5-0.1,0.8-0.1l2.1-0.1c1.7-0.1,4.1-0.2,6.8-0.3s5.1-0.1,6.8-0.2h2.1c0.3,0,0.5,0,0.8,0
		c-0.2,0.1-0.5,0.1-0.8,0.1l-2.1,0.1c-1.8,0.1-4.2,0.2-6.8,0.3s-5.1,0.1-6.8,0.2h-2.1C121.3,341.7,121,341.7,120.8,341.7z"/>
	<path class="st1" d="M131.7,365c0.3-0.1,0.7-0.1,1-0.1l2.6-0.2c2.2-0.1,5.3-0.3,8.7-0.4s6.5-0.2,8.7-0.3l2.6-0.1c0.3,0,0.7,0,1,0
		c-0.3,0.1-0.7,0.1-1,0.1l-2.6,0.2c-2.2,0.1-5.3,0.3-8.7,0.4s-6.5,0.2-8.7,0.3l-2.6,0.1C132.4,365,132,365,131.7,365z"/>
	<path class="st1" d="M155.8,363.8c0.1-0.3,0.3-0.6,0.4-1l1.3-2.5c1.1-2.1,2.5-5.1,4-8.5s2.8-6.4,3.7-8.6l1.1-2.6
		c0.1-0.3,0.3-0.6,0.4-0.9c-0.1,0.3-0.2,0.7-0.3,1c-0.2,0.6-0.6,1.5-1,2.7c-0.9,2.2-2.1,5.3-3.6,8.6s-3,6.3-4.1,8.4
		c-0.6,1.1-1,1.9-1.4,2.5C156.2,363.2,156,363.5,155.8,363.8z"/>
	<path class="st1" d="M248.8,216.2c-11.9-13.4-10.8-32.6-6.2-49.1c0.8-2.8,1.1-5.8,3-7.9s5.4-3.1,7.6-1.3c1.8,1.5,2.2,4.1,2.8,6.3
		c0.9,3,2.6,5.7,5,7.8c1.5,1.3,3.6,2.4,5.6,1.9c2.7-0.8,3.8-4,4.4-6.8c1.2-5.2,2.4-10.3,3.6-15.5c0.5-2.8,1.4-5.5,2.8-8
		c1.5-2.4,4-4.4,6.8-4.5s5.7,2.2,5.6,5c-0.2,1.2-0.4,2.3-0.7,3.5c-0.3,1.2,0.1,2.4,1,3.1c1,0.6,2.3,0.1,3.3-0.6
		c3.5-2.1,6.3-5.2,9-8.4s5.3-6.4,8.6-8.8s7.5-4,11.5-3.3s7.6,4.2,7.7,8.3s-3.1,7.6-6.3,10.1c-4.8,3.8-10,6.9-15.7,9.2
		c-1.1,0.3-2,0.9-2.7,1.8c-1,1.7,0.3,3.9,1.9,5c1.9,1.2,4.2,1.5,6.3,2.2s4.2,2.3,4.5,4.5c0.5,3.1-2.6,5.5-5.4,6.9
		c-5.6,2.8-11.6,4.6-17.7,5.3c-2.2,0.3-4.5,0.4-6.5,1.4s-3.5,3.3-3,5.5s2.9,3.4,5.1,3.5s4.4-0.6,6.6-0.9c4.1-0.5,9,0.9,10.6,4.7
		c1,2.7,0.6,5.6-0.9,8c-1.5,2.3-3.5,4.3-5.8,5.8c-7.7,5.8-16.8,9.4-26.4,10.6C265.2,222.7,256.8,221.5,248.8,216.2"/>
	<path class="st1" d="M251.2,217.8c2.2-6.4-0.1-3.2,4.4-11c4.9-8.4,10.3-16.5,16.1-24.3c1.5-2.1,3-4.1,4.5-6.1c1.5-2,3-4,4.6-5.9
		c3-3.6,6.3-7,9.7-10.2c3.2-3.1,6.4-5.9,9.4-8.5s5.8-5,8.5-7.1c4.2-3.3,8.7-6.2,13.4-8.8c1.6-0.9,3-1.6,3.9-2l1-0.5l0.4-0.1
		c-0.1,0.1-0.2,0.1-0.3,0.2l-1,0.5c-0.9,0.5-2.2,1.2-3.8,2.1c-4.6,2.6-9,5.6-13.2,8.9c-2.7,2.1-5.5,4.5-8.5,7.1s-6.1,5.5-9.4,8.6
		c-3.4,3.2-6.6,6.6-9.6,10.2c-1.6,1.9-3,3.9-4.5,5.9l-4.5,6.1c-5.8,7.8-11.2,15.8-16.1,24.2c-4.5,7.8-2.2,4.5-4.4,10.9"/>
	<path class="st1" d="M281,170.5c0-0.4,0-0.8,0-1.2c0-0.8,0.1-2,0.3-3.4c0.3-2.9,0.8-6.8,1.3-11.1s1-8.2,1.2-11.1
		c0.1-1.4,0.2-2.6,0.2-3.4c0-0.4,0-0.8,0.1-1.2c0.1,0.4,0.1,0.8,0.1,1.2c0,0.8,0,2-0.1,3.4c-0.1,2.9-0.5,6.8-1.1,11.1
		s-1.1,8.1-1.5,11c-0.2,1.3-0.3,2.4-0.4,3.4C281.2,169.6,281.1,170.1,281,170.5z"/>
	<path class="st1" d="M318,172.2c-0.5,0-1-0.1-1.5-0.2c-0.9-0.1-2.3-0.3-4-0.5c-3.3-0.4-8-0.8-13.1-1.1s-9.8-0.2-13.1-0.1
		c-1.7,0-3,0.1-4,0.1c-0.5,0-1,0-1.5,0c0.5-0.1,1-0.2,1.5-0.2c0.9-0.1,2.3-0.2,4-0.3c3.4-0.2,8-0.2,13.2,0c4.4,0.2,8.8,0.6,13.1,1.2
		c1.7,0.2,3,0.5,3.9,0.7C317.1,172,317.5,172.1,318,172.2z"/>
	<path class="st1" d="M256.2,206.3c-0.1-0.2-0.1-0.3-0.1-0.5c-0.1-0.4-0.2-0.9-0.3-1.4c-0.2-1.2-0.6-3-1-5.3
		c-0.8-4.5-1.6-10.7-2.4-17.6s-1.6-13.1-2.3-17.6c-0.3-2.2-0.6-4-0.8-5.3c-0.1-0.6-0.1-1.1-0.2-1.4c0-0.2,0-0.3,0-0.5
		c0.1,0.2,0.1,0.3,0.1,0.5l0.3,1.4c0.3,1.2,0.6,3,1,5.3c0.8,4.5,1.6,10.7,2.4,17.6s1.6,13.1,2.3,17.6c0.3,2.2,0.6,4,0.8,5.3
		c0.1,0.6,0.1,1.1,0.2,1.4C256.2,205.9,256.2,206.1,256.2,206.3z"/>
	<path class="st1" d="M306.9,202.2c-0.2,0.1-0.3,0.1-0.5,0.1l-1.5,0.1l-5.4,0.4c-4.6,0.4-10.9,1-17.9,1.6s-13.4,1.2-18,1.5
		c-2.3,0.1-4.2,0.2-5.5,0.3h-1.5c-0.2,0-0.3,0-0.5,0c0.2,0,0.3-0.1,0.5-0.1l1.5-0.1l5.4-0.4c4.6-0.4,10.9-1,17.9-1.6
		s13.4-1.2,18-1.5c2.3-0.1,4.2-0.2,5.5-0.3h1.5C306.6,202.2,306.8,202.2,306.9,202.2z"/>
	<path class="st1" d="M346.3,304c0,0.2-0.1,0.3-0.2,0.5l-0.5,1.3c-0.5,1.2-1.2,2.9-2.1,5l-7.7,17.8l0,0.1h-0.1l-24.2,4l-8.1,1.3
		l-0.4,0.1l0.1-0.4c2-7.8,3.8-15,5.3-21l0.1,0.2l-14.2-6.4l-3.9-1.8l-1-0.5c-0.1-0.1-0.2-0.1-0.3-0.2l0.4,0.1l1,0.4l4,1.7l14.3,6.2
		l0.2,0.1v0.2c-1.5,6.1-3.3,13.3-5.2,21.1l-0.3-0.3l8.1-1.3l24.2-3.9l-0.2,0.1l7.9-17.8c1-2.1,1.7-3.8,2.2-5l0.6-1.3
		C346.2,304.2,346.3,304.1,346.3,304z"/>
	<polygon class="st1" points="306.1,331.2 305.4,333 306.5,334.5 304.6,334.4 303.5,335.9 303,334.1 301.2,333.5 302.8,332.5 
		302.9,330.6 304.3,331.8 	"/>
	<polygon class="st1" points="289.5,303 289.1,303.9 289.7,304.6 288.7,304.6 288.2,305.3 287.9,304.4 287.1,304.1 287.8,303.6 
		287.9,302.7 288.6,303.3 	"/>
	<polygon class="st1" points="336.4,327.6 336.1,328.4 336.6,329.2 335.7,329.1 335.1,329.9 334.9,329 334,328.7 334.8,328.2 
		334.8,327.2 335.5,327.8 	"/>
	<polygon class="st1" points="309.3,312 309,312.8 309.5,313.6 308.6,313.5 308,314.3 307.8,313.4 306.9,313.1 307.7,312.6 
		307.7,311.6 308.4,312.2 	"/>
	<polygon class="st1" points="347.4,303.1 347.1,304 347.6,304.8 346.7,304.7 346.1,305.5 345.9,304.6 345,304.2 345.8,303.8 
		345.8,302.8 346.5,303.4 	"/>
	<path class="st1" d="M44.3,375.9h52.4c0,0-4.6-8.4-18.1-7.2c-12.9,1.2-13.5-4.1-20.1-4.8S46.5,368.3,44.3,375.9z"/>
	<path class="st1" d="M54.7,169.8h52.3c0,0-4.6-8.4-18.1-7.2c-12.9,1.2-13.5-4.1-20.1-4.8S56.9,162.2,54.7,169.8z"/>
	<path class="st1" d="M320.6,206.2h43c0,0-3.8-6.9-14.9-5.9c-10.6,1-11.1-3.4-16.5-3.9S322.4,199.9,320.6,206.2z"/>
</g>
<g id="freepik--Pencil--inject-2">
	<path class="st2" d="M234.7,291.1c2.1-16.1-9.2-29.4-23.4-37.4s-30.6-10.7-46.2-15.1c-14.8-4.2-29.4-10.3-40.3-21.1
		s-17.5-26.9-13.6-41.8c1-3.7,2.8-7.5,5.9-9.6s8.1-2.1,10.5,0.9c5.1,6.4-4.8,18,1.4,23.3c1.4,1.2,3.4,1.7,4.9,2.9
		c3.9,3.1,2.6,9.2,3.2,14.2c1.1,9.9,10.3,16.7,19.4,20.7c12.1,5.3,25.3,7.9,38.2,11c12.9,3.1,25.9,7.2,36.6,15s20.1,20,20,33.3
		c0,3.7-0.5,8.3-2.8,11.1s-5.3,3.5-8.6,1.9S234.1,296.5,234.7,291.1"/>
	<g class="st0">
		<path class="st1" d="M234.7,291.1c2.1-16.1-9.2-29.4-23.4-37.4s-30.6-10.7-46.2-15.1c-14.8-4.2-29.4-10.3-40.3-21.1
			s-17.5-26.9-13.6-41.8c1-3.7,2.8-7.5,5.9-9.6s8.1-2.1,10.5,0.9c5.1,6.4-4.8,18,1.4,23.3c1.4,1.2,3.4,1.7,4.9,2.9
			c3.9,3.1,2.6,9.2,3.2,14.2c1.1,9.9,10.3,16.7,19.4,20.7c12.1,5.3,25.3,7.9,38.2,11c12.9,3.1,25.9,7.2,36.6,15s20.1,20,20,33.3
			c0,3.7-0.5,8.3-2.8,11.1s-5.3,3.5-8.6,1.9S234.1,296.5,234.7,291.1"/>
	</g>
	<path class="st2" d="M191.5,422.8c-3.2-6.7-0.4-15.1,4.8-20.5s12.2-8.5,19-11.5c15.1-6.6,31-14.5,38.6-29.1
		c2.6-4.9,4-10.3,5.5-15.7c2.8-10.4,5.5-22.1-0.2-31.3c-1.6-2.6-4.1-5-7.1-5.5c-3.5-0.6-7,1.3-9.2,4.1c-2,2.9-3.2,6.3-3.5,9.8
		c-0.8,6.6-0.1,13.4-0.8,20s-3.1,13.7-8.6,17.5c-6.7,4.6-16.2,3.6-22.6,8.5c-5.2,4-7.2,10.8-11.3,16c-3.4,4.3-8.2,7.2-12.6,10.6
		s-8.7,7.4-10.2,12.7c-2.3,8,2.4,16.3,10.3,18.5c3.5,1,7.3,0.7,10.6-0.9"/>
	<g class="st0">
		<path class="st1" d="M191.5,422.8c-3.2-6.7-0.4-15.1,4.8-20.5s12.2-8.5,19-11.5c15.1-6.6,31-14.5,38.6-29.1
			c2.6-4.9,4-10.3,5.5-15.7c2.8-10.4,5.5-22.1-0.2-31.3c-1.6-2.6-4.1-5-7.1-5.5c-3.5-0.6-7,1.3-9.2,4.1c-2,2.9-3.2,6.3-3.5,9.8
			c-0.8,6.6-0.1,13.4-0.8,20s-3.1,13.7-8.6,17.5c-6.7,4.6-16.2,3.6-22.6,8.5c-5.2,4-7.2,10.8-11.3,16c-3.4,4.3-8.2,7.2-12.6,10.6
			s-8.7,7.4-10.2,12.7c-2.3,8,2.4,16.3,10.3,18.5c3.5,1,7.3,0.7,10.6-0.9"/>
	</g>
	<path class="st2" d="M91.3,83.9C82.1,77,80.2,63.9,87,54.7c1.4-1.8,3-3.4,4.9-4.7c3.1-2.1,6.7-3.4,9.5-6c2.4-2.3,4-5.4,6.7-7.3
		c4.4-3.1,10.5-2.1,13.7,2.3c1.9,2.6,2.3,6,1.2,9c-1.2,3.5-4.4,6.1-5.7,9.6c-1.4,3.8-0.5,8-1,11.9c-1.2,9-9.5,15.4-18.5,14.2
		c-1.2-0.2-2.4-0.5-3.6-0.9"/>
	<g class="st0">
		<path class="st1" d="M91.3,83.9C82.1,77,80.2,63.9,87,54.7c1.4-1.8,3-3.4,4.9-4.7c3.1-2.1,6.7-3.4,9.5-6c2.4-2.3,4-5.4,6.7-7.3
			c4.4-3.1,10.5-2.1,13.7,2.3c1.9,2.6,2.3,6,1.2,9c-1.2,3.5-4.4,6.1-5.7,9.6c-1.4,3.8-0.5,8-1,11.9c-1.2,9-9.5,15.4-18.5,14.2
			c-1.2-0.2-2.4-0.5-3.6-0.9"/>
	</g>
	<path class="st3" d="M91.7,62.4H104l0,0v25.3c0,3-2.4,5.4-5.4,5.4l0,0h-1.5c-3,0-5.4-2.4-5.4-5.4v0L91.7,62.4L91.7,62.4z"/>
	<polygon class="st4" points="91.7,62.4 97.9,51.2 104,62.4 	"/>
	<path class="st5" d="M95.4,55.6c0,0,1.9,2.8,4.9,0l-2.4-4.5L95.4,55.6z"/>
	<path class="st6" d="M104.2,86.5c-2.1,0.3-4.2,0.3-6.2,0.2c-2.1,0.1-4.2,0-6.2-0.2c2.1-0.3,4.2-0.3,6.2-0.2
		C100,86.2,102.1,86.3,104.2,86.5z"/>
	<path class="st7" d="M104,84.6c-2,0.3-4.1,0.3-6.1,0.2c-2,0.1-4.1,0-6.1-0.2c2-0.2,4.1-0.3,6.1-0.2C99.9,84.3,102,84.4,104,84.6z"
		/>
	<path class="st6" d="M95.3,62.6c0.1,0,0.2,4.9,0.2,10.9s-0.1,11-0.2,11s-0.2-4.9-0.2-11S95.2,62.6,95.3,62.6z"/>
	<path class="st6" d="M100.3,62.6c0.1,0,0.2,4.9,0.2,10.9s-0.1,11-0.2,11s-0.2-4.9-0.2-11S100.1,62.6,100.3,62.6z"/>
</g>
<g id="freepik--air-balloon--inject-2">
	<path class="st3" d="M281,204.6c-2.8-0.1-5.5,0-8.3,0.4c-17.2,2.2-30.1,16.9-30,34.3c0,5.5,0.7,11,2.1,16.4
		c4.8,17.1,6.3,32.1,5.7,39.4l16.1,8.6c0,0,7.5-10.7,14.6-15.3s31.2-17,40.6-29.6c6.1-8.2,7.3-25-7.3-39.7
		C305.7,210.1,293.7,205,281,204.6z"/>
	<polygon class="st3" points="242.9,313.7 257.4,321.6 248,333.6 238.3,329.2 	"/>
	<path class="st7" d="M243.6,314.2c-0.1,0,1.3-4.4,3.2-9.6s3.6-9.5,3.7-9.5s-1.3,4.4-3.2,9.6S243.7,314.2,243.6,314.2z"/>
	<path class="st7" d="M256.5,321c-0.1-0.1,2.2-4.1,5.1-9.1s5.4-8.9,5.5-8.9s-2.2,4.1-5.1,9.1S256.6,321,256.5,321z"/>
	<g>
		<path class="st5" d="M285.8,205.1c-0.6,0-8.6,9.4-12.2,15.7c-11.9,21.3-12.5,42.1-15.8,66.3c-0.5,3.5-2.2,10.9-2.2,10.7
			c1.8,1.4,7.7,4.1,7.7,4.1s5.6-6.7,7.8-10.1c8.9-13.6,18.5-24.2,26.1-38.5s14.9-27,7.9-41.7C305.2,211.7,293,204.7,285.8,205.1z"/>
	</g>
	<path class="st7" d="M322,260.9c-0.1-0.1-0.2-0.3-0.2-0.5c-0.1-0.3-0.3-0.8-0.6-1.4c-0.8-1.7-1.7-3.3-2.8-4.7
		c-1.7-2.3-3.8-4.2-6.2-5.8c-3-2-6.5-3.3-10.1-3.8H302l-0.1-0.1c-1.9-2.7-4.1-5.2-6.5-7.5c-2.6-2.5-5.6-4.6-8.9-6.1
		c-3.3-1.5-6.9-2.2-10.5-2c-3.3,0.1-6.5,1.2-9.2,3.1l-0.1,0.1l-0.1-0.1c-2.7-2.4-6.2-3.9-9.8-4.4c-2.8-0.3-5.7,0-8.3,1.1
		c-1.7,0.7-3.3,1.6-4.8,2.7c-0.5,0.4-0.9,0.7-1.1,0.9c-0.1,0.1-0.2,0.2-0.4,0.3c0.1-0.1,0.2-0.3,0.3-0.4c0.2-0.2,0.6-0.6,1.1-1
		c1.4-1.2,3-2.1,4.8-2.8c2.7-1.1,5.6-1.5,8.5-1.2c3.7,0.4,7.2,1.9,10,4.4h-0.3c2.8-1.9,6-3,9.4-3.2c3.7-0.2,7.3,0.5,10.7,2
		c3.3,1.6,6.4,3.7,9,6.2c2.4,2.3,4.6,4.8,6.5,7.6l-0.1-0.1c3.7,0.5,7.2,1.8,10.3,3.9c2.4,1.6,4.5,3.6,6.2,5.9c1.1,1.5,2,3.1,2.7,4.8
		c0.2,0.6,0.4,1.1,0.5,1.4C321.9,260.6,322,260.7,322,260.9z"/>
	<path class="st7" d="M292.1,282.1c-0.2-1.2-0.7-2.4-1.4-3.5c-0.8-1.2-1.8-2.2-3.1-3c-1.6-1-3.5-1.4-5.3-1.3H282v-0.2
		c-0.8-4.9-4.1-9-8.6-10.9c-2-0.8-4.1-1.1-6.2-1c-2,0.1-3.9,0.7-5.6,1.6l-0.1,0.1l-0.1-0.1c-1.5-1.6-3.5-2.6-5.6-3
		c-1.7-0.3-3.4-0.3-5,0.2c-1.4,0.4-2.8,1.1-4,2c0,0,0.1-0.1,0.2-0.2s0.4-0.3,0.7-0.6c0.9-0.6,1.9-1.1,3-1.5c1.7-0.5,3.4-0.6,5.1-0.3
		c2.2,0.4,4.3,1.5,5.9,3.1l-0.3,0c1.8-0.9,3.7-1.5,5.7-1.7c2.2-0.2,4.4,0.2,6.5,1c2.5,1,4.6,2.7,6.2,4.8c1.4,1.9,2.3,4.1,2.7,6.4
		l-0.2-0.2c2-0.2,3.9,0.3,5.5,1.4c1.3,0.8,2.3,1.9,3.1,3.1c0.5,0.8,0.9,1.7,1.1,2.6c0.1,0.2,0.1,0.5,0.1,0.7
		C292,282,292.1,282.1,292.1,282.1z"/>
	<path class="st7" d="M254.6,325.4c0,0-0.2-0.2-0.5-0.4c-0.6-0.2-1.2-0.1-1.7,0.1c-0.4,0.1-0.9,0.2-1.3,0.2c-0.5,0-1.1-0.2-1.4-0.6
		c-0.8-0.8-1.1-2-1.8-2.8c-0.3-0.4-0.8-0.6-1.3-0.6c-0.5,0.1-1,0.2-1.5,0.3c-0.5,0.1-1,0.2-1.5,0.1c-1.1-0.3-1.9-1.1-2.1-2.2
		c-0.1-0.2-0.1-0.5,0-0.7c0,0,0,0.2,0.2,0.6c0.2,0.6,0.5,1,1,1.4c0.3,0.2,0.7,0.4,1,0.5c0.4,0.1,0.9,0,1.3-0.1
		c0.5-0.2,1.1-0.3,1.6-0.3c0.7,0,1.3,0.2,1.7,0.7c0.9,1,1.1,2.1,1.8,2.8c0.3,0.3,0.7,0.5,1.1,0.5c0.4,0,0.8-0.1,1.2-0.2
		c0.6-0.2,1.3-0.1,1.9,0.1C254.6,325.1,254.6,325.4,254.6,325.4z"/>
	<path class="st7" d="M256.3,323c-2.4-1-4.8-2.2-7.1-3.5c-2.4-1.2-4.7-2.5-6.9-3.9c2.4,1,4.8,2.2,7.1,3.5
		C251.8,320.2,254.1,321.5,256.3,323z"/>
	<path class="st7" d="M253.4,326.7c0,0-0.2,0.1-0.5,0.3c-0.2,0.1-0.4,0.2-0.7,0.3c-0.3,0.1-0.7,0.2-1,0.1c-0.9,0-1.7-0.4-2.4-0.9
		c-0.4-0.3-0.7-0.8-0.9-1.2c-0.2-0.5-0.4-0.9-0.7-1.3c-0.7-0.6-1.7-0.9-2.6-0.8c-0.9,0.1-1.7,0-2.5-0.2c-0.6-0.2-1-0.6-1.3-1.2
		c-0.2-0.4-0.1-0.6-0.1-0.6s0.1,0.2,0.3,0.5c0.3,0.4,0.7,0.8,1.2,0.9c0.8,0.2,1.6,0.2,2.4,0.1c1.1-0.2,2.2,0.2,3,0.9
		c0.3,0.4,0.6,0.9,0.8,1.5c0.2,0.4,0.4,0.8,0.8,1.1c0.6,0.5,1.3,0.8,2.1,0.9c0.5,0,1.1,0,1.6-0.3
		C253.2,326.7,253.4,326.7,253.4,326.7z"/>
</g>
<g id="freepik--Character--inject-2">
	<path class="st2" d="M143.6,233.3l25.1-3.7l-12-17l-6.4,0.4c-4.3,0.2-8.2,2.9-9.9,6.9l0,0c-0.9,2.1-1.2,4.5-0.7,6.7L143.6,233.3z"
		/>
	<path class="st8" d="M143.6,233.3l25.1-3.7l-12-17l-6.4,0.4c-4.3,0.2-8.2,2.9-9.9,6.9l0,0c-0.9,2.1-1.2,4.5-0.7,6.7L143.6,233.3z"
		/>
	<path class="st4" d="M251.6,261.2c0.3,0.7,0.5,1.6,0.8,2.6c0.2,0.9,0.3,1.8,0.3,2.7c0,1.1-0.2,2.2-0.6,3.3c-0.4,1,0.5,1.9,1.4,1.4
		s2-3.1,2-6.4s3.3,0.7,4.6,2.1s5.4,5.7,6.2,5.7c1.1-0.1,1.2-1.2-0.1-2.7s-4.9-5.9-4.1-6.5s7.1,6.8,7.1,6.8s1.1,1.8,2,1.1
		c1.7-1.3-5.6-8.7-6.4-9.3c-0.5-0.5,0.3-1.2,0.9-0.7s6.2,7.5,7.9,6.3c1.3-1-6-6.1-6.4-8.2s5.2,4.5,6.4,3.5c0.5-0.4,0.8-0.7-3-4
		c-1.8-1.6-8.7-6.4-8.7-6.4l-20.6-59.1l-15.9,9.1L251.6,261.2z"/>
	<path class="st4" d="M128.8,149.4l-23.1-27.5l0,0c-0.3-0.9-0.7-1.9-1.1-2.8c-1.1-2.2-3.1-3.9-5.4-4.5c-1.5-0.3-3.1-0.2-4.3-1.1
		c-0.5-0.4-0.9-1-1.4-1.4s-1.4-0.5-1.8,0.1c-0.2,0.5-0.1,1,0.1,1.4c0.9,2,2.2,3.8,4,5.2c-2.2,0.7-5.2,1.7-5.2,1.7s-4.9-5.3-7.4-5.3
		s2,4.7,2,4.7s-4-3.7-5.2-2.7s1.9,3.8,1.9,3.8c-1-0.6-2.1-1-3.2-0.9c-1.1,0.2-2.1,1.5-1.5,2.5c0.3,0.3,0.6,0.6,1,0.8l6.1,3.4
		c1,0.7,2.1,1.1,3.3,1.2c3.1,0.1,5.5-1.8,8.6-1.8c0,0,17.4,36.6,19.1,38.5s40,4.5,40,4.5l22.1-19.1L128.8,149.4z"/>
	<path class="st2" d="M198,348.8l23.5,10.2L209,388.5c-2.7-1.4-1.8-19-1.8-19l-15.4-6L198,348.8z"/>
	<g class="st9">
		<path class="st3" d="M209.8,359.8c0.4-0.5,1.2-0.6,1.7-0.2c0.5,0.4,0.6,1.2,0.2,1.7c-0.5,0.5-1.2,0.6-1.8,0.2
			c-0.5-0.5-0.5-1.3-0.1-1.8"/>
	</g>
	<path class="st10" d="M221.6,359.1l-2.4-0.9L208,386.6c0,0,0,1.6,1,1.8L221.6,359.1z"/>
	<path class="st7" d="M206.8,369.9c0.1,0,0.5-0.6,1.3-1.1s1.5-0.6,1.5-0.8s-0.9-0.3-1.8,0.3S206.6,369.9,206.8,369.9z"/>
	<path class="st7" d="M206.7,373.5c0.1,0.1,0.6-0.4,1.5-0.6s1.5-0.1,1.6-0.2s-0.7-0.6-1.7-0.3S206.6,373.4,206.7,373.5z"/>
	<path class="st7" d="M209.7,376.8c0.1-0.1-0.5-0.6-1.5-0.6s-1.5,0.6-1.5,0.7s0.7-0.1,1.5-0.1S209.6,377,209.7,376.8z"/>
	<path class="st7" d="M203.4,368.1c0.2,0,0.2-0.8,0.6-1.5s0.9-1.3,0.8-1.4s-0.9,0.3-1.3,1.2S203.3,368.1,203.4,368.1z"/>
	<path class="st7" d="M200.3,365.9c0.1,0,0.4-0.5,0.6-1.5c0.1-0.6,0.2-1.2,0.2-1.7c0-0.3,0-0.7-0.1-1c0-0.2-0.1-0.4-0.2-0.6
		c-0.1-0.3-0.4-0.4-0.7-0.4c-0.3,0.1-0.5,0.2-0.6,0.5c-0.1,0.2-0.1,0.4-0.2,0.6c-0.2,0.9-0.1,1.9,0.2,2.8c0.3,1,0.8,1.4,0.8,1.4
		s-0.2-0.6-0.5-1.5c-0.1-0.5-0.2-1.1-0.2-1.6c0-0.3,0-0.7,0.1-1c0-0.3,0.2-0.6,0.3-0.6s0.1,0,0.1,0.1c0.1,0.1,0.1,0.3,0.1,0.4
		c0.1,0.3,0.1,0.7,0.1,1c0,0.6,0,1.1-0.1,1.6C200.4,364.9,200.3,365.4,200.3,365.9z"/>
	<path class="st7" d="M200.5,365.8c0,0-0.3-0.5-1.2-1c-0.5-0.3-1.1-0.4-1.7-0.5c-0.3,0-0.7,0-1,0c-0.5,0-0.9,0.2-1.1,0.6
		c-0.1,0.3,0,0.6,0.1,0.8c0.1,0.1,0.3,0.3,0.5,0.4c0.3,0.2,0.6,0.3,1,0.4c0.6,0.1,1.2,0.1,1.8,0c1-0.2,1.4-0.8,1.4-0.8
		c-0.5,0.2-1,0.3-1.5,0.4c-0.5,0.1-1.1,0-1.6-0.1c-0.3-0.1-0.6-0.2-0.8-0.4c-0.3-0.2-0.5-0.4-0.4-0.5c0.2-0.2,0.4-0.3,0.7-0.3
		c0.3,0,0.7,0,1,0c0.5,0,1.1,0.2,1.6,0.3C200,365.5,200.5,365.9,200.5,365.8z"/>
	<path class="st2" d="M179.9,389.2l9.7,20.4l3.1,18.4c0.2,1.3,1.4,2.1,2.7,1.9c0.1,0,0.1,0,0.2,0l0,0c0.7-0.2,1.3-0.7,1.6-1.4
		c1.8-4.4,8.3-20.8,7.5-22.2c-0.9-1.7-8.9-22.2-8.9-22.2L179.9,389.2z"/>
	<path class="st10" d="M195.5,429.8l8.5-25l0.4,0.9c0.3,0.8,0.4,1.6,0.2,2.4c-0.6,2.1-2.5,8-7.4,20.3
		C196.9,429.1,196.3,429.7,195.5,429.8z"/>
	<g class="st9">
		<path class="st3" d="M196.8,400.1c-0.4,0.6-0.2,1.4,0.4,1.8c0.6,0.4,1.4,0.2,1.8-0.4c0.4-0.7,0.2-1.5-0.4-1.9
			c-0.7-0.3-1.5-0.1-1.8,0.6"/>
	</g>
	<path class="st7" d="M196.2,418.7c-1.5-1-3.5-1.1-5.1-0.2c0,0,0.1-0.3,0.6-0.6c0.6-0.4,1.3-0.5,2-0.5c0.7,0,1.4,0.2,2,0.6
		C196.1,418.4,196.2,418.6,196.2,418.7z"/>
	<path class="st7" d="M196,422.1c-0.7-0.1-1.5-0.1-2.2-0.1c-0.7,0.2-1.4,0.4-2.1,0.6c-0.1-0.1,0.7-1,2.1-1.1
		C194.5,421.4,195.4,421.6,196,422.1z"/>
	<path class="st7" d="M197.3,413.9c-1.1-0.2-2.3-0.3-3.4-0.3c-1.1,0.1-2.3,0.3-3.4,0.7C192.5,412.8,195.2,412.7,197.3,413.9
		L197.3,413.9z"/>
	<path class="st7" d="M194.9,407.5c0,0.1-1.4,0.2-2.9,0.8s-2.5,1.5-2.6,1.4c0.6-0.9,1.4-1.5,2.4-1.9
		C192.8,407.3,193.9,407.2,194.9,407.5z"/>
	<path class="st7" d="M192.2,401.4c-1,0.1-2,0.4-3,0.8c-0.9,0.5-1.7,1.2-2.4,1.9c0,0,0-0.4,0.4-0.9c0.5-0.6,1.1-1.1,1.8-1.5
		c0.7-0.4,1.5-0.5,2.3-0.5C191.8,401.2,192.2,401.4,192.2,401.4z"/>
	<path class="st7" d="M188.7,401c-0.2-0.2-0.3-0.5-0.4-0.8c-0.2-0.7-0.3-1.5-0.3-2.3c0-0.6,0.2-1.1,0.5-1.6c0.3-0.3,0.6-0.4,1-0.2
		c0.3,0.2,0.6,0.4,0.8,0.8c0.5,1.5,0,3.1-1.4,3.9c-1.3,0.8-3,0.7-4.2-0.3c-0.3-0.2-0.5-0.6-0.5-1c0-0.4,0.3-0.7,0.7-0.8
		c0.6-0.1,1.1-0.1,1.7,0.1c0.8,0.2,1.5,0.5,2.1,1c0.5,0.3,0.6,0.5,0.6,0.6c-0.9-0.5-1.8-0.9-2.8-1.2c-0.5-0.1-1-0.2-1.5,0
		c-0.2,0.1-0.4,0.2-0.4,0.5c0,0.2,0.2,0.5,0.4,0.6c1.1,0.8,2.5,0.9,3.7,0.2c1.2-0.7,1.7-2.1,1.3-3.4c-0.1-0.2-0.3-0.4-0.5-0.6
		c-0.2-0.1-0.4,0-0.6,0.1c-0.3,0.4-0.5,0.9-0.5,1.4C188.3,399,188.4,400,188.7,401z"/>
	<path class="st5" d="M212.7,351.3l-26.7-18l8.8-86.8l-25.3-14.8l-23.1-5.4c0,0-9.7,20.1-14,33c-9.1,27.4-15.6,37.2-14.1,57
		c0.5,6.3,23.6,22,38.3,30.7c0.2,1.7,0.4,3.5,0.8,5.2c5,22.6,20.3,52.7,20.3,52.7l23.2-10.8l-7.5-25.6l7.8,4.5L212.7,351.3z
		 M155.3,295.3l3.1-13.9c-0.7,8.9-1.3,18.1-1.7,26.9C155.2,304.2,154.8,299.7,155.3,295.3L155.3,295.3z"/>
	<path class="st11" d="M177.7,405c-0.1-0.1-0.1-0.2-0.2-0.4l-0.5-1.1l-1.8-4.2c-1.5-3.7-3.8-9-6.4-15.6s-5.8-14.5-9-23.4
		c-0.8-2.2-1.6-4.5-2.3-6.9c-0.3-1.2-0.7-2.4-0.9-3.6c-0.1-0.3-0.1-0.6-0.2-0.9l-0.1-1l-0.2-1.9c-0.3-2.6-0.5-5.2-0.7-7.8
		c-0.1-1.3-0.1-2.7-0.2-4s-0.1-2.7,0-4.1c0.4-10.9,1.3-21.2,2.1-30.6s1.5-17.9,2.1-25s1-12.9,1.2-16.9c0.1-2,0.2-3.5,0.2-4.6
		l0.1-1.2c0-0.1,0-0.3,0-0.4c0,0.1,0,0.3,0,0.4c0,0.3,0,0.7,0,1.2c0,1.1-0.1,2.6-0.1,4.6c-0.2,4-0.5,9.8-1.1,16.9s-1.2,15.6-2,25
		s-1.6,19.8-2,30.6c-0.1,1.4,0,2.7,0,4s0.1,2.7,0.2,4c0.2,2.7,0.4,5.3,0.6,7.8l0.2,1.9l0.1,0.9c0.1,0.3,0.1,0.6,0.2,0.9
		c0.2,1.2,0.6,2.4,0.9,3.6c0.7,2.4,1.5,4.6,2.3,6.9c3.1,8.9,6.2,16.8,8.9,23.5s4.8,12,6.3,15.7c0.7,1.8,1.3,3.3,1.7,4.3
		c0.2,0.5,0.3,0.8,0.4,1.1S177.7,405,177.7,405z"/>
	<path class="st11" d="M159.9,248.4c0,0-0.2-0.1-0.6-0.5c-0.5-0.5-0.9-1.2-1.1-1.8c-0.8-2.2-1.2-4.5-1.1-6.9c0-2.3,0.1-4.7,0.3-7
		c0-1,0.2-1.9,0.4-2.9c0.1,1,0.1,1.9,0,2.9c-0.1,1.8-0.2,4.2-0.2,6.9c0,2.3,0.3,4.6,1,6.8c0.2,0.6,0.6,1.3,0.9,1.8
		C159.7,248.1,159.9,248.4,159.9,248.4z"/>
	<path class="st11" d="M149.9,227.7c0.2,0.8,0.3,1.6,0.2,2.4c-0.3,4.1-2.7,7.6-6.4,9.4c-0.7,0.4-1.5,0.6-2.3,0.7
		c0-0.1,0.9-0.3,2.2-1c3.4-1.8,5.8-5.2,6.2-9.1C149.9,228.6,149.8,227.7,149.9,227.7z"/>
	<path class="st11" d="M191.4,278.2c0,0,0,0.1,0,0.3s0,0.5-0.1,0.8c-0.1,0.7-0.2,1.7-0.3,3c-0.3,2.6-0.7,6.3-1.2,10.9
		c-1,9.2-2.5,21.9-4.1,35.9c-0.6,6.6-0.1,13.2,1.3,19.7c0.6,2.8,1.4,5.6,2.4,8.3c0.9,2.6,1.7,5,2.5,7.1c1.5,4.3,2.7,7.9,3.6,10.4
		c0.4,1.2,0.7,2.1,1,2.8l0.2,0.7c0,0.1,0.1,0.2,0.1,0.2c0,0,0-0.1-0.1-0.2s-0.2-0.4-0.3-0.7c-0.3-0.7-0.6-1.6-1-2.8l-3.7-10.3
		c-0.8-2.2-1.6-4.6-2.6-7.1c-1-2.7-1.8-5.5-2.5-8.4c-1.5-6.5-1.9-13.2-1.4-19.8c1.6-14,3.1-26.7,4.2-35.9c0.6-4.6,1-8.3,1.4-10.9
		c0.2-1.3,0.3-2.2,0.4-3c0-0.3,0.1-0.6,0.1-0.8C191.4,278.3,191.4,278.3,191.4,278.2z"/>
	<polyline class="st4" points="146.4,226.2 150.5,215.8 159.9,229.7 147.4,226.6 	"/>
	<path class="st2" d="M244.2,194.8l-11.1-24.9c-1.3-4-3.8-4.6-5.9-6.9l-27.8-15.7c-20.3-8.3-31.3,19.5-31.3,19.5l-18.4,42
		c-21.6,7.2-6.3,23.8-6.3,23.8s-5.9-10.2-0.1-13.9c6.1-3.9,12.8,6.3,19.2,16c7.6,11.4,32.4,18.8,32.4,18.8
		c2.9-3.1,2.1-13.8,4.4-19.5c0.7-1.8,17.9-41.6,17.9-41.6l6.6,16.1c0,0,8.5-10,12.7-11.6C239.1,196,241.6,195.3,244.2,194.8z"/>
	<path class="st7" d="M195,212.5c-0.3,0.2-0.5,0.4-0.8,0.6c-0.8,0.5-1.7,0.9-2.5,1.2c-5.9,2.2-12.6,1.2-17.6-2.7
		c-0.7-0.6-1.4-1.2-2.1-1.9c-0.2-0.2-0.5-0.5-0.6-0.8c0.1-0.1,1,1.1,2.9,2.4c5,3.7,11.4,4.7,17.2,2.7
		C193.7,213.2,195,212.4,195,212.5z"/>
	<path class="st2" d="M149,173L149,173l17.1,1.6l27.4-29l-16.1-0.6l-28.7,2.8C150.2,156.2,150.3,164.7,149,173z"/>
	<path class="st7" d="M172.8,157.7c0,0.2-0.1,0.4-0.2,0.5l-0.7,1.5c-0.6,1.3-1.5,3.2-2.5,5.4c-2.1,4.6-5,11-8,18.1s-5.9,13.5-8,18.1
		c-1.1,2.3-1.9,4.2-2.5,5.4l-0.7,1.5c-0.1,0.2-0.2,0.3-0.3,0.5c0.1-0.2,0.1-0.4,0.2-0.5l0.6-1.5l2.4-5.5c2-4.7,4.8-11.1,7.8-18.2
		s6-13.5,8.2-18.1c1.1-2.3,2-4.1,2.7-5.4c0.3-0.6,0.6-1.1,0.8-1.4C172.6,158,172.7,157.9,172.8,157.7z"/>
	<path class="st7" d="M225.1,166.2c0,0.1-1,0.6-2.5,1.9c-0.8,0.7-1.6,1.5-2.3,2.4c-0.8,1.1-1.6,2.2-2.2,3.4c-0.6,1.2-1,2.5-1.4,3.8
		c-0.3,1.1-0.4,2.2-0.4,3.3c-0.1,1.9,0.1,3.1,0,3.1c-0.1-0.3-0.2-0.5-0.2-0.8c-0.1-0.3-0.1-0.7-0.1-1c-0.1-0.4-0.1-0.9-0.1-1.3
		c0-1.1,0.1-2.3,0.4-3.4c0.3-1.4,0.8-2.7,1.4-4c0.6-1.3,1.4-2.4,2.3-3.5c0.7-0.9,1.6-1.7,2.5-2.4c0.3-0.3,0.7-0.5,1.1-0.8
		c0.3-0.2,0.6-0.4,0.9-0.5C224.6,166.3,224.8,166.2,225.1,166.2z"/>
	<path class="st4" d="M229.9,126.3l-16.1,30.1c-2.6,4.9-8.6,7-13.7,4.7l0,0c-5.3-2.4-7.7-8.7-5.3-14c0.1-0.2,0.2-0.4,0.3-0.6
		l2.8-5.2c0,0-7-4.5-3.7-12.1c2.9-6.7,13.6-25.8,15.9-29.8l13.6,6.1c7.5,3.9,10.4,13.1,6.5,20.5C230,126.1,230,126.2,229.9,126.3z"
		/>
	<path class="st12" d="M197.9,141.1c3.4,1.6,7.3,2.2,11,1.6c0,0-4.7,4.4-11.9,0.3L197.9,141.1z"/>
	<path class="st7" d="M203.1,117.1c-0.3,0.6,0,1.3,0.5,1.6c0.5,0.3,1.2,0.1,1.5-0.5c0,0,0,0,0,0c0.3-0.6,0-1.3-0.5-1.6
		C204.1,116.3,203.4,116.5,203.1,117.1C203.1,117.1,203.1,117.1,203.1,117.1z"/>
	<path class="st7" d="M203.1,116.1c0.1,0.2,1.1,0,2.3,0.5s1.7,1.5,1.9,1.4s0.1-0.3-0.2-0.8c-0.3-0.6-0.9-1-1.5-1.3
		c-0.6-0.3-1.3-0.3-1.9-0.2C203.3,115.8,203.1,116,203.1,116.1z"/>
	<path class="st7" d="M213.9,122.4c-0.3,0.6,0,1.3,0.5,1.6c0.5,0.3,1.2,0.1,1.5-0.5c0,0,0,0,0,0c0.3-0.6,0-1.3-0.5-1.5
		C214.9,121.6,214.2,121.8,213.9,122.4C213.9,122.4,213.9,122.4,213.9,122.4z"/>
	<path class="st7" d="M214.4,121.4c0.1,0.2,1.1,0,2.3,0.5s1.7,1.5,1.9,1.4s0.1-0.3-0.2-0.8c-0.3-0.6-0.9-1-1.5-1.3
		c-0.6-0.3-1.3-0.3-1.9-0.2C214.6,121.1,214.4,121.3,214.4,121.4z"/>
	<path class="st7" d="M206.4,128.1c-0.5-0.5-1.1-0.9-1.7-1.2c-0.3-0.2-0.5-0.3-0.5-0.6s0.3-0.5,0.6-0.8l1.9-1.9
		c1.7-1.5,3.2-3.2,4.6-5c-1.8,1.4-3.5,2.9-5,4.6l-1.9,1.9c-0.3,0.3-0.6,0.7-0.7,1.1c0,0.2,0.1,0.5,0.3,0.7c0.1,0.1,0.3,0.2,0.5,0.3
		C205,127.6,205.7,127.9,206.4,128.1z"/>
	<path class="st7" d="M209.4,130.4c-0.2-0.1-0.7,1.2-2.2,1.6s-2.8-0.3-2.8-0.1s0.2,0.4,0.8,0.6c0.7,0.3,1.6,0.4,2.3,0.2
		c0.7-0.2,1.4-0.7,1.8-1.4C209.5,130.8,209.5,130.5,209.4,130.4z"/>
	<path class="st7" d="M216.1,116.8c0,0.4,1.2,0.7,2.5,1.5s2.2,1.6,2.5,1.4c0.1-0.1,0.1-0.5-0.2-1c-0.9-1.3-2.3-2.1-3.8-2.2
		C216.5,116.5,216.1,116.6,216.1,116.8z"/>
	<path class="st7" d="M205,113c0.1,0.4,1,0.4,2,0.8s1.7,1,2,0.8s0.1-0.4-0.1-0.8c-0.3-0.5-0.8-0.9-1.4-1.1c-0.6-0.2-1.2-0.3-1.8-0.2
		C205.2,112.6,205,112.8,205,113z"/>
	<path class="st4" d="M224.9,130.9c0.2,0,5.9,0.8,3.4,5.9s-7,1.6-7,1.4S224.9,130.9,224.9,130.9z"/>
	<path class="st12" d="M223.7,136.9c0,0,0.1,0.1,0.2,0.2c0.2,0.2,0.4,0.3,0.7,0.3c0.9-0.1,1.7-0.7,2-1.5c0.2-0.4,0.3-0.9,0.4-1.4
		c0.1-0.4-0.1-0.7-0.3-1c-0.2-0.2-0.5-0.2-0.6,0c-0.1,0.1-0.1,0.2-0.2,0.2s-0.1-0.1,0.1-0.3c0.1-0.1,0.2-0.2,0.4-0.2
		c0.2,0,0.4,0,0.5,0.1c0.4,0.3,0.6,0.8,0.5,1.2c0,0.5-0.1,1.1-0.4,1.6c-0.4,0.9-1.3,1.6-2.4,1.6c-0.3-0.1-0.6-0.3-0.8-0.5
		C223.7,137.1,223.7,136.9,223.7,136.9z"/>
	<path class="st5" d="M227.8,132c-1-0.5-2.1-0.4-3,0.2c-0.7,0.6-1.1,1.4-1.8,2c-0.6,0.7-1.6,0.8-2.4,0.4c-0.5-0.4-0.7-1-0.5-1.6
		c0.1-0.6,0.4-1.2,0.7-1.7c1.4-2.3,2.9-4.4,4.1-6.8c1.3-2.3,1.8-5,1.6-7.7c-0.3-2.7-2-5-4.5-6.1c-1.6-0.6-3.5-0.4-5.2-0.9
		c-2-0.6-3.7-2.1-4.4-4.1c-0.2-0.4-0.4-0.8-0.7-1.1c0.1-0.1,0.7-1.1,1.2-1.3c4.5-1.5,10.5,0.2,14.2,3.1c3.8,3,6.1,7.5,6.3,12.3
		C233.5,123.4,230.6,128.5,227.8,132"/>
	<path class="st5" d="M227.8,131.4c1.4-2.4,3.7-4.1,5.4-6.3s3-5.2,1.7-7.7c-0.4-0.8-1.1-1.6-1.5-2.4c-0.3-0.9-0.4-1.9-0.5-2.8
		c-0.5-3-2.2-5.5-4.8-7c-1.8-1-3.8-1.4-5.6-2.3c-2.9-1.5-4.9-4.3-8-5.5c-1-0.5-2.1-0.5-3.1-0.1c-0.9,0.5-1.3,1.6-0.9,2.5
		c0,0.1,0.1,0.1,0.1,0.2c-0.2-0.9-1.1-1.4-2-1.2c-0.1,0-0.2,0.1-0.3,0.1c-0.9,0.5-1.4,1.4-1.3,2.4c0.1,1,0.5,1.9,1.1,2.6
		c1.9,2.6,4.6,4.5,7.7,5.3l6.9-0.5l5.7,4.2l4.2,6.7l-7.6,9.9L227.8,131.4z"/>
</g>
<g id="freepik--Book--inject-2">
	<path class="st2" d="M37.8,254l4,6.4c0,0,17-15.6,33.8-11.2C75.6,249.1,60.4,236.3,37.8,254z"/>
	<path class="st2" d="M75.6,249.1c0,0,12.4-13.5,30.7-10.4l5,0.8l-1.6-2.9C109.7,236.6,77.9,225.7,75.6,249.1z"/>
	<path class="st3" d="M49.3,203.6c0,0-24.9-4.3-41.3,4.6L34,257c0,0,21.3-20.5,41.6-7.9L49.3,203.6z"/>
	<path class="st7" d="M49.3,203.6c0.1,0.1,0.1,0.1,0.1,0.2l0.4,0.6l1.4,2.4l5.4,9.3l19.1,33c0.1,0.1,0,0.2-0.1,0.3
		c-0.1,0-0.2,0-0.2,0c-2.9-1.8-6.2-3.1-9.6-3.7c-1.8-0.3-3.6-0.4-5.4-0.4c-1.9,0.1-3.7,0.3-5.5,0.7c-7.7,1.9-14.8,5.7-20.6,11
		l-0.2,0.2c-0.1,0.1-0.2,0.1-0.3,0c0,0,0,0,0,0v0l-26-48.9c-0.1-0.1,0-0.2,0.1-0.3c0,0,0,0,0,0l0,0c5.2-2.6,10.8-4.3,16.6-4.9
		c4.4-0.5,8.9-0.7,13.3-0.6c3.7,0.1,6.6,0.4,8.5,0.7c1,0.1,1.7,0.2,2.2,0.3l0.6,0.1L49.3,203.6l-0.2-0.1l-0.6-0.1
		c-0.5-0.1-1.2-0.2-2.2-0.3c-2-0.2-4.8-0.4-8.5-0.5c-4.4-0.1-8.9,0.1-13.2,0.7c-5.7,0.7-11.3,2.4-16.5,5l0.1-0.3l26,48.9l-0.4-0.1
		l0.2-0.2c3-2.7,6.4-5.1,9.9-7c3.4-1.9,7.1-3.3,10.9-4.1c1.8-0.4,3.7-0.6,5.6-0.7c1.8,0,3.7,0.1,5.5,0.4c3.4,0.6,6.7,1.9,9.7,3.8
		l-0.3,0.3l-18.9-33l-5.3-9.3l-1.4-2.5c-0.2-0.3-0.3-0.5-0.3-0.6C49.3,203.7,49.3,203.6,49.3,203.6z"/>
	<path class="st3" d="M88.5,193.5c0,0-18.9-12-38.9,10l26.3,45.6c0,0,5.4-18.5,36.7-12.1L88.5,193.5z"/>
	<path class="st7" d="M88.5,193.5c0.1,0.1,0.1,0.1,0.1,0.2c0.1,0.1,0.2,0.3,0.3,0.6l1.3,2.3l5,8.8l17.5,31.5c0.1,0.1,0,0.2-0.1,0.3
		c0,0,0,0,0,0c0,0-0.1,0-0.1,0l0,0l-4.7-0.8c-0.8-0.1-1.6-0.2-2.4-0.3L103,236c-0.8-0.1-1.7-0.1-2.5-0.1l-2.5,0
		c-0.9,0-1.7,0.2-2.6,0.2c-0.9,0.1-1.7,0.2-2.6,0.4l-2.6,0.6l-2.5,0.9c-0.8,0.3-1.6,0.7-2.4,1.1c-0.4,0.2-0.8,0.4-1.2,0.7l-1.1,0.7
		c-0.8,0.5-1.4,1.1-2.1,1.7c-0.7,0.6-1.3,1.3-1.9,2c-1.2,1.4-2.2,3-2.8,4.8l0,0c0,0.1-0.2,0.2-0.3,0.1c-0.1,0-0.1-0.1-0.1-0.1
		l-1.1-1.8c-9.3-16.1-18-31.2-25.2-43.8c0-0.1,0-0.2,0-0.2c4-4.5,8.8-8.1,14.2-10.7c4.2-1.9,8.8-2.8,13.4-2.5
		c2.9,0.2,5.8,0.8,8.6,1.9c0.7,0.3,1.4,0.6,2.1,1l0.5,0.3L88.5,193.5l-0.2-0.2l-0.5-0.3c-0.5-0.2-1.2-0.6-2.1-0.9
		c-7.1-2.7-15-2.4-21.8,0.8c-5.4,2.6-10.1,6.2-14.1,10.7v-0.2L75,247.2l1.1,1.8l-0.5,0.1c0.7-1.8,1.6-3.5,2.9-5
		c0.6-0.7,1.3-1.4,1.9-2.1c0.7-0.6,1.4-1.2,2.2-1.7l1.2-0.8c0.4-0.3,0.8-0.5,1.2-0.7c0.8-0.4,1.6-0.9,2.5-1.2l2.6-0.9l2.6-0.6
		c0.9-0.2,1.7-0.3,2.6-0.4c0.9-0.1,1.7-0.2,2.6-0.2h2.6c0.8,0,1.7,0,2.5,0.1l2.5,0.2c0.8,0,1.6,0.1,2.4,0.3l4.7,0.8l-0.2,0.3
		c-7.2-13-13.2-23.9-17.4-31.6c-2.1-3.8-3.7-6.8-4.9-8.9l-1.3-2.4c-0.1-0.3-0.2-0.5-0.3-0.6S88.5,193.5,88.5,193.5z"/>
	<path class="st3" d="M15,184.6l28.1,54.1c0,0,22.8-1,32.5,10.1l-26.1-45.3C49.6,203.6,34.3,184.6,15,184.6z"/>
	<path class="st7" d="M15,184.6h0.7l2.2,0.1c0.2,0,0.5,0,0.8,0l0.8,0.1l1.9,0.3c0.7,0.1,1.4,0.3,2.2,0.5c0.8,0.2,1.6,0.4,2.4,0.7
		c6.7,2.2,15.7,7.7,23.8,17l0,0l0,0l26.1,45.3c0.1,0.1,0,0.3-0.1,0.3c-0.1,0.1-0.2,0.1-0.3,0l0,0l-1.1-1.1c-2.1-2-4.5-3.6-7.2-4.8
		c-2.6-1.2-5.3-2-8.1-2.6c-5.3-1.2-10.6-1.7-16-1.6l0,0c-0.1,0-0.2,0-0.2-0.1c-8.2-15.9-15.2-29.5-20.2-39.1
		c-2.4-4.7-4.4-8.5-5.7-11.2c-0.7-1.3-1.2-2.3-1.5-3l-0.4-0.8L15,184.6c0,0,0.1,0.1,0.1,0.2l0.4,0.8l1.6,3l5.9,11.2l20.3,38.8
		l-0.2-0.1c5.4-0.1,10.8,0.4,16.1,1.6c2.8,0.6,5.5,1.5,8.1,2.7c2.7,1.2,5.2,2.8,7.3,4.9l1.1,1.1l-0.4,0.3
		c-9.7-16.9-18.6-32.5-26-45.4l0,0c-3.6-4.2-7.8-8-12.3-11.1c-3.5-2.5-7.3-4.4-11.3-5.9c-0.8-0.3-1.6-0.5-2.4-0.7
		c-0.7-0.2-1.4-0.4-2.1-0.5l-1.9-0.3l-0.8-0.1l-0.7-0.1L15,184.6z"/>
</g>
</svg>
