<?xml version="1.0" encoding="utf-8"?>
<!-- Generator: Adobe Illustrator 24.2.3, SVG Export Plug-In . SVG Version: 6.00 Build 0)  -->
<svg version="1.1" id="Layer_1" xmlns="http://www.w3.org/2000/svg" xmlns:xlink="http://www.w3.org/1999/xlink" x="0px" y="0px"
	 viewBox="0 0 750 465" style="enable-background:new 0 0 750 465;" xml:space="preserve">
<style type="text/css">
	.st0{opacity:0.18;fill:#9BCBD9;enable-background:new    ;}
	.st1{opacity:0.24;}
	.st2{fill:none;stroke:#6CA7B5;stroke-width:0.78;stroke-miterlimit:10;}
	.st3{fill:#6CA7B5;}
	.st4{opacity:0.43;}
	.st5{fill:none;stroke:#FFFFFF;stroke-width:0.7;stroke-linecap:round;stroke-linejoin:round;}
	.st6{fill:#5B9BA5;}
	.st7{fill:none;stroke:#FFFFFF;stroke-width:1.14;stroke-linecap:round;stroke-linejoin:round;}
	.st8{fill:#79B1BA;}
	.st9{fill:none;stroke:#FFFFFF;stroke-width:0.82;stroke-linecap:round;stroke-linejoin:round;}
	.st10{fill:none;stroke:#FFFFFF;stroke-width:0.78;stroke-linecap:round;stroke-linejoin:round;}
	.st11{fill:none;stroke:#FFFFFF;stroke-width:0.98;stroke-linecap:round;stroke-linejoin:round;}
	.st12{fill:none;stroke:#FFFFFF;stroke-width:0.9;stroke-linecap:round;stroke-linejoin:round;}
	.st13{fill:none;stroke:#6CA7B5;stroke-width:2;stroke-linecap:round;stroke-linejoin:round;}
	.st14{opacity:0.56;}
	.st15{opacity:0.39;}
	.st16{fill:#FFFFFF;}
	.st17{fill:#A3D1DE;}
	.st18{fill:#E1F6FB;}
	.st19{fill:none;stroke:#A3D1DE;stroke-miterlimit:10;}
	.st20{fill:#ACDAE5;}
	.st21{clip-path:url(#SVGID_2_);}
	.st22{fill:#FEC9CF;}
	.st23{fill:#212A6B;}
	.st24{fill:#FFCAD0;}
	.st25{fill:#23585E;}
	.st26{fill:#E7EAFD;}
	.st27{fill:#EE84AA;}
	.st28{fill:#561E15;}
	.st29{fill:#0E1235;}
	.st30{fill:none;stroke:#561E15;stroke-width:1.03;stroke-linecap:round;stroke-linejoin:round;}
	.st31{fill:none;stroke:#EE84AA;stroke-width:0.77;stroke-linecap:round;stroke-linejoin:round;}
	.st32{fill:#172156;}
	.st33{fill:#1A4A4C;}
	.st34{fill:#21565C;}
	.st35{fill:#FEB161;}
	.st36{fill:#255C63;}
	.st37{fill:#194248;}
	.st38{fill:none;stroke:#194248;stroke-linecap:round;stroke-linejoin:round;}
	.st39{fill:#F75959;}
	.st40{fill:#FF6666;}
	.st41{fill:none;stroke:#561E15;stroke-linecap:round;stroke-linejoin:round;}
	.st42{fill:none;stroke:#EE84AA;stroke-width:0.75;stroke-linecap:round;stroke-linejoin:round;}
	.st43{fill:#265F66;}
	.st44{fill:#2C7277;}
	.st45{fill:#29686D;}
	.st46{fill:#87BCCA;}
	.st47{fill:#6CABBC;}
	.st48{fill:none;stroke:#6CABBC;stroke-miterlimit:10;}
	.st49{fill:none;stroke:#FFFFFF;stroke-width:2;stroke-linecap:round;stroke-linejoin:round;}
	.st50{fill:none;stroke:#FFFFFF;stroke-width:2.22;stroke-linecap:round;stroke-linejoin:round;}
</style>
<g id="BACKGROUND">
	<path class="st0" d="M61.6,424.4c-7.3-5.3-13.7-11.8-19-19.1c-15.6-21.7-19.4-50.5-15.7-76.5c1.5-10.7,6.3-16.7,10.5-26.2
		c5.7-12.7,8.4-28.5,9.5-42.3c2.1-25.5-4.5-50.8-6.4-76.3c-1.6-21.8,0.6-47.7,15.2-65.2c15.6-18.6,43.8-23,66.7-23.1
		c34.5-0.1,67.5,4.1,101.6-3s65.1-25.1,95.2-42c40.8-22.9,86.5-45.2,132.4-36.4c20.6,4,39.4,13.9,59,21.3
		C549.7,50.2,592.1,36.4,631,51c21.6,8.1,41,26.6,43.1,49.6c1.8,18.9-7.9,36.6-15.5,54c-6.9,15.8-14.1,37.6-3.4,53.1
		c9.4,13.6,20.9,27.2,31.3,40.3c22.2,28.1,48.3,57.6,51.1,95c3.2,43.8-29.1,84.6-69.3,102.4s-86.3,16.4-129.6,9s-85.5-19.5-129-25
		c-46.4-5.9-88-5.5-134.3,2.6c-44.6,7.9-89.3,18.1-134.6,16.4C113,447.3,83.6,440.5,61.6,424.4z"/>
</g>
<g id="OBJECTS">
	<g class="st1">
		<path class="st2" d="M385.7,402.6c1.4-7,5.4-13.3,11.3-17.4"/>
		<path class="st2" d="M385.5,404.6c0.2-5.8,2.5-19.8,7.8-28.6"/>
		<path class="st2" d="M385.6,403.9c1-10.7,0.7-21.5-0.8-32.1"/>
		<path class="st3" d="M397.3,382.2c1.2-2.2,2.9-4.5,5.4-4.9c2.1-0.4,4.1,0.5,6.2,0.9c1.7,0.3,3.5,0.3,5.3,0.5
			c1.8,0.1,3.5,0.7,4.9,1.7c1.4,1.1,2,3,1.4,4.7c-0.9,2-3.4,2.5-5.5,2.5c-3.7,0-7.3-1.2-11-1.7c-1.8-0.2-3.6-0.2-5.4,0
			c-1.4,0.2-3.4,1.5-4.6,1.3C395.3,385.7,396.4,384,397.3,382.2z"/>
		<path class="st3" d="M396,367.7c1.7-3.8,4.5-7.4,8.4-8.5c3.4-1,6.9,0.1,10.4,0.2c1.6-0.1,3.2,0,4.9,0.1c1.6,0.2,3.1,1,4.1,2.4
			c1.3,2.2,0,5.2-2.1,6.6s-4.9,1.4-7.4,1.1s-5-0.9-7.6-0.7c-3.2,0.4-6.3,1.7-8.8,3.8c-2,1.6-3.6,4.2-5.6,5.5
			C391.2,377.3,395.3,369.1,396,367.7z"/>
		<path class="st3" d="M387.9,361.7c-0.6-4-3.6-7.2-4.6-11c-0.7-2.9-0.3-6-1-8.9c-0.6-2.4-2.1-4.6-4.1-6.1c-1.4-1.1-3.1-1.7-4.9-1.5
			c-2.6,0.5-4.4,3.3-4.4,6s1.3,5.2,2.7,7.5s3.1,4.4,4,7c1.3,3.6,0.9,7.6,2.2,11.2c0.6,1.6,1.5,3,2.6,4.2c0.7,0.8,3.1,3.1,4.2,2.9
			s2.1-4,2.5-5C387.9,365.9,388.1,363.8,387.9,361.7z"/>
		<path class="st2" d="M385.5,402.9c-0.7-9.2-3-19.5-8.2-27.2"/>
		<path class="st3" d="M376.6,368.7c-0.9-2.8-2.5-5.3-4.7-7.3c-2.4-1.8-5.1-3.1-8-3.7c-2.9-0.9-6-1.3-9.1-1.1
			c-3.1,0.1-6.1,1.2-8.5,3.2c-1.1,0.9-1.9,2-2.3,3.4c-0.4,1.4,0.1,2.8,1.2,3.7c0.9,0.5,1.9,0.8,2.9,0.8c4.5,0.2,9,0,13.5,0.6
			s9,2.4,11.9,5.9c0.6,0.9,1.3,1.7,2.1,2.5c0.4,0.4,1.8,1.4,2.4,0.9s0.1-1.8,0-2.4C377.8,372.9,377.3,370.8,376.6,368.7z"/>
		<path class="st2" d="M385.3,403.9c-0.4-8.1-4-15.7-9.8-21.3"/>
		<path class="st3" d="M372.7,377.9c-2.1-1-4.4-1.9-6.6-2.4c-2.2-0.6-4.5-1.2-6.7-0.8c-2.5,0.5-4.5,2.2-6.4,3.8
			c-1.5,1.2-2.9,2.6-4.1,4.1c-0.7,0.7-0.9,1.7-0.8,2.6c0.4,1.2,1.8,1.6,3,1.5c2.2-0.1,4.2-1.2,6.3-2c3.3-1.3,6.8-1.9,10.3-1.9
			c3.2,0,6.7-0.1,9.7,1.2c-0.6-0.2-1.5-2.7-1.9-3.3c-0.6-1-1.3-1.9-2.3-2.5L372.7,377.9z"/>
	</g>
	<g class="st4">
		<path class="st3" d="M610.5,394.4c1.1-3.2,3.3-5.9,6.2-7.7c2.7-1.5,5.9-1.9,8.1-4.1c1.8-1.8,2.4-4.3,3.2-6.6s2-4.9,4.2-5.9
			c2.6-1.2,5.5,0,7.8,1.5s4.7,3.3,7.5,3.2c2.2-0.1,4.4-1.4,6.6-1.5c3.1-0.2,5.8,1.8,8.1,3.7c1.7,1.4,3.5,2.9,4.1,5
			c0.7,2.6-0.6,5.6-2.8,7.4c-2.2,1.7-4.9,2.6-7.7,2.6c-2.5,0.1-5.3-0.2-7.1,1.7s-1.2,4.8-2.4,7c-1.3,2.2-3.8,3.6-6.4,3.5
			c-2.5-0.2-4.9-0.8-7.1-1.9c-2.2-1.1-4.7-1.6-7.1-1.7c-2.8,0.1-5.4,1.5-8,2.6c-2.3,0.9-6.5,2.7-8.3,0.3
			C607.8,401.4,609.6,396.7,610.5,394.4z"/>
		<path class="st5" d="M609.8,403.2c13-11.3,28.7-18.9,45.6-22.2"/>
		<path class="st6" d="M623,385.6c0.3-3.8-0.4-7.7,0.8-11.3c2.2-6.4,9.9-9.7,11.8-16.1c2.3-7.7-4.7-15.6-3.5-23.5
			c0.5-3.4,2.4-6.3,3.6-9.5s1.5-7.1-0.8-9.6s-6.9-2.3-9.8-0.2s-4.6,5.4-5.9,8.7s-2.5,6.7-4.8,9.5c-4.2,5-11.7,7.1-14,13.2
			s2.1,12.7,2.8,19.3c0.6,5-0.9,9.9-2.3,14.7s-2.5,9.9-1.3,14.8c1.6,6.5,7.5,10.6,13,6.4S622.4,392.7,623,385.6z"/>
		<path class="st7" d="M609.2,403.5c-2.2-23,2.8-48,14.7-67.9"/>
		<path class="st8" d="M594.5,394.8c-2.4-3.4-3.8-7.7-7.1-10.3c-3.8-3-9-3-13.8-3.4s-10.2-1.8-12.5-6c-1.2-2.4-1.2-5.1-2.1-7.6
			c-0.9-2.8-2.9-5-4.2-7.6s-2-5.8-0.5-8.3s5-3.2,7.9-2.4s5.2,2.8,7.3,4.8s4.2,4.2,6.8,5.5c4.3,2.2,9.5,1.8,14.3,1.6s10.2,0,13.9,3.1
			c3.1,2.5,4.5,6.6,5.8,10.4c1.8,5.4,3.7,10.9,5.5,16.3c1.1,3.4,3.2,8.5-0.3,11.2C609.2,406.7,598.1,399.8,594.5,394.8z"/>
		<path class="st9" d="M613.5,402.2c-7.7-17.9-24.1-33.2-43.6-39.9"/>
	</g>
	<g class="st4">
		<path class="st8" d="M145.4,396.4c2.2-3.3,3.5-7.5,6.4-9.9c3.4-2.8,8.1-2.4,12.4-2.4s9.2-1,11.2-5.2c1.1-2.3,1.1-5.1,1.9-7.6
			c0.9-2.7,2.6-4.9,3.8-7.4s1.9-5.8,0.5-8.3c-1.4-2.4-4.3-3.7-7-3c-2.6,0.6-4.6,2.4-6.6,4.3s-3.8,4-6.1,5.1
			c-3.9,1.9-8.5,1.1-12.9,0.5s-9.1-0.7-12.5,2.1c-2.8,2.4-4.1,6.3-5.2,10c-1.7,5.4-3.4,10.7-5,16.1c-1,3.3-2.9,8.4,0.2,11.3
			C132.1,407.3,142.2,401.2,145.4,396.4z"/>
		<path class="st10" d="M128.4,402.5c7.1-17.5,21.8-31.8,39.4-37.1"/>
		<path class="st6" d="M118.7,387.1c-0.2-3.5,0.3-7.1-0.7-10.4c-1.8-5.9-7.9-8.9-9.4-14.8c-1.8-7.1,3.8-14.3,2.8-21.6
			c-0.4-3.1-2-5.8-2.9-8.7s-1.2-6.6,0.7-8.8s5.5-2.1,7.8-0.2s3.7,5,4.8,8s2,6.2,3.9,8.7c3.3,4.6,9.4,6.6,11.2,12.2
			s-1.6,11.7-2.3,17.7c-0.5,4.6,0.7,9.1,1.8,13.5s2,9.1,1,13.6c-1.3,5.9-6,9.7-10.4,5.9S119.2,393.7,118.7,387.1z"/>
		<path class="st11" d="M129.7,403.6c1.8-21.2-2.3-44.1-11.8-62.4"/>
		<path class="st3" d="M129.4,391.5c-1.5-4.3-4.1-8.4-7.6-10.9c-3.2-2.2-7.2-3-9.8-6.1c-2.2-2.5-3-6-4-9.2s-2.5-6.7-5.2-8.3
			c-3.2-1.9-6.7-0.4-9.4,1.4s-5.5,4.1-8.9,3.7c-2.7-0.3-5.3-2.2-8-2.6c-3.8-0.5-6.9,2-9.7,4.4c-2,1.7-4.1,3.6-4.8,6.4
			c-0.8,3.5,0.9,7.7,3.5,10.3c2.6,2.4,5.9,3.9,9.4,4.1c3,0.3,6.4,0.1,8.6,2.8s1.6,6.6,3,9.7c1.5,3,4.5,5,7.8,5.2
			c3,0.2,5.8-0.9,8.5-2s5.5-2.1,8.6-1.8c3.4,0.4,6.6,2.4,9.8,4.1c2.8,1.5,7.9,4.1,10,1.1C132.9,401.1,130.6,394.6,129.4,391.5z"/>
		<path class="st12" d="M130.5,403.4c-16.3-16.5-35.2-27.9-55.5-33.5"/>
	</g>
	<path class="st13" d="M600,114c0,3.2-2.6,5.8-5.7,5.8s-5.8-2.6-5.8-5.7c0-3.2,2.6-5.8,5.7-5.8c0,0,0,0,0,0
		C597.4,108.3,600,110.8,600,114z"/>
	<line class="st13" x1="598.4" y1="118" x2="602.5" y2="122"/>
	<line class="st13" x1="386.4" y1="58.7" x2="392.5" y2="64.7"/>
	<line class="st13" x1="392.5" y1="58.7" x2="386.4" y2="64.7"/>
	<line class="st13" x1="484" y1="362.3" x2="490" y2="368.4"/>
	<line class="st13" x1="490" y1="362.3" x2="484" y2="368.4"/>
	<line class="st13" x1="67.8" y1="307.6" x2="67.8" y2="316.2"/>
	<line class="st13" x1="72" y1="311.9" x2="63.5" y2="311.9"/>
	<path class="st13" d="M112.9,255.3c0,2.9-2.3,5.2-5.2,5.2c-2.9,0-5.2-2.3-5.2-5.2c0-2.9,2.3-5.2,5.2-5.2c0,0,0,0,0,0
		C110.6,250.1,112.9,252.4,112.9,255.3z"/>
	<path class="st13" d="M319.6,341.2c0,2.9-2.3,5.2-5.2,5.2c-2.9,0-5.2-2.3-5.2-5.2c0-2.9,2.3-5.2,5.2-5.2c0,0,0,0,0,0
		C317.2,336,319.6,338.3,319.6,341.2z"/>
	<path class="st13" d="M629.1,262c0,2.9-2.3,5.2-5.2,5.2s-5.2-2.3-5.2-5.2c0-2.9,2.3-5.2,5.2-5.2c0,0,0,0,0,0
		C626.8,256.8,629.1,259.1,629.1,262z"/>
	<g class="st14">
		<g class="st15">
			<circle class="st3" cx="25.3" cy="140.1" r="1.9"/>
			<circle class="st3" cx="38.4" cy="140.1" r="1.9"/>
			<circle class="st3" cx="51.5" cy="140.1" r="1.9"/>
			<circle class="st3" cx="64.6" cy="140.1" r="1.9"/>
			<circle class="st3" cx="77.8" cy="140.1" r="1.9"/>
			<circle class="st3" cx="90.9" cy="140.1" r="1.9"/>
			<circle class="st3" cx="104" cy="140.1" r="1.9"/>
			<circle class="st3" cx="25.3" cy="153.2" r="1.9"/>
			<circle class="st3" cx="38.4" cy="153.2" r="1.9"/>
			<circle class="st3" cx="51.5" cy="153.2" r="1.9"/>
			<circle class="st3" cx="64.6" cy="153.2" r="1.9"/>
			<circle class="st3" cx="77.8" cy="153.2" r="1.9"/>
			<circle class="st3" cx="90.9" cy="153.2" r="1.9"/>
			<circle class="st3" cx="104" cy="153.2" r="1.9"/>
			<circle class="st3" cx="25.3" cy="166.4" r="1.9"/>
			<circle class="st3" cx="38.4" cy="166.4" r="1.9"/>
			<circle class="st3" cx="51.5" cy="166.4" r="1.9"/>
			<circle class="st3" cx="64.6" cy="166.4" r="1.9"/>
			<circle class="st3" cx="77.8" cy="166.4" r="1.9"/>
			<circle class="st3" cx="90.9" cy="166.4" r="1.9"/>
			<circle class="st3" cx="104" cy="166.4" r="1.9"/>
			<circle class="st3" cx="25.3" cy="179.5" r="1.9"/>
			<circle class="st3" cx="38.4" cy="179.5" r="1.9"/>
			<circle class="st3" cx="51.5" cy="179.5" r="1.9"/>
			<circle class="st3" cx="64.6" cy="179.5" r="1.9"/>
			<circle class="st3" cx="77.8" cy="179.5" r="1.9"/>
			<circle class="st3" cx="90.9" cy="179.5" r="1.9"/>
			<circle class="st3" cx="104" cy="179.5" r="1.9"/>
		</g>
		<g class="st15">
			<circle class="st3" cx="238.7" cy="364.2" r="1.9"/>
			<circle class="st3" cx="251.9" cy="364.2" r="1.9"/>
			<circle class="st3" cx="265" cy="364.2" r="1.9"/>
			<circle class="st3" cx="278.1" cy="364.2" r="1.9"/>
			<circle class="st3" cx="291.2" cy="364.2" r="1.9"/>
			<circle class="st3" cx="238.7" cy="377.3" r="1.9"/>
			<circle class="st3" cx="251.9" cy="377.3" r="1.9"/>
			<circle class="st3" cx="265" cy="377.3" r="1.9"/>
			<circle class="st3" cx="278.1" cy="377.3" r="1.9"/>
			<circle class="st3" cx="291.2" cy="377.3" r="1.9"/>
		</g>
		<g class="st15">
			<circle class="st3" cx="615.3" cy="81" r="1.9"/>
			<circle class="st3" cx="628.5" cy="81" r="1.9"/>
			<circle class="st3" cx="641.6" cy="81" r="1.9"/>
			<circle class="st3" cx="615.3" cy="94.1" r="1.9"/>
			<circle class="st3" cx="628.5" cy="94.1" r="1.9"/>
			<circle class="st3" cx="641.6" cy="94.1" r="1.9"/>
		</g>
		<g class="st15">
			<circle class="st3" cx="711.3" cy="245.2" r="1.9"/>
			<circle class="st3" cx="711.3" cy="258.3" r="1.9"/>
			<circle class="st3" cx="711.3" cy="271.5" r="1.9"/>
			<circle class="st3" cx="711.3" cy="284.6" r="1.9"/>
			<circle class="st3" cx="711.3" cy="297.7" r="1.9"/>
			<circle class="st3" cx="711.3" cy="310.8" r="1.9"/>
			<circle class="st3" cx="711.3" cy="324" r="1.9"/>
			<circle class="st3" cx="698.2" cy="245.2" r="1.9"/>
			<circle class="st3" cx="698.2" cy="258.3" r="1.9"/>
			<circle class="st3" cx="698.2" cy="271.5" r="1.9"/>
			<circle class="st3" cx="698.2" cy="284.6" r="1.9"/>
			<circle class="st3" cx="698.2" cy="297.7" r="1.9"/>
			<circle class="st3" cx="698.2" cy="310.8" r="1.9"/>
			<circle class="st3" cx="698.2" cy="324" r="1.9"/>
			<circle class="st3" cx="685.1" cy="245.2" r="1.9"/>
			<circle class="st3" cx="685.1" cy="258.3" r="1.9"/>
			<circle class="st3" cx="685.1" cy="271.5" r="1.9"/>
			<circle class="st3" cx="685.1" cy="284.6" r="1.9"/>
			<circle class="st3" cx="685.1" cy="297.7" r="1.9"/>
			<circle class="st3" cx="685.1" cy="310.8" r="1.9"/>
			<circle class="st3" cx="685.1" cy="324" r="1.9"/>
			<circle class="st3" cx="671.9" cy="245.2" r="1.9"/>
			<circle class="st3" cx="671.9" cy="258.3" r="1.9"/>
			<circle class="st3" cx="671.9" cy="271.5" r="1.9"/>
			<circle class="st3" cx="671.9" cy="284.6" r="1.9"/>
			<circle class="st3" cx="671.9" cy="297.7" r="1.9"/>
			<circle class="st3" cx="671.9" cy="310.8" r="1.9"/>
			<circle class="st3" cx="671.9" cy="324" r="1.9"/>
		</g>
	</g>
	<path class="st3" d="M199.1,89.5h340.8c6.5,0,11.7,5.2,11.7,11.7v208.1c0,6.5-5.2,11.7-11.7,11.7H199.1c-6.5,0-11.7-5.2-11.7-11.7
		V101.2C187.4,94.8,192.7,89.5,199.1,89.5z"/>
	<path class="st16" d="M199.6,91.8h339.8c5.3,0,9.5,4.3,9.5,9.6v202c0,5.3-4.3,9.5-9.5,9.5H199.6c-5.3,0-9.6-4.3-9.6-9.5v-202
		C190.1,96.1,194.3,91.8,199.6,91.8z"/>
	<path class="st17" d="M427.7,110.7v142.5c0,4.3-3.5,7.8-7.8,7.8H205.3c-4.3,0-7.8-3.5-7.8-7.8V110.7c0-4.3,3.5-7.8,7.8-7.8h214.6
		C424.2,103,427.7,106.4,427.7,110.7z"/>
	<path class="st18" d="M444.9,102.9h88.8c4.3,0,7.8,3.5,7.8,7.8v45.4c0,4.3-3.5,7.8-7.8,7.8h-88.8c-4.3,0-7.8-3.5-7.8-7.8v-45.4
		C437.1,106.4,440.6,102.9,444.9,102.9z"/>
	<path class="st18" d="M444.9,179.6h88.8c4.3,0,7.8,3.5,7.8,7.8v45.4c0,4.3-3.5,7.8-7.8,7.8h-88.8c-4.3,0-7.8-3.5-7.8-7.8v-45.4
		C437.1,183.1,440.6,179.6,444.9,179.6z"/>
	<path class="st18" d="M444.9,256.4h88.8c4.3,0,7.8,3.5,7.8,7.8v41.1c0,4.3-3.5,7.8-7.8,7.8h-88.8c-4.3,0-7.8-3.5-7.8-7.8v-41.1
		C437.1,259.8,440.6,256.4,444.9,256.4z"/>
	<path class="st18" d="M200.3,270.7h114.5c1.6,0,2.8,1.3,2.8,2.8v0c0,1.6-1.3,2.8-2.8,2.8H200.3c-1.6,0-2.8-1.3-2.8-2.8v0
		C197.5,272,198.8,270.7,200.3,270.7z"/>
	<path class="st18" d="M200.3,286h114.5c1.6,0,2.8,1.3,2.8,2.8v11.3c0,1.6-1.3,2.8-2.8,2.8H200.3c-1.6,0-2.8-1.3-2.8-2.8v-11.3
		C197.5,287.3,198.8,286,200.3,286z"/>
	<path class="st18" d="M399.7,270.7h25.2c1.6,0,2.8,1.3,2.8,2.8v0c0,1.6-1.3,2.8-2.8,2.8h-25.2c-1.6,0-2.8-1.3-2.8-2.8v0
		C396.9,272,398.1,270.7,399.7,270.7z"/>
	<path class="st18" d="M356.9,270.7h25.2c1.6,0,2.8,1.3,2.8,2.8v0c0,1.6-1.3,2.8-2.8,2.8h-25.2c-1.6,0-2.8-1.3-2.8-2.8v0
		C354.1,272,355.4,270.7,356.9,270.7z"/>
	<path class="st18" d="M374.9,286h50c1.6,0,2.8,1.3,2.8,2.8v11.3c0,1.6-1.3,2.8-2.8,2.8h-50c-1.6,0-2.8-1.3-2.8-2.8v-11.3
		C372.1,287.3,373.3,286,374.9,286z"/>
	<g class="st1">
		<circle class="st19" cx="489.4" cy="133.4" r="15.8"/>
		<path class="st17" d="M495.2,132.1l-9-5.2c-0.7-0.4-1.6-0.2-2,0.5c-0.1,0.2-0.2,0.5-0.2,0.7v10.4c0,0.8,0.7,1.5,1.5,1.5
			c0.3,0,0.5-0.1,0.7-0.2l9-5.2c0.7-0.4,1-1.3,0.6-2C495.6,132.5,495.4,132.3,495.2,132.1z"/>
	</g>
	<g class="st1">
		<circle class="st19" cx="489.4" cy="210.1" r="15.8"/>
		<path class="st17" d="M495.2,208.8l-9-5.2c-0.7-0.4-1.6-0.2-2,0.5c-0.1,0.2-0.2,0.5-0.2,0.7v10.4c0,0.8,0.7,1.5,1.5,1.5
			c0.3,0,0.5-0.1,0.7-0.2l9-5.2c0.7-0.4,1-1.3,0.6-2C495.6,209.2,495.4,209,495.2,208.8z"/>
	</g>
	<g class="st1">
		<circle class="st19" cx="489.4" cy="284.6" r="15.8"/>
		<path class="st17" d="M495.2,283.4l-9-5.2c-0.7-0.4-1.6-0.2-2,0.6c-0.1,0.2-0.2,0.5-0.2,0.7v10.4c0,0.8,0.6,1.5,1.5,1.5
			c0.3,0,0.5-0.1,0.7-0.2l9-5.2c0.7-0.4,1-1.3,0.6-2C495.6,283.7,495.4,283.5,495.2,283.4z"/>
	</g>
	<path class="st20" d="M425,104.8L200.2,259.2c-1.7-1.5-2.7-3.6-2.7-5.9V110.7c0-4.3,3.5-7.8,7.8-7.8h214.6
		C421.8,102.9,423.6,103.6,425,104.8z"/>
	<g>
		<defs>
			<rect id="SVGID_1_" x="197.5" y="65.5" width="259.1" height="195.5"/>
		</defs>
		<clipPath id="SVGID_2_">
			<use xlink:href="#SVGID_1_"  style="overflow:visible;"/>
		</clipPath>
		<g class="st21">
			<polygon class="st22" points="350.6,501.5 354,543.1 336.3,543.1 327.1,501.5 			"/>
			<path class="st23" d="M334.4,534.4c0,0-7.7,12.4-1.9,14.7s43.8,2.4,53.2,1s-21-14.3-27.9-16.3S348.6,542.3,334.4,534.4z"/>
			<polygon class="st22" points="237.1,501.5 233.7,543.1 251.4,543.1 260.6,501.5 			"/>
			<path class="st24" d="M409.9,203.2c0,0,12.8-10.1,13.2-13c0.6-5.5,2.6-9.7,14.3-13.4c0.5,1.2,0.2,2.7-0.7,3.6
				c-0.9,1.1-2,2-3.2,2.8c0,0,3.1,1.2,7.7-2.4s6.6-6.7,8.5-6c0,0,2.3-2.1,3.4-1.8c0.5,0.1,0.7,0.6,0.6,1.1c1.8-0.3,1.5,4.9-1.8,9.2
				c-4.6,6.1-10.4,11.4-15.1,13.1c-3.6,1.3-18.2,16.2-18.2,16.2L409.9,203.2z"/>
			<path class="st25" d="M370.2,254.9c-5.6,1.9-36.7-45.9-36.7-45.9c-12-13.8-1.2-59.3,9.6-43.4c0,0,28.3,51.1,31.3,55.3
				C378.3,226,390.9,247.9,370.2,254.9z"/>
			<polygon class="st23" points="253.3,302.3 225.4,513.7 261.5,520.2 291.4,383.6 328.3,522.3 357.3,515.8 335.2,302.3 			"/>
			<path class="st25" d="M335.2,302.3h-81.9c0,0-6.3-2.8-0.8-14.9c2-4.5,1.2-16.1,0.8-32.1c-0.7-31.5-10.1-83.9,1.5-89.9
				c6.9-3.6,21.6-8.4,32.3-11.6c0.6-0.2,1.3-0.4,1.9-0.6c6.2-1.9,10.7-3.1,10.7-3.1c5.3,1,10.5,2.2,15.6,3.9l1.8,0.5
				c2.7,0.8,5.8,1.8,9.1,3c18.3,6.2,16.3,4,18.7,26.9C346.8,202.7,335.2,302.3,335.2,302.3z"/>
			<path class="st26" d="M317.1,154.6c-0.2,3.7-1.9,7.3-4.6,9.8c-6,5.7-15.5,5.5-21.2-0.5c-2.6-2.7-4-6.3-4.1-10
				c0.6-0.2,1.3-0.4,1.9-0.6c6.2-1.9,10.7-3.1,10.7-3.1c5.3,1,10.5,2.2,15.6,3.9L317.1,154.6z"/>
			<path class="st22" d="M315.3,121.8l-1.3,24.9l-0.4,7.1c-0.3,6.3-5.7,11.1-12,10.7c-6.1-0.3-10.9-5.5-10.7-11.6l0.3-12.7l0.5-21.1
				L315.3,121.8z"/>
			<path class="st27" d="M315.3,126.8l-1.3,23.5c-11,0.4-19.1-4-22.8-10l0.5-16.1L315.3,126.8z"/>
			<path class="st28" d="M284.4,97.4c0,0-10.6-1.3-9.4,11.9c0.9,10.3,14.9,24,14.9,24S298.8,102.4,284.4,97.4z"/>
			<path class="st29" d="M327.6,107c-0.8,1.6-1.7,3.1-2.7,4.6c-1,1.5-1.5,3.3-1.4,5.1c-0.2-2.9-2.1-5.3-3.7-7.7s-3.1-5.3-2.4-8
				s5.6-6.9,8.5-5.2C329.1,97.7,328.9,104.1,327.6,107z"/>
			<path class="st24" d="M324,107.5c0.5,5.7,0.4,11.4-0.3,17.1c-1.3,10.4-0.8,22.6-16.2,23.4c-16.3,0.9-21.8-17.4-21.8-17.4
				s-8.7-1.6-9.3-7.5s5.5-6.2,7.5-4.6c0,0,2.2-21.9,22.5-21.9C324.2,96.7,324,107.5,324,107.5z"/>
			<path class="st28" d="M304.8,124.2c0,0.9-0.7,1.6-1.6,1.6s-1.6-0.7-1.6-1.6c0-0.9,0.7-1.6,1.6-1.6c0,0,0,0,0,0
				C304.1,122.6,304.8,123.3,304.8,124.2C304.8,124.2,304.8,124.2,304.8,124.2z"/>
			<path class="st28" d="M319.5,124.2c0,0.9-0.7,1.6-1.6,1.6c-0.9,0-1.6-0.7-1.6-1.6c0-0.9,0.7-1.6,1.6-1.6l0,0
				C318.7,122.6,319.5,123.3,319.5,124.2C319.5,124.2,319.5,124.2,319.5,124.2z"/>
			<path class="st30" d="M297.3,118.6c1.7-2.4,4.7-3.5,7.5-2.5"/>
			<path class="st30" d="M313.6,116c0,0,3.7-3.4,7.3,0.3"/>
			<path class="st31" d="M310.4,120c0,0,1.8,4.5,3.2,7.2s-2.9,4-2.9,4"/>
			<path class="st31" d="M304.5,136.3c2.2,2,5.5,2.6,8.2,1.4"/>
			<path class="st31" d="M283.7,125c0,0,0-5-3.8-3.7"/>
			<path class="st28" d="M288.6,101.6c0,0,9.2,9.4,4.2,12.9c-3.3,2.3-5.6,5.7-6.5,9.6c0,0,0.1-2-2.4-5.6S276,102,288.6,101.6z"/>
			<path class="st25" d="M370.2,254.9c6.7,4.4,57.5-49.9,57.5-49.9l-9-11.8c0,0-38.6,24.2-44.2,27.7
				C366.5,225.8,347.8,240.2,370.2,254.9z"/>
			<path class="st23" d="M253.3,534.4c0,0,7.7,12.4,1.9,14.7s-43.8,2.4-53.2,1s21-14.3,27.9-16.3S239.1,542.3,253.3,534.4z"/>
			<polygon class="st32" points="291.4,383.6 301.3,338.8 297.1,405.1 			"/>
			<path class="st33" d="M343.2,223.3c0,0,2.3-24.8,1.9-32.7c2,13.2,3.1,26.6,3.3,40L343.2,223.3z"/>
			<path class="st25" d="M257.5,214.9c0,0,11.9-50.9-0.8-50.3c0,0-4.1,0.5-12.3,13.1c-5.7,8.8-11.9,24.1-23.2,48.9
				c-5.4,11.7-12.1,27.6,0.4,28.5c6.7,0.5,13.8-3.2,17.9-11C247.1,230,257.5,214.9,257.5,214.9z"/>
			<path class="st33" d="M268.1,278.2l64.7-15.2C332.8,263,312.4,278.2,268.1,278.2z"/>
			<path class="st33" d="M250.7,225.1c0,0,10.4-18.5,16-27.5l-13,70.7C253.7,268.3,252.4,239.4,250.7,225.1z"/>
			<polygon class="st33" points="292.3,249.2 253.6,267.3 255.6,248.7 			"/>
			<path class="st3" d="M316,251.2h-13.6c-2.4,0-4.4-2-4.4-4.4c0-0.3,0-0.5,0.1-0.8l6.4-34.9c0.4-2.1,2.2-3.6,4.3-3.6h13.6
				c2.4,0,4.4,2,4.4,4.4c0,0.3,0,0.5-0.1,0.8l-6.4,34.9C320,249.7,318.2,251.2,316,251.2z"/>
			<path class="st17" d="M317.7,252.7h-13.6c-2.4,0-4.4-2-4.4-4.4c0-0.3,0-0.5,0.1-0.8l6.4-34.9c0.4-2.1,2.2-3.6,4.4-3.6h13.6
				c2.4,0,4.4,2,4.4,4.4c0,0.3,0,0.5-0.1,0.8l-6.4,34.9C321.7,251.2,319.9,252.7,317.7,252.7z"/>
			<path class="st3" d="M310.4,222.2h-2.4c-0.5,0-0.8-0.4-0.8-0.8c0-0.1,0-0.1,0-0.2l1.6-8.5c0.1-0.4,0.4-0.7,0.8-0.7h2.4
				c0.5,0,0.8,0.4,0.8,0.8c0,0.1,0,0.1,0,0.2l-1.6,8.5C311.1,221.9,310.8,222.2,310.4,222.2z"/>
			<path class="st24" d="M279.6,233.8c3.9-0.2,7.9-0.8,11.7-1.8c2.2-0.7,6.5-1.4,7.9-3.5s1.3-6.6,2.8-6.8c1.1-0.1,3.3,3.4,2.8,5.8
				s-0.8,3.6-1.7,4.6c-0.3,0.4,9,1,15-0.3c4.1-0.9,2.9,3.1,0.1,4.4c0.5,1.2-0.1,2.6-1.4,3.1c-0.2,0.1-0.4,0.1-0.5,0.1
				c0,0,0,3.3-2.7,3.4c-0.4,1.5-1.7,2.7-3.2,3c-4.6,0.9-9.3,1.2-13.9,0.7c-2.7-0.2-15,1.9-15,1.9L279.6,233.8z"/>
			<path class="st25" d="M221.1,255.2c9.4,1.6,65.8-4.7,65.8-4.7l-1.4-19.7c0,0-45.9,2.1-52,1.6
				C213.2,230.6,209.3,253.2,221.1,255.2z"/>
			<path class="st28" d="M290.9,86.8c0.9-1.1,2.1-1.8,3.4-2.2c1.4-0.2,2.9,1.1,2.5,2.4c4.6-2,9.5-3.5,14.4-4.5
				c1.2-0.4,2.5-0.3,3.7,0.1c1.1,0.5,1.9,2.1,1.1,3.1c2.4,0.9,5.1,0.3,7.6,0s5.5-0.2,7.2,1.7s1.6,4.4,1.6,6.8c0,3.3-0.3,6.5-0.9,9.7
				c-1.1,4.7-3.6,9-7.2,12.3c1.1-3.7-0.9-7.7-3.9-10.1s-6.9-3.3-10.7-3.7c-4.6-0.5-9.2-0.4-13.7,0.3c-3.4,0.6-8.3,3-11.7,1.4
				C276.8,100.9,288,89.7,290.9,86.8z"/>
		</g>
	</g>
	<path class="st34" d="M359.9,85.1h47c3.6,0,6.5,2.9,6.5,6.5v19.7c0,3.6-2.9,6.5-6.5,6.5h-47c-3.6,0-6.5-2.9-6.5-6.5V91.7
		C353.4,88.1,356.3,85.1,359.9,85.1z"/>
	<polygon class="st34" points="363.5,115.8 363.5,124.8 373.1,115.1 	"/>
	<circle class="st17" cx="367.2" cy="101.5" r="3.8"/>
	<circle class="st17" cx="383.5" cy="101.5" r="3.8"/>
	<circle class="st17" cx="399.7" cy="101.5" r="3.8"/>
	<polygon class="st22" points="536.3,373.8 534.2,399.7 545.2,399.7 551,373.8 	"/>
	<path class="st35" d="M546.4,394.3c0,0,4.8,7.8,1.2,9.1s-27.3,1.5-33.2,0.6s13-8.9,17.4-10.1S537.6,399.2,546.4,394.3z"/>
	<polygon class="st22" points="594.4,373.8 596.5,399.7 585.5,399.7 579.7,373.8 	"/>
	<path class="st35" d="M584.3,394.3c0,0-4.8,7.8-1.2,9.1s27.3,1.5,33.2,0.6s-13.1-8.9-17.4-10.1S593.1,399.2,584.3,394.3z"/>
	<path class="st36" d="M534.1,232.1l-5,155.3h23.3l5-103.5l20,106.4l25.4-4.2c0,0-22.9-116.1-26.8-154.1H534.1z"/>
	<polygon class="st37" points="557.4,284 554.4,262 556.2,300.3 	"/>
	<line class="st38" x1="568.5" y1="232.1" x2="595.5" y2="387.1"/>
	<path class="st28" d="M562.9,117.6c5,0,10.3,2.6,12,7.3c1.3,3.6,0.3,7.9,2.1,11.2c1.3,2.5,4,4.1,5.2,6.7c2.5,5.3-2.4,11.6-0.8,17.3
		c1.4,5.2,7.9,8.2,8.5,13.6c0.3,3.4-2.1,6.8-5.2,8.3s-6.8,1.5-10.2,0.9c-8.4-1.4-16.3-6-24.8-5.6c-3.5,0.2-7.2,1.2-10.4-0.1
		c-2.3-1-4-3-5.5-5c-1.7-2.3-3.3-5-3.2-7.8c0.2-4.2,4-7.1,6.3-10.7c2.4-3.7,3.3-8.1,2.7-12.4c-3.1-20.2,8.3-19.6,9.7-19.6
		s5.8-2.8,7.5-3.2C558.8,118,560.8,117.7,562.9,117.6z"/>
	<path class="st24" d="M509.5,202.4c-4.8-3.8-24.4-16.8-24.6-18.6c-0.4-3.4-1.5-6.1-8.8-8.4c-0.3,0.8-0.2,1.7,0.4,2.3
		c0.6,0.7,1.2,1.3,2,1.7c0,0-1.9,0.7-4.8-1.6s-4-4.2-5.3-3.8c0,0-1.4-1.3-2.1-1.1c-0.3,0.1-0.5,0.4-0.4,0.7c-1.1-0.2-0.9,3.1,1,5.7
		c2.8,3.8,7.9,6.7,10.8,7.9c2.2,0.8,16.6,22.2,26.3,24.5C506.8,212.3,511.7,204.2,509.5,202.4z"/>
	<path class="st24" d="M524.6,183.4c0,0-21.6,15.1-23.7,18.8s-0.5,13.8,9.1,7.3s24.8-18.1,24.8-18.1L524.6,183.4z"/>
	<path class="st39" d="M535.7,169.7c-3.8,1.1-7.2,3.3-9.9,6.2l-8.7,10.3l16.4,12.8C533.6,199,537.6,175.8,535.7,169.7z"/>
	<path class="st40" d="M576,232.1h-41.9c-0.1-6.2-0.8-12.3-2.2-18.4c-2.3-11.2-1.2-17,1.2-22.8s-1.8-19.3,2.7-21.2
		c1.8-0.8,5-2,8.1-3.2l2.3-0.9c3.6-1.4,6.7-2.6,6.7-2.6h7.5c0,0,5.2,1.7,10.5,3.9l2.1,0.9l0,0c2.4,1,4.8,2.1,7,3.4
		C585.7,174.6,576,232.1,576,232.1z"/>
	<path class="st24" d="M550.3,144.5l0.8,15.5l0.2,4.4c0.3,3.9,3.7,6.8,7.6,6.5c3.7-0.3,6.6-3.4,6.6-7.1l-0.2-7.9l-0.3-13.1
		L550.3,144.5z"/>
	<path class="st27" d="M550.3,144.5l0.8,14.6c6.9,0.3,11.9-2.5,14.2-6.2l-0.3-10L550.3,144.5z"/>
	<path class="st24" d="M544.9,132.4c-0.3,3.5-0.2,7.1,0.2,10.6c0.8,6.5,1.5,13.9,10.1,14.6c10.2,0.8,13.5-10.9,13.5-10.9
		s4.7-1.1,5.3-4.3c0.4-1.5-0.6-3.1-2.1-3.5c-0.7-0.2-1.4-0.1-2.1,0.3c0,0-1.4-13.6-14-13.6C544.7,125.7,544.9,132.4,544.9,132.4z"/>
	<path class="st36" d="M573.1,167.7L573.1,167.7c-8.6,10.5-18.7,10-18.7,10c-8-1.8-10.5-11.2-10.5-11.2l2.3-0.9
		c3.6-1.4,6.7-2.6,6.7-2.6h7.5c0,0,5.2,1.7,10.5,3.9L573.1,167.7z"/>
	<path class="st24" d="M571,166.9c-8.8,9.5-16.4,8.5-16.4,8.5c-8.2-3.1-8.4-9.8-8.4-9.8c3.6-1.4,6.7-2.6,6.7-2.6h7.5
		C560.5,163,565.6,164.7,571,166.9z"/>
	<path class="st28" d="M549.2,122.8c0,0,1.2,9.9-5.2,13.1C544.1,135.9,540.9,123.9,549.2,122.8z"/>
	<path class="st28" d="M547.3,123.7c0,0,2.2,8.6,7.8,9.1s4.6,5,9.5,5.5c2.9,0.3,4.2,3.4,4.2,3.4c0.3-1.8,1.5-3.3,3.1-4.1
		C574.7,136.5,565.7,113.8,547.3,123.7z"/>
	<path class="st28" d="M556.8,144.4c0,0.6,0.4,1,1,1s1-0.4,1-1s-0.4-1-1-1S556.8,143.8,556.8,144.4z"/>
	<path class="st28" d="M548,144.4c0,0.6,0.4,1,1,1s1-0.4,1-1s-0.4-1-1-1S548,143.8,548,144.4z"/>
	<path class="st41" d="M561.3,141c-1-1.5-2.8-2.1-4.5-1.5"/>
	<path class="st41" d="M551.5,139.4c-1.3-1.2-3.2-1.1-4.4,0.2"/>
	<path class="st42" d="M553.5,141.8c0,0-1,2.7-1.9,4.4s1.7,2.4,1.7,2.4"/>
	<path class="st42" d="M559.3,150.5c-1.1,1.5-2.9,2.2-4.7,1.8"/>
	<path class="st42" d="M569.8,143.7c0,0,0-3,2.3-2.2"/>
	<path class="st43" d="M534.9,222.2h-38.4c-0.8,0-1.4-0.6-1.4-1.4c0,0,0,0,0,0l0,0c0-0.8,0.6-1.4,1.4-1.4l0,0h38.4
		c0.8,0,1.4,0.6,1.4,1.4c0,0,0,0,0,0l0,0C536.3,221.5,535.7,222.2,534.9,222.2z"/>
	<path class="st3" d="M537.8,219.4h-38.8l-7.4-29.7c-0.3-1.1,0.4-2.2,1.4-2.4c0.2,0,0.4-0.1,0.6-0.1h34.6c0.9,0,1.8,0.6,2,1.5
		L537.8,219.4z"/>
	<path class="st17" d="M535.2,219.4h-38.8l-7.4-29.7c-0.3-1.1,0.4-2.2,1.4-2.4c0.2,0,0.4-0.1,0.6-0.1h34.6c0.9,0,1.8,0.6,2,1.5
		L535.2,219.4z"/>
	<path class="st44" d="M535.6,219.4h29.1c0.7,0,1.3,0.6,1.3,1.3v0.2c0,0.7-0.6,1.3-1.3,1.3h-29.1c-0.7,0-1.3-0.6-1.3-1.3v-0.2
		C534.3,220,534.9,219.4,535.6,219.4z"/>
	<path class="st3" d="M513.5,201.4c0.7,1.8,0.1,3.8-1.3,4.3s-3.2-0.5-3.9-2.3s-0.1-3.8,1.3-4.3S512.8,199.6,513.5,201.4z"/>
	<polygon class="st39" points="578.1,219.4 575.6,186.8 580.4,200.5 	"/>
	<path class="st24" d="M578.4,190.1c0,0,6,32.1,7.5,37.4c1,3.4,7.9,5.7,10.1,1.2c0.5-1,0.4-2.6,0.3-4.3c-0.3-10.4-7.6-36.8-7.6-36.8
		L578.4,190.1z"/>
	<path class="st40" d="M580.1,171.1c0,0,3.6,1.8,6.6,7s7.1,14.3,6.9,16.5c-1.6,4.2-13.9,8.6-13.9,8.6S571.4,176.2,580.1,171.1z"/>
	<path class="st24" d="M587,221.3c0,0-19-0.4-22.6-2.6c-4.9-2.9-6-1.6-8.8-2.4c-4.5-1.1-4-0.2-4-0.2s0.2,2.6,3.7,3
		c1.8,0.2,4.4,0.9,3.9,1.4c0,0-14.1,1.5-16.9,1.7s-1.5,2.4,0.7,2.9c0.8,1,2.1,1.4,3.4,1.1c0,0-0.5,0.9,5,0.9s10.9-2.9,13.6-1.6
		s17.6,7,27,5.7c4.5-0.6,4.5-2.8,4.5-5.1C596.4,222.2,593.5,221.7,587,221.3z"/>
	<polygon class="st22" points="193,373.8 186.7,399.7 175.7,399.7 178.4,373.8 	"/>
	<path class="st36" d="M174.5,394.3c0,0-4.8,7.8-1.2,9.1s27.3,1.5,33.1,0.6s-13.1-8.9-17.4-10.1S183.4,399.2,174.5,394.3z"/>
	<polygon class="st22" points="158.2,373.8 154.4,399.7 143.4,399.7 143.6,373.8 	"/>
	<path class="st45" d="M142.2,394.3c0,0-4.8,7.8-1.2,9.1s27.3,1.5,33.1,0.6s-13.1-8.9-17.4-10.1S151,399.2,142.2,394.3z"/>
	<path class="st46" d="M139.6,248.5l0.8,138.3H158l12.4-101.6l14.1,41.2l-10.6,60.4H193c0,0,16.8-52.2,16.1-62.4s-20-80.1-20-80.1
		L139.6,248.5z"/>
	<polygon class="st47" points="170.4,285.2 172.2,266.3 174.4,296.8 	"/>
	<line class="st48" x1="149.5" y1="246.8" x2="148.5" y2="386.8"/>
	<path class="st24" d="M203.2,185.2c0,0,11.3,21.4,11.6,28s-7,5.1-10.8-0.8s-9.8-22.8-9.8-22.8L203.2,185.2z"/>
	<path class="st39" d="M205.4,187c-2.7,4.1-6.5,7.3-11,9.3c-1.6,0.7-3-1.2-4-3.5c-0.8-1.9-1.4-3.8-1.9-5.8c0,0-8.9-27.6-1.1-26.6
		c0,0,6.7,0.5,11.6,10.2c1.9,4.1,3.5,8.2,4.9,12.5C204.5,184.4,205,185.7,205.4,187z"/>
	<path class="st25" d="M205.4,187c-2.7,4.1-6.5,7.3-11,9.3c-1.6,0.7-3-1.2-4-3.5c5.2-2.3,9.8-5.7,13.6-9.8
		C204.5,184.4,205,185.7,205.4,187z"/>
	<path class="st40" d="M189.5,245.8c-4.9,5.6-37.5,4.8-49.8,2.7c-2.2-0.4-4.3-1.2-0.9-8.7c1.3-2.8,0.7-10,0.5-20
		c-0.4-19.6-6.3-52.2,0.9-56c4.3-2.2,13.5-5.2,20.1-7.2l1.2-0.4c3.9-1.2,6.6-1.9,6.6-1.9c3.3,0.6,6.5,1.4,9.7,2.4l1.1,0.3
		c1.7,0.5,3.6,1.1,5.7,1.8c4.1,1.4,7.1,2.2,7.8,3.6c1.9,3.6,1.2,9.9,1.3,19C194,192.9,193.9,240.8,189.5,245.8z"/>
	<polygon class="st39" points="137.7,197.6 144.8,180.4 139.6,224.5 	"/>
	<path class="st25" d="M179,157c-0.2,2.3-1.2,4.5-2.9,6.1c-3.7,3.6-9.7,3.4-13.2-0.4c-1.6-1.7-2.5-3.9-2.6-6.2l1.2-0.4
		c3.9-1.2,6.6-1.9,6.6-1.9c3.3,0.6,6.5,1.4,9.7,2.4L179,157z"/>
	<path class="st28" d="M158.6,121.4c0,0-4.2,0.4-5.8,7.4c-1.7,7.2,7.1,19.1,10.4,18.4C163.2,147.2,167.6,124.5,158.6,121.4z"/>
	<path class="st28" d="M185.5,127.4c-0.5,1-1.1,1.9-1.7,2.9c-0.6,0.9-0.9,2-0.9,3.2c-0.1-1.8-1.3-3.3-2.3-4.8s-2-3.3-1.5-5
		s3.5-4.3,5.3-3.2C186.5,121.6,186.3,125.6,185.5,127.4z"/>
	<path class="st22" d="M177.9,136.6l-0.9,15.5l-0.2,4.4c-0.2,3.8-3.3,6.7-7.1,6.7c-3.9,0-7.1-3.2-7.1-7.1c0-0.1,0-0.1,0-0.2l0.2-7.9
		l0.3-13.1L177.9,136.6z"/>
	<path class="st27" d="M177.9,139.7l-0.9,14.6c-6.9,0.3-11.9-2.5-14.2-6.2l0.3-10L177.9,139.7z"/>
	<path class="st24" d="M183.3,127.7c0.3,3.6,0.2,7.1-0.2,10.7c-0.8,6.5-0.5,14.1-10.1,14.6c-10.2,0.5-13.6-10.9-13.6-10.9
		s-5.4-1-5.8-4.7s3.4-3.9,4.6-2.8c0,0,1.4-13.6,14-13.6C183.4,121,183.3,127.7,183.3,127.7z"/>
	<path class="st28" d="M171.7,137.5c0,0.6-0.4,1-1,1s-1-0.4-1-1s0.4-1,1-1S171.7,136.9,171.7,137.5z"/>
	<path class="st28" d="M181.4,137c0,0.6-0.4,1-1,1s-1-0.4-1-1s0.4-1,1-1S181.4,136.4,181.4,137z"/>
	<path class="st41" d="M166.7,134.6c1-1.5,2.9-2.2,4.7-1.6"/>
	<path class="st41" d="M176.8,133c1.3-1.2,3.3-1.1,4.5,0.2c0,0,0,0,0,0"/>
	<path class="st42" d="M174.8,135.5c0,0,1.1,2.8,2,4.5s-1.8,2.5-1.8,2.5"/>
	<path class="st42" d="M171.2,145.6c1.4,1.3,3.4,1.6,5.1,0.9"/>
	<path class="st42" d="M158.2,138.6c0,0,0-3.1-2.4-2.3"/>
	<path class="st28" d="M161.3,124.1c0,0,5.7,5.8,2.6,8.1c-2,1.4-3.5,3.6-4,6c0,0,0.1-1.2-1.5-3.5S153.4,124.3,161.3,124.1z"/>
	<path class="st28" d="M159.5,124.4c-1.9-3-0.5-8.6,5.5-9.5s10.1,0.4,12.4-3.7s9-6.6,11-0.7s-2.6,14.9-8.4,14.6s-5.5-1-9.2,1.2
		S162.6,129.3,159.5,124.4z"/>
	<path class="st24" d="M130,186.3c0,0-11.3,21.4-11.6,28s7,5.1,10.8-0.8s9.8-22.8,9.8-22.8L130,186.3z"/>
	<path class="st24" d="M210.8,205.9l-17.9-13.2c-1.6-1.2-4-3-4.9-3.6c-1.4-0.9-9.3-2.3-10.4-2.1c-1.7,0.2-3.4,0.6-5.1,1
		c-0.9,0.3,0.2,1.5,1.1,2c2.5,1.4,5.2,2.5,8.1,3.2c1.7,0.4,3.3,1.1,4.7,2.2c1,0.7,18.8,18.9,19.5,19.4L210.8,205.9z"/>
	<path class="st24" d="M189.8,190.6c0,0-6.4-5.9-7.3-5.9s-0.3,1.4,2.2,3.5c0.8,0.8,1.6,1.5,2.5,2.1
		C188.1,190.8,189,190.9,189.8,190.6z"/>
	<path class="st3" d="M184.8,212.6l-23.2,2.8c-1.1,0.1-2-0.6-2.1-1.7c0-0.2,0-0.5,0.1-0.7l5.5-21.3c0.2-0.8,0.9-1.3,1.6-1.4
		l23.2-2.8c1.1-0.1,2,0.6,2.1,1.7c0,0.2,0,0.5,0,0.7l-5.6,21.3C186.2,211.9,185.6,212.5,184.8,212.6z"/>
	<path class="st17" d="M185.8,213.3l-23.2,2.8c-1.1,0.1-2-0.6-2.1-1.7c0-0.2,0-0.5,0.1-0.7l5.5-21.3c0.2-0.8,0.8-1.3,1.6-1.4
		l23.2-2.8c1.1-0.1,2,0.6,2.1,1.7c0,0.2,0,0.5,0,0.7l-5.6,21.3C187.2,212.6,186.6,213.2,185.8,213.3z"/>
	<path class="st3" d="M168.5,196.8l1.1-4.2c0.1-0.3-0.1-0.7-0.4-0.8c-0.1,0-0.1,0-0.2,0l-1.1,0.1c-0.2,0-0.5,0.2-0.5,0.4l-1.1,4.2
		c-0.1,0.3,0.1,0.7,0.4,0.8c0.1,0,0.1,0,0.2,0l1.1-0.1C168.2,197.2,168.4,197,168.5,196.8z"/>
	<path class="st24" d="M122.7,208c7.1,0.3,29.2-0.2,32.1-1.2c1.3-0.4,4.4-1.1,5.1-2.3s1.5-3.1,2.3-3.3c0.6-0.1,0.5,2,0.3,2.7
		c-0.2,1-0.5,1.9-1.1,2.7c-0.1,0.2,5.3,1,8.7,0.1c2.4-0.6,1.9,1.3,0.3,2.1c0.4,0.8,0,1.8-0.8,2.1c-0.1,0-0.1,0-0.2,0.1
		c0,0,0.3,1.8-1.3,2c-0.4,0.8-1.1,1.4-2,1.6c-2,0.6-5.5,0.6-8.1,0.7c-1.6,0.1-31.7,4.8-37,3.4C118.8,218.1,120.4,207.9,122.7,208z"
		/>
	<path class="st40" d="M143,189.2c0,0-0.5,2-1.3,4c-0.9,2.2-2,4.5-3.2,4.3c0,0-15.6-4.9-15.1-6.5c0.5-1.5,1.2-3,1.9-4.5
		c2.6-5.4,6.7-12.4,8.4-15.1c5.7-9.3,8-8.1,8-8.1C149.6,162.9,143,189.2,143,189.2z"/>
	<path class="st25" d="M141.7,193.2c-0.9,2.2-2,4.5-3.2,4.3c0,0-15.6-4.9-15.1-6.5c0.5-1.5,1.2-3,1.9-4.5
		C130.6,189.1,136.1,191.3,141.7,193.2z"/>
	<path class="st39" d="M146.7,237c0,0,26-4.2,40-12.5C175.8,234.3,161.2,238.8,146.7,237z"/>
	<path class="st40" d="M403.3,291.4H471c3.3,0,6,2.7,6,6v32.7c0,3.3-2.7,6-6,6h-67.6c-3.3,0-6-2.7-6-6v-32.7
		C397.3,294.1,400,291.4,403.3,291.4z"/>
	<path class="st49" d="M404.5,324.5c6.3,0,6.3-7.5,12.6-7.5s6.3-10,12.6-10s6.3,3.8,12.6,3.8s6.3-9.2,12.6-9.2s6.3,14.5,12.6,14.5"
		/>
	<path class="st16" d="M406.3,324.5c0-1-0.8-1.8-1.8-1.8c-1,0-1.8,0.8-1.8,1.8c0,1,0.8,1.8,1.8,1.8c0,0,0,0,0,0
		C405.5,326.4,406.3,325.6,406.3,324.5z"/>
	<path class="st16" d="M469.3,316.1c0-1-0.8-1.8-1.8-1.8c-1,0-1.8,0.8-1.8,1.8c0,1,0.8,1.8,1.8,1.8c0,0,0,0,0,0
		C468.5,318,469.3,317.2,469.3,316.1z"/>
	<path class="st40" d="M147.5,100.2H80c-4.5,0-8.2-3.7-8.2-8.2V71.4c0-4.5,3.7-8.2,8.2-8.2h67.5c4.5,0,8.2,3.7,8.2,8.2V92
		C155.7,96.5,152,100.2,147.5,100.2z"/>
	<polygon class="st40" points="145.6,98.1 145.6,107.1 136,97.4 	"/>
	<line class="st50" x1="79.5" y1="72.3" x2="98.2" y2="72.3"/>
	<line class="st50" x1="104.9" y1="72.3" x2="147.9" y2="72.3"/>
	<line class="st50" x1="79.5" y1="81.7" x2="114.4" y2="81.7"/>
	<line class="st50" x1="119.8" y1="81.7" x2="130.1" y2="81.7"/>
	<line class="st50" x1="135.6" y1="81.7" x2="147.9" y2="81.7"/>
	<line class="st50" x1="79.5" y1="91.1" x2="87.4" y2="91.1"/>
	<line class="st50" x1="92.3" y1="91.1" x2="120.8" y2="91.1"/>
	<path class="st40" d="M482.9,48.8h17.3c3.2,0,5.8,2.6,5.8,5.8V72c0,3.2-2.6,5.8-5.8,5.8h-17.3c-3.2,0-5.8-2.6-5.8-5.8V54.7
		C477.1,51.4,479.7,48.8,482.9,48.8z"/>
	<path class="st16" d="M501.5,61.8l-0.4-1.9c-0.1-0.4-0.5-0.6-0.8-0.5c0,0,0,0,0,0l-1.1,0.3c-0.3,0.1-0.6-0.1-0.8-0.3
		c-0.4-0.7-1-1.3-1.6-1.8c-0.3-0.2-0.3-0.5-0.2-0.8l0.6-1.2c0.2-0.3,0-0.8-0.3-0.9l-1.8-0.8c-0.3-0.2-0.8,0-0.9,0.3l-0.6,1.2
		c-0.1,0.3-0.4,0.4-0.7,0.4c-0.4-0.1-0.8-0.1-1.1-0.1c-0.4,0-0.8,0-1.1,0.1c-0.3,0-0.6-0.1-0.7-0.4l-0.6-1.2
		c-0.2-0.3-0.6-0.5-0.9-0.3l-1.8,0.8c-0.3,0.2-0.5,0.6-0.3,0.9l0.5,1.2c0.1,0.3,0.1,0.6-0.2,0.8c-0.6,0.5-1.2,1.1-1.6,1.8
		c-0.2,0.3-0.5,0.4-0.8,0.3l-1.1-0.3c-0.4-0.1-0.7,0.1-0.8,0.5c0,0,0,0,0,0l-0.4,1.9c-0.1,0.4,0.1,0.7,0.5,0.8l1.4,0.3
		c0,0.2,0,0.4,0,0.6c0,0.9,0.2,1.8,0.5,2.7c0.1,0.3,0,0.6-0.2,0.8l-0.5,0.4c-0.3,0.2-0.4,0.7-0.1,1c0,0,0,0,0,0l1.2,1.5
		c0.2,0.3,0.7,0.4,1,0.1c0,0,0,0,0,0l0.4-0.3c0.3-0.2,0.6-0.2,0.9,0c0.8,0.6,1.7,1.1,2.7,1.4c0.3,0.1,0.5,0.4,0.5,0.7v0.4
		c0,0.4,0.3,0.7,0.7,0.7l0,0h2c0.4,0,0.7-0.3,0.7-0.7c0,0,0,0,0,0v-0.4c0-0.3,0.2-0.6,0.5-0.7c1-0.3,1.9-0.8,2.7-1.4
		c0.3-0.2,0.6-0.2,0.9,0l0.4,0.3c0.3,0.2,0.7,0.2,1-0.1c0,0,0,0,0,0l1.2-1.5c0.2-0.3,0.2-0.7-0.1-1c0,0,0,0,0,0l-0.5-0.4
		c-0.2-0.2-0.3-0.5-0.2-0.8c0.3-0.9,0.5-1.8,0.5-2.7c0-0.2,0-0.4,0-0.6l1.4-0.3C501.4,62.5,501.6,62.2,501.5,61.8z M491.6,68.5
		c-2.7,0-4.9-2.2-4.9-4.9s2.2-4.9,4.9-4.9c2.7,0,4.9,2.2,4.9,4.9C496.6,66.3,494.3,68.5,491.6,68.5L491.6,68.5z"/>
	
		<ellipse transform="matrix(0.1602 -0.9871 0.9871 0.1602 356.5912 775.9154)" class="st34" cx="634.3" cy="178.4" rx="20" ry="20.1"/>
	
		<ellipse transform="matrix(0.2297 -0.9733 0.9733 0.2297 314.9675 754.6821)" class="st49" cx="634.3" cy="178.4" rx="11.3" ry="11.3"/>
	<polyline class="st49" points="634.3,171 634.3,178.4 630.4,182.3 	"/>
	<line class="st49" x1="634.3" y1="167.1" x2="634.3" y2="168.2"/>
	<line class="st49" x1="634.3" y1="188.6" x2="634.3" y2="189.6"/>
	<line class="st49" x1="645.5" y1="178.4" x2="644.5" y2="178.4"/>
	<line class="st49" x1="624.1" y1="178.4" x2="623" y2="178.4"/>
	<line class="st13" x1="58.3" y1="404.6" x2="680.8" y2="404.6"/>
</g>
</svg>
