<svg id="Layer_1" data-name="Layer 1" xmlns="http://www.w3.org/2000/svg" xmlns:xlink="http://www.w3.org/1999/xlink" viewBox="0 0 651.02 422.5"><defs><clipPath id="clip-path" transform="translate(-12.72 -5.41)"><rect x="173.49" y="13.91" width="294.25" height="258.5" fill="none"/></clipPath></defs><g opacity="0.8"><path d="M85.65,57.48a5.28,5.28,0,0,1,5.92,3.32c1.51,4.07-2.43,8.64-7.74,6.59h0C79.26,64,81.25,58.29,85.65,57.48Z" transform="translate(-12.72 -5.41)" fill="#edf6f8"/><circle cx="582.42" cy="35.82" r="10.64" transform="translate(440.74 599.5) rotate(-80.75)" fill="#edf6f8"/><circle cx="107.54" cy="51.99" r="10.74" transform="translate(24.11 142.86) rotate(-79.51)" fill="#edf6f8"/><path d="M568.93,19.54A6.55,6.55,0,1,1,562.39,13,6.54,6.54,0,0,1,568.93,19.54Z" transform="translate(-12.72 -5.41)" fill="#edf6f8"/></g><path d="M595.36,132.08c0-58.46-48.68-122.51-109.25-126.37-1.07-.07-2.14-.13-3.23-.18-86.83-4.05-93.45,101.86-172,113.81S172.3,71,78.29,110.32C-6.14,145.66-29,344.22,219.06,352.18,417.55,358.55,595.38,306.47,595.36,132.08Z" transform="translate(-12.72 -5.41)" fill="#edf6f8"/><path d="M663.74,395.29c0,3.8-24.74,6.87-55.25,6.87s-55.25-3.07-55.25-6.87,24.73-6.88,55.25-6.88S663.74,391.49,663.74,395.29Z" transform="translate(-12.72 -5.41)" fill="#edf6f8"/><path d="M600.19,275.8s-11.49,2.54-9.78-5.47,1.58-11-3.09-14.62-9.37-5.44-5.79-11.21-3.21-10.26-6.72-13.36.45-5.45,1.38-11.32-5.38-5-5.88-12.38,7-16,.56-26.22c0,0,8.67,4.5,11.52,12.4s.55,14,5.68,17,8.33,8.2,6.59,13.53.73,8.16,4.93,12.05,3.08,5.44,2.56,10.19.53,3.63,5.34,10.13S612.42,273.67,600.19,275.8Z" transform="translate(-12.72 -5.41)" fill="#005b5c"/><path d="M601.83,275.44a.67.67,0,0,1-.06-.12l-23-69.79a.57.57,0,0,1,.36-.72h0a.58.58,0,0,1,.72.37l23,69.78a1,1,0,0,1,0,.17Z" transform="translate(-12.72 -5.41)" fill="#00333c"/><path d="M620.93,275.65s11.43,2.54,9.73-5.44-1.58-10.91,3.07-14.54,9.32-5.41,5.76-11.15,3.19-10.2,6.68-13.29-.45-5.42-1.37-11.26,5.36-5,5.85-12.32-7-16-.55-26.07c0,0-8.63,4.47-11.47,12.33s-.54,13.94-5.64,16.92-8.29,8.16-6.56,13.46-.73,8.12-4.91,12-3.06,5.4-2.54,10.13-.53,3.61-5.31,10.07S608.76,273.53,620.93,275.65Z" transform="translate(-12.72 -5.41)" fill="#005b5c"/><path d="M618.25,275a1,1,0,0,1,0-.17l22.87-69.41a.57.57,0,0,1,.71-.37h0a.58.58,0,0,1,.37.72l-22.87,69.42-.06.12Z" transform="translate(-12.72 -5.41)" fill="#00333c"/><path d="M608.23,274.2s-13.15-1.09-8.66-9.11,5.34-11.22,1.55-16.68-8.23-8.94-2.48-13.93,0-12-2.76-16.54,2.3-5.69,5.24-11.67-4.11-7.13-2.19-15.21,12.84-14.85,9.3-27.9c0,0,7.8,7.7,8.23,17.11s-4.06,15.19.43,20.11,6.2,11.55,2.56,16.68-1.92,9,1.29,14.54,1.49,6.85-.64,11.76-.65,4.07,2.35,12.62S622,276,608.23,274.2Z" transform="translate(-12.72 -5.41)" fill="#2d918e"/><path d="M610.11,274.36a.33.33,0,0,1,0-.15l-1.45-82.38a.65.65,0,0,1,.63-.65h0a.65.65,0,0,1,.64.63l1.45,82.38a.58.58,0,0,1,0,.19Z" transform="translate(-12.72 -5.41)" fill="#005b5c"/><path d="M646.52,271.42l-.95,2.52-.6,1.6-1.73,4.59-.6,1.6-1.77,4.7-.6,1.6-7.61,20.2H591.11L583.5,288l-.6-1.6-1.77-4.7-.61-1.6-1.72-4.59-.6-1.6-1-2.52a2.65,2.65,0,0,1,2.48-3.58h64.33A2.64,2.64,0,0,1,646.52,271.42Z" transform="translate(-12.72 -5.41)" fill="#ffbf63"/><polygon points="632.85 268.53 632.25 270.13 566.08 270.13 565.47 268.53 632.85 268.53" fill="#ff9024"/><polygon points="630.52 274.71 629.92 276.31 568.4 276.31 567.8 274.71 630.52 274.71" fill="#ff9024"/><polygon points="628.14 281.02 627.54 282.62 570.78 282.62 570.18 281.02 628.14 281.02" fill="#ff9024"/><polygon points="626.34 290.89 571.25 290.89 570.65 286.4 626.94 286.4 626.34 290.89" fill="#00312d"/><polygon points="632.84 367.25 565.18 367.25 564.45 362.76 633.58 362.76 632.84 367.25" fill="#00312d"/><polygon points="638.77 390.14 622.72 290.89 618.52 290.89 635.02 390.14 638.77 390.14" fill="#00312d"/><polygon points="562.73 390.14 579.23 290.89 575.04 290.89 558.98 390.14 562.73 390.14" fill="#00312d"/><path d="M97.58,254.37a.9.9,0,0,0-.33-1.09,143.78,143.78,0,0,1-26.49-24.23C58.69,214.94,44.26,192.26,44,164.32a.89.89,0,1,0-1.78,0,90.85,90.85,0,0,0,8.64,37.43,123.06,123.06,0,0,0,18.54,28.47,145.82,145.82,0,0,0,26.83,24.52.89.89,0,0,0,1.23-.25Z" transform="translate(-12.72 -5.41)" fill="#005b5c"/><path d="M51.42,199.23a.89.89,0,0,0-.33-1.08c-.35-.24-8.73-5.79-18.6-5.7a.89.89,0,0,0-.88.9.88.88,0,0,0,.9.88c9.3-.08,17.51,5.34,17.59,5.4a.89.89,0,0,0,1.23-.25A.54.54,0,0,0,51.42,199.23Z" transform="translate(-12.72 -5.41)" fill="#005b5c"/><path d="M66.25,224.24a.86.86,0,0,0,0-.67c-6.63-17.24,1.09-29.68,1.17-29.8a.89.89,0,0,0-1.5-1c-.34.54-8.28,13.33-1.33,31.4a.89.89,0,0,0,1.15.51A.88.88,0,0,0,66.25,224.24Z" transform="translate(-12.72 -5.41)" fill="#005b5c"/><path d="M79.61,239.35a.89.89,0,0,0-.28-1,46,46,0,0,0-10.2-5.49c-5.7-2.24-14.49-4.44-24-2.15a.89.89,0,1,0,.42,1.74c17.3-4.19,32.53,7.2,32.68,7.32a.89.89,0,0,0,1.24-.17A.82.82,0,0,0,79.61,239.35Z" transform="translate(-12.72 -5.41)" fill="#005b5c"/><path d="M64,200s-3.52-21.76,6.46-23.13C83.08,175.08,76,197.69,64,200Z" transform="translate(-12.72 -5.41)" fill="#2d918e"/><path d="M55.74,230.62s-18.11-12.56-23.65-4.14C25.06,237.15,48.52,240.48,55.74,230.62Z" transform="translate(-12.72 -5.41)" fill="#2d918e"/><path d="M43.08,173.65s-15.6-25.61.18-26.35C53,146.84,52.76,166.37,43.08,173.65Z" transform="translate(-12.72 -5.41)" fill="#2d918e"/><path d="M74.66,234.2a.83.83,0,0,0,.06-.47c-1.26-8.86,5.5-14.87,5.57-14.93a.89.89,0,1,0-1.17-1.34c-.31.27-7.56,6.71-6.16,16.52a.88.88,0,0,0,1,.75A.85.85,0,0,0,74.66,234.2Z" transform="translate(-12.72 -5.41)" fill="#005b5c"/><path d="M29.38,196.53a4.3,4.3,0,1,0-2.29-5.64A4.31,4.31,0,0,0,29.38,196.53Z" transform="translate(-12.72 -5.41)" fill="#2d918e"/><path d="M77.68,221.78a4.3,4.3,0,1,0-2.29-5.64A4.31,4.31,0,0,0,77.68,221.78Z" transform="translate(-12.72 -5.41)" fill="#2d918e"/><path d="M543.62,165.54a.9.9,0,0,1,.35-1.09,143.37,143.37,0,0,0,26.8-23.88c12.25-13.95,27-36.44,27.56-64.37a.89.89,0,0,1,1.78,0A90.76,90.76,0,0,1,591,113.55a123.12,123.12,0,0,1-18.91,28.24A145.2,145.2,0,0,1,544.93,166a.88.88,0,0,1-1.23-.27A.64.64,0,0,1,543.62,165.54Z" transform="translate(-12.72 -5.41)" fill="#005b5c"/><path d="M590.5,111a.88.88,0,0,1,.34-1.08c.35-.23,8.81-5.67,18.67-5.45a.89.89,0,1,1,0,1.78c-9.3-.21-17.58,5.11-17.66,5.16a.88.88,0,0,1-1.23-.26A.71.71,0,0,1,590.5,111Z" transform="translate(-12.72 -5.41)" fill="#005b5c"/><path d="M575.34,135.82a.89.89,0,0,1,0-.66c6.85-17.15-.71-29.7-.78-29.82a.89.89,0,0,1,.29-1.23.88.88,0,0,1,1.22.29c.34.54,8.1,13.44.92,31.42a.9.9,0,0,1-1.16.49A.87.87,0,0,1,575.34,135.82Z" transform="translate(-12.72 -5.41)" fill="#005b5c"/><path d="M561.79,150.76a.9.9,0,0,1,.29-1,46.37,46.37,0,0,1,10.27-5.35c5.73-2.17,14.54-4.26,24-1.84a.89.89,0,0,1-.44,1.73c-17.25-4.41-32.62,6.78-32.78,6.89a.88.88,0,0,1-1.24-.18A.78.78,0,0,1,561.79,150.76Z" transform="translate(-12.72 -5.41)" fill="#005b5c"/><path d="M578,111.56s3.8-21.7-6.16-23.2C559.16,86.45,566,109.15,578,111.56Z" transform="translate(-12.72 -5.41)" fill="#2d918e"/><path d="M585.77,142.34S604,130,609.47,138.5C616.36,149.27,592.85,152.29,585.77,142.34Z" transform="translate(-12.72 -5.41)" fill="#2d918e"/><path d="M599.17,85.53s15.93-25.4.16-26.34C589.59,58.6,589.58,78.13,599.17,85.53Z" transform="translate(-12.72 -5.41)" fill="#2d918e"/><path d="M566.8,145.67a.91.91,0,0,1-.06-.47c1.39-8.84-5.3-14.94-5.37-15a.91.91,0,0,1-.07-1.26.9.9,0,0,1,1.26-.06c.31.27,7.47,6.81,5.94,16.59a.89.89,0,0,1-1.7.2Z" transform="translate(-12.72 -5.41)" fill="#005b5c"/><path d="M612.57,108.6a4.3,4.3,0,1,1,2.36-5.61A4.3,4.3,0,0,1,612.57,108.6Z" transform="translate(-12.72 -5.41)" fill="#2d918e"/><path d="M564,133.22a4.3,4.3,0,1,1,2.36-5.61A4.3,4.3,0,0,1,564,133.22Z" transform="translate(-12.72 -5.41)" fill="#2d918e"/><ellipse cx="26.86" cy="100.23" rx="26.86" ry="26.52" fill="#f2cec2"/><ellipse cx="26.86" cy="96.77" rx="26.86" ry="26.52" fill="#f3674f"/><ellipse cx="26.86" cy="96.77" rx="21.83" ry="21.56" fill="#fff"/><path d="M61.41,102.19c0,.57,0,1.14-.06,1.7a21.86,21.86,0,0,0-43.54,0c0-.56-.06-1.13-.06-1.7a21.83,21.83,0,0,1,43.66,0Z" transform="translate(-12.72 -5.41)" fill="#f2cec2"/><path d="M39.58,104.43a.56.56,0,0,1-.44-.22L28.43,90a.53.53,0,0,1,.11-.75.55.55,0,0,1,.77.11l10.45,13.9,11.88-5.15a.55.55,0,0,1,.72.27.54.54,0,0,1-.28.71L39.8,104.39A.57.57,0,0,1,39.58,104.43Z" transform="translate(-12.72 -5.41)" fill="#00312d"/><ellipse cx="307.23" cy="389.33" rx="294.27" ry="19.77" fill="#edf6f8"/><rect x="71.25" y="67.21" width="473.45" height="293.57" rx="17.93" fill="#00312d"/><path d="M536.39,103.9v215c0,6.32-5.47,11.45-12.22,11.45H117.23a12.58,12.58,0,0,1-9.09-3.8,11,11,0,0,1-3.14-7.65V103.9c0-6.32,5.48-11.45,12.23-11.45H524.17A12.81,12.81,0,0,1,530.36,94,11.33,11.33,0,0,1,536.39,103.9Z" transform="translate(-12.72 -5.41)" fill="#edf6f8"/><path d="M601.65,356v1.64a37.14,37.14,0,0,1-37.16,37.15H76.9a37.14,37.14,0,0,1-37.15-37.15V356Z" transform="translate(-12.72 -5.41)" fill="#384e4f"/><path d="M324.85,375.38a5.37,5.37,0,1,1-5.37-5.37A5.37,5.37,0,0,1,324.85,375.38Z" transform="translate(-12.72 -5.41)" fill="#00312d"/><path d="M305.88,375.38a5.38,5.38,0,1,1-5.37-5.37A5.37,5.37,0,0,1,305.88,375.38Z" transform="translate(-12.72 -5.41)" fill="#00312d"/><path d="M343.82,375.38a5.37,5.37,0,1,1-5.37-5.37A5.36,5.36,0,0,1,343.82,375.38Z" transform="translate(-12.72 -5.41)" fill="#00312d"/><path d="M532.18,375.38a5.37,5.37,0,1,1-5.37-5.37A5.36,5.36,0,0,1,532.18,375.38Z" transform="translate(-12.72 -5.41)" fill="#f3674f"/><path d="M551.16,375.38a5.38,5.38,0,1,1-5.37-5.37A5.37,5.37,0,0,1,551.16,375.38Z" transform="translate(-12.72 -5.41)" fill="#ffbf63"/><path d="M257.72,356v.38c0,2.94,2,5.32,4.4,5.32H376.83c2.43,0,4.4-2.38,4.4-5.32V356Z" transform="translate(-12.72 -5.41)" fill="#597b7b"/><path d="M536.39,104.68v13.53H105V104.68a12.25,12.25,0,0,1,12.23-12.23H524.17a12.23,12.23,0,0,1,12.22,12.23Z" transform="translate(-12.72 -5.41)" fill="#fff"/><path d="M501.67,106a3.24,3.24,0,1,1-3.23-3.23A3.24,3.24,0,0,1,501.67,106Z" transform="translate(-12.72 -5.41)" fill="#008280"/><path d="M512.15,106a3.24,3.24,0,1,1-3.23-3.23A3.23,3.23,0,0,1,512.15,106Z" transform="translate(-12.72 -5.41)" fill="#54b2e0"/><path d="M522.13,106a3.24,3.24,0,1,1-3.23-3.23A3.24,3.24,0,0,1,522.13,106Z" transform="translate(-12.72 -5.41)" fill="#ff524b"/><rect x="134.3" y="97.16" width="335.13" height="6.84" rx="3.27" fill="#f2cec2"/><path d="M125.45,106v3.17a.58.58,0,0,1-.87.5l-2.75-1.58-2.74-1.59a.57.57,0,0,1,0-1l2.74-1.59,2.75-1.58a.58.58,0,0,1,.87.5Z" transform="translate(-12.72 -5.41)" fill="#00312d"/><path d="M130.27,106v3.17a.58.58,0,0,0,.87.5l2.74-1.58,2.75-1.59a.57.57,0,0,0,0-1l-2.75-1.59-2.74-1.58a.58.58,0,0,0-.87.5Z" transform="translate(-12.72 -5.41)" fill="#00312d"/><rect x="159.54" y="123.54" width="313.33" height="175.88" rx="7.34" fill="#fff"/><path d="M424.74,252.34a6.07,6.07,0,0,0,.83,3.22c.27.45.55.9.8,1.36l4.39,7.92,2.88-5.18c.76-1.38,1.59-2.72,2.4-4.08a6,6,0,0,0,.85-3.09,6.08,6.08,0,0,0-12.15-.15Zm3.51-.58a2.57,2.57,0,1,1,2.56,2.56A2.56,2.56,0,0,1,428.25,251.76Z" transform="translate(-12.72 -5.41)" fill="#f2cec2"/><path d="M400.35,255.8a9.12,9.12,0,1,0,9.11-9.11A9.12,9.12,0,0,0,400.35,255.8Zm5.11,3.37A12.24,12.24,0,0,1,405,256h4.12v3.2Zm2.15,4.8a8.31,8.31,0,0,1-5.45-4.07h2.77a10.06,10.06,0,0,0,1.59,2.9A8.12,8.12,0,0,0,407.61,264Zm1.49-4.07v4.27a7.65,7.65,0,0,1-2-1.84,9.58,9.58,0,0,1-1.36-2.43Zm-3.19-8.59a11.35,11.35,0,0,1,2.86-3.86l.33,0v3.88Zm-3.52,0a8.47,8.47,0,0,1,5.1-3.66,13.2,13.2,0,0,0-1.15,1.42,12.55,12.55,0,0,0-1.23,2.24Zm2.59,3.93a10.57,10.57,0,0,1,.63-3.19h3.49v3.19Zm-3.88,0a8.43,8.43,0,0,1,.87-3.19h2.87a11.17,11.17,0,0,0-.59,3.19Zm3.14.73a13.21,13.21,0,0,0,.46,3.2h-2.91a8.19,8.19,0,0,1-.7-3.2Zm10.36,0h3.24a8.37,8.37,0,0,1-.7,3.2h-3A13.21,13.21,0,0,0,414.6,256Zm-4.77-4.66v-3.88h.23a11.35,11.35,0,0,1,2.87,3.87Zm3.4.74a10.57,10.57,0,0,1,.63,3.19h-4v-3.19Zm.5-.74a12.55,12.55,0,0,0-1.23-2.24,11.75,11.75,0,0,0-1.18-1.44,8.4,8.4,0,0,1,5.22,3.68Zm.13,4.66a11.77,11.77,0,0,1-.48,3.2h-3.55V256Zm.73-.73a11.16,11.16,0,0,0-.58-3.19H417a8.26,8.26,0,0,1,.88,3.19Zm2.18,4.66a8.47,8.47,0,0,1-5.57,4.1,9.69,9.69,0,0,0,2.71-4.1Zm-3.64,0a8.63,8.63,0,0,1-3.3,4.22V259.9Z" transform="translate(-12.72 -5.41)" fill="#f2cec2"/><path d="M452,252.61c0-.79-.76-1.19-1.7-1.19a3,3,0,0,0-2.65,1.73l-4.53-2.27c1.3-2.44,3.87-4.12,7.94-4.12s7,1.68,7,4.86c0,3.9-4.08,4.58-4.08,6.54H448.7C448.7,255.08,452,254.17,452,252.61Zm-4,9.58a3.38,3.38,0,0,1,6.72,0,3.38,3.38,0,0,1-6.72,0Z" transform="translate(-12.72 -5.41)" fill="#f2cec2"/><rect x="472.02" y="157.75" width="20.75" height="64.5" rx="2.32" fill="#fff"/><rect x="475.51" y="184.08" width="11.4" height="8.79" rx="1.66" fill="#00312d"/><polygon points="490.21 184.08 490.21 192.88 486.66 189.89 486.66 187.07 490.21 184.08" fill="#00312d"/><circle cx="482.86" cy="208.48" r="7.32" fill="#f3674f"/><path d="M492.13,218.12a.78.78,0,0,0,.54-.23l6.91-6.91a.76.76,0,0,0,0-1.08.77.77,0,0,0-1.09,0l-6.91,6.9a.77.77,0,0,0,0,1.09A.78.78,0,0,0,492.13,218.12Z" transform="translate(-12.72 -5.41)" fill="#fff"/><path d="M499,218.12a.78.78,0,0,0,.55-.23.77.77,0,0,0,0-1.09l-6.91-6.9a.77.77,0,0,0-1.09,0,.76.76,0,0,0,0,1.08l6.91,6.91A.78.78,0,0,0,499,218.12Z" transform="translate(-12.72 -5.41)" fill="#fff"/><rect x="493.57" y="167.6" width="4.03" height="10.5" rx="1.82" transform="translate(978.44 340.3) rotate(180)" fill="#00312d"/><rect x="495.17" y="175.67" width="0.82" height="4.93" rx="0.37" transform="translate(978.44 350.85) rotate(-180)" fill="#00312d"/><rect x="491.53" y="179.24" width="8.09" height="1.73" rx="0.78" transform="translate(978.44 354.8) rotate(-180)" fill="#00312d"/><rect x="169.99" y="208.46" width="79.42" height="44.59" rx="3.45" fill="#f3e3df"/><rect x="373.99" y="138.46" width="79.42" height="44.59" rx="3.45" fill="#f3e3df"/><rect x="373.88" y="209.63" width="79.54" height="3.82" rx="1.82" fill="#f3e3df"/><rect x="373.88" y="193.48" width="79.54" height="3.82" rx="1.82" fill="#f3e3df"/><rect x="373.88" y="225.78" width="79.54" height="3.82" rx="1.82" fill="#f3e3df"/><rect x="169.88" y="171.88" width="79.54" height="3.82" rx="1.82" fill="#f3e3df"/><rect x="169.88" y="155.73" width="79.54" height="3.82" rx="1.82" fill="#f3e3df"/><rect x="169.88" y="188.03" width="79.54" height="3.82" rx="1.82" fill="#f3e3df"/><path d="M172.26,277.52H485.59v25.69a1.63,1.63,0,0,1-1.63,1.62H173.89a1.63,1.63,0,0,1-1.63-1.62Z" transform="translate(-12.72 -5.41)" fill="#00312d"/><path d="M463.12,287.64v-2.31H466v-2.06h-3.93a1,1,0,0,0-1,1v3.34Z" transform="translate(-12.72 -5.41)" fill="#fff"/><path d="M463.12,291.76h-2.06v3.53a1,1,0,0,0,1,1H466v-2.06h-2.9Z" transform="translate(-12.72 -5.41)" fill="#fff"/><path d="M472.05,287.64h2.06V284.3a1,1,0,0,0-1-1H469.3v2.06h2.75Z" transform="translate(-12.72 -5.41)" fill="#fff"/><path d="M472.05,291.76v2.5H469.3v2.06h3.78a1,1,0,0,0,1-1v-3.53Z" transform="translate(-12.72 -5.41)" fill="#fff"/><rect x="159.54" y="266.97" width="313.33" height="5.14" fill="#f3e3df"/><path d="M195,138.57h3.54v7.74h4.73v2.74H195Z" transform="translate(-12.72 -5.41)" fill="#00312d"/><path d="M204.26,138.57h3.54v10.48h-3.54Z" transform="translate(-12.72 -5.41)" fill="#00312d"/><path d="M220.71,138.57l-4.44,10.48H212.8l-4.44-10.48h3.81l2.5,6.12,2.56-6.12Z" transform="translate(-12.72 -5.41)" fill="#00312d"/><path d="M229.77,146.39v2.66h-8.72V138.57h8.52v2.66h-5v1.23H229V145h-4.43v1.38Z" transform="translate(-12.72 -5.41)" fill="#00312d"/><path d="M189.2,143.72a4.31,4.31,0,1,1-4.31-4.31A4.31,4.31,0,0,1,189.2,143.72Z" transform="translate(-12.72 -5.41)" fill="#f3674f"/><g clip-path="url(#clip-path)"><path d="M414.53,103.71s3.72,8.44,10.63,8.35c5.57-.08,9.22-6.4,10.41-8.82.29-.58.44-.94.44-.94a9.25,9.25,0,0,0,1-.22c1.36-.37,3.72-1.28,4.24-3.21.74-2.74-4.62-3.11-4.62-3.11s1.94-2.91.89-4.39-4.53-.92-4.53-.92,3-3.32,1.28-5.07c-2.64-2.64-5.54,1.76-5.79,2,.17-.34,3.64-6.46.82-6.68-2.46-.18-5.53,3.33-7.33,6.48l-.44.79s-.18-.08-.48-.18c-1.43-.5-5.76-1.73-7.63.89C411.13,91.87,414.53,103.71,414.53,103.71Z" transform="translate(-12.72 -5.41)" fill="#ff9d8a"/><path d="M422.71,107.37a.51.51,0,0,0,.5-.17.53.53,0,0,0,0-.75,4.78,4.78,0,0,1-1.79-3.66c0-3.52,3.84-7,3.87-7a.52.52,0,0,0,.05-.75.53.53,0,0,0-.75,0c-.17.15-4.23,3.78-4.23,7.78a5.83,5.83,0,0,0,2.14,4.46A.58.58,0,0,0,422.71,107.37Z" transform="translate(-12.72 -5.41)" fill="#ed7462"/><path d="M423.93,93.49A1.67,1.67,0,0,0,425,94.71a2.12,2.12,0,0,0,.38.08,3.73,3.73,0,0,0,1,0,3.74,3.74,0,0,0-.53.71,2,2,0,0,0-.24.71,1.39,1.39,0,0,0,.57,1.24c1.11.88,3.13.84,4.74.62a5.63,5.63,0,0,0-1.78,3.07,1.7,1.7,0,0,0,.61,1.52,3.14,3.14,0,0,0,1.33.53,17.33,17.33,0,0,0,4.48.08c.29-.59.43-.94.43-.94a9.07,9.07,0,0,0,1-.22.5.5,0,0,0-.3,0c-2,.27-5.4.44-6.27-.24a.64.64,0,0,1-.21-.6c.1-1.08,1.62-2.86,3.12-3.67a.51.51,0,0,0,.24-.66.52.52,0,0,0-.63-.32c-1.27.35-4.83,1-6.09,0-.18-.15-.17-.26-.16-.31a1.76,1.76,0,0,1,.59-.92A13,13,0,0,1,430,93.43a.54.54,0,0,0,.22-.23.5.5,0,0,0,0-.49.53.53,0,0,0-.72-.22c-.17.08-.51.27-.93.53a11.83,11.83,0,0,1-2.31.69,2.23,2.23,0,0,1-.94,0,.61.61,0,0,1-.4-.49,3.5,3.5,0,0,1,.15-1.7.52.52,0,0,0-.19-.57h0a.52.52,0,0,0-.82.27A4.49,4.49,0,0,0,423.93,93.49Z" transform="translate(-12.72 -5.41)" fill="#ed7462"/><path d="M425.22,82.86a14.48,14.48,0,0,0-2,2.4c-.55.89-.92,1.36-1.31,1.95h0L421,42.59a.53.53,0,0,1,1.05-.05l3.16,40.32Z" transform="translate(-12.72 -5.41)" fill="#384e4f"/><path d="M422.63,108.44c4,1.33,4.55-.56,4.55-.56l-.81-10.33-.18-.13a1.39,1.39,0,0,1-.57-1.24,2,2,0,0,1,.24-.71,4.13,4.13,0,0,1,.31-.46l0-.22a3.75,3.75,0,0,1-.75,0,2.12,2.12,0,0,1-.38-.08,1.62,1.62,0,0,1-.85-.67,2.63,2.63,0,0,1-1.37,1.09,4,4,0,0,1-.49.15Z" transform="translate(-12.72 -5.41)" fill="#384e4f"/><path d="M415.66,93.79a17.45,17.45,0,0,0,4,1.4,6,6,0,0,0,3.16-.06,2.66,2.66,0,0,0,1.6-1.53c1.07-2.62-1.07-5.13-2.45-6.39l-.44.79s-.18-.08-.48-.18c1.17,1,3.25,3.25,2.38,5.37a1.55,1.55,0,0,1-1,.94c-1.77.66-5.14-.71-6.28-1.29a.53.53,0,1,0-.49,1Z" transform="translate(-12.72 -5.41)" fill="#ed7462"/><path d="M360,97.29v0s0,0,0,0l0,.06.06.11.14.29.31.64q.17.31.33.66l.35.67c.47.9,1,1.82,1.47,2.73,1,1.81,2.12,3.63,3.28,5.39s2.34,3.5,3.61,5.18c.64.83,1.27,1.67,1.93,2.47s1.33,1.62,2,2.42c1.37,1.56,2.77,3.09,4.24,4.53.35.37.73.72,1.1,1.07s.73.72,1.11,1.06c.76.68,1.51,1.37,2.29,2,1.53,1.33,3.16,2.53,4.77,3.73s3.32,2.25,5,3.23c.44.25.86.51,1.3.75l1.31.69.66.35.17.09-.09-.05-.11,0a3.8,3.8,0,0,0-.47-.18,6.44,6.44,0,0,0-2.15-.4h-.49l-.24,0-.2,0a2.44,2.44,0,0,0-.39.07,1.63,1.63,0,0,0-.3.07l-.14,0-.11,0-.19.07-.12,0-.06,0h0c-.14.09.15,0,.54-.35a14.24,14.24,0,0,0,1.49-1.34c.56-.56,1.15-1.22,1.75-1.93,1.2-1.41,2.42-3.06,3.62-4.78s2.38-3.55,3.54-5.42,2.31-3.8,3.43-5.76,2.23-4,3.31-6c.54-1,1.08-2,1.61-3l1.54-2.91,19.87,8.18-.34,1-.33.91-.65,1.8q-.67,1.77-1.38,3.54c-1,2.34-1.95,4.67-3,7s-2.19,4.62-3.39,6.92c-.61,1.15-1.23,2.3-1.87,3.45s-1.33,2.3-2,3.45a79.38,79.38,0,0,1-4.75,6.93c-.9,1.16-1.87,2.33-2.95,3.52a38.37,38.37,0,0,1-3.75,3.6,26.89,26.89,0,0,1-5.46,3.59l-.43.21-.46.2-1,.4-1.05.36-.53.17-.58.15c-.39.1-.78.19-1.18.27s-.85.14-1.28.2l-.64.07-.69,0c-.47,0-.91,0-1.39,0a18.69,18.69,0,0,1-5.67-1l-1.3-.53-.32-.15-.29-.13-.24-.12-.94-.48-1.87-1c-.62-.33-1.23-.69-1.84-1-2.45-1.38-4.78-2.94-7.07-4.54s-4.46-3.35-6.53-5.18-4.08-3.74-6-5.71l-1.4-1.5c-.47-.51-.91-1-1.36-1.54s-.9-1-1.33-1.55l-1.31-1.58a101.06,101.06,0,0,1-9.1-13.41c-1.31-2.35-2.57-4.73-3.7-7.2-.56-1.24-1.12-2.48-1.63-3.77-.13-.31-.26-.64-.39-1s-.25-.65-.37-1-.26-.68-.38-1l-.42-1.25Z" transform="translate(-12.72 -5.41)" fill="#23585e"/><path d="M419.53,112.14a1.49,1.49,0,1,1-1.71-1.21A1.49,1.49,0,0,1,419.53,112.14Z" transform="translate(-12.72 -5.41)" fill="#1a4a4b"/><path d="M396.06,144.5a.64.64,0,0,1-.72-.31,47.81,47.81,0,0,1-3.74-10.37.64.64,0,0,1,1.24-.28,46.76,46.76,0,0,0,3.62,10.05.64.64,0,0,1-.26.86Z" transform="translate(-12.72 -5.41)" fill="#1a4a4b"/><path d="M391,141.08a.71.71,0,0,1-.29,0,.64.64,0,0,1-.49-.75,51.25,51.25,0,0,1,1.63-6.08.63.63,0,1,1,1.16.51,51.4,51.4,0,0,0-1.55,5.84A.64.64,0,0,1,391,141.08Z" transform="translate(-12.72 -5.41)" fill="#1a4a4b"/><path d="M427,122.92a.61.61,0,0,1-.49-.08c-6.5-4-20.24-9.34-20.38-9.39a.63.63,0,0,1,.46-1.18c.14,0,14,5.47,20.58,9.49a.64.64,0,0,1-.17,1.16Z" transform="translate(-12.72 -5.41)" fill="#1a4a4b"/><path d="M420.88,119.67a.64.64,0,0,1-.43,0,.64.64,0,0,1-.3-.84l4.28-9a.64.64,0,0,1,.84-.3.63.63,0,0,1,.3.84l-4.27,9A.68.68,0,0,1,420.88,119.67Z" transform="translate(-12.72 -5.41)" fill="#1a4a4b"/><path d="M292.54,243.29q.21.83.45,1.62l0,.06c.22.71.46,1.4.73,2.05,2.38,5.79,20.69,6.61,38.7,4.56,14-1.59,27.77-4.91,33.83-9,5.68-3.81-6.51-38.85-6.51-38.85l-68.33,14.48S289.92,232.82,292.54,243.29Z" transform="translate(-12.72 -5.41)" fill="#00312d"/><path d="M340,304.63h33.92c-1.23-18.76-3.13-39.82-5.45-61.94-.06-.59-.12-1.18-.19-1.77q-.3-3-.63-5.92c0-.53-.11-1.06-.17-1.59l-6.57,3-1.62.75-25.82,12,.27,2.27Z" transform="translate(-12.72 -5.41)" fill="#00312d"/><path d="M344.05,304.63h1.69l-6.93-52.19a.84.84,0,0,0-1.67.22Z" transform="translate(-12.72 -5.41)" fill="#384e4f"/><path d="M352,222.14c.08.43,1.75,9,7.29,15.06a20.1,20.1,0,0,0,3.86,3.28,16.3,16.3,0,0,0,3.57,1.72,15.14,15.14,0,0,0,1.75.49c-.06-.59-.12-1.18-.19-1.77a7.93,7.93,0,0,1-.83-.25,14.48,14.48,0,0,1-3.4-1.61,16.82,16.82,0,0,1-3.14-2.61c-5.54-5.76-7.24-14.52-7.26-14.62a.84.84,0,0,0-1.65.31Z" transform="translate(-12.72 -5.41)" fill="#384e4f"/><path d="M338.23,247.93a.69.69,0,0,1-.66.71h0a.69.69,0,0,1-.74-.64c-.12-2.53-.28-5.12-.45-7.7,0-.46-.05-.91-.09-1.37-.56-8.44-1.28-16.74-1.81-22.59-.05-.48-.09-.94-.13-1.38-.12-1.28-.23-2.42-.32-3.39l1.38-.22c.09,1,.2,2.11.32,3.41,0,.44.09.9.13,1.37.53,5.81,1.24,14,1.81,22.43l.09,1.39C337.94,242.63,338.1,245.31,338.23,247.93Z" transform="translate(-12.72 -5.41)" fill="#384e4f"/><path d="M340.2,239a18.36,18.36,0,0,1-2.44.94c-.43.13-.9.25-1.38.35a9.72,9.72,0,0,1-1.32.17,4.74,4.74,0,0,1-2.34-.36,2.85,2.85,0,0,1-1.6-2.13c-.51-2.61-1.6-13.37-2.33-21-.05-.47-.09-.92-.14-1.37-.11-1.21-.22-2.32-.3-3.26l1.39-.18c.08.95.19,2.07.31,3.3,0,.44.08.9.13,1.37.73,7.59,1.82,18.34,2.31,20.86a1.52,1.52,0,0,0,.85,1.18,4.88,4.88,0,0,0,3,0c.47-.1.94-.23,1.38-.37a15.63,15.63,0,0,0,1.91-.76.72.72,0,0,1,.94.3A.67.67,0,0,1,340.2,239Z" transform="translate(-12.72 -5.41)" fill="#384e4f"/><path d="M293,244.89v0a.13.13,0,0,0,0,.06c.05.54.1,1.1.15,1.66,1.52,16,3.86,40,5.88,58h33.51l-.12-64.16a205.88,205.88,0,0,0-19.36-7.83l-1.64-.54c-1-.33-2.07-.65-3.1-.95l-1.64-.47c-6.18-1.67-11.91-2.5-15.13-1.16,0,0,.5,5.44,1.29,13.77C292.89,243.81,292.94,244.34,293,244.89Z" transform="translate(-12.72 -5.41)" fill="#00312d"/><path d="M303.83,304.63c-1.92-21.9-4.3-55-4.33-55.47a.84.84,0,1,0-1.67.12c0,.42,2.39,33.42,4.32,55.35Z" transform="translate(-12.72 -5.41)" fill="#384e4f"/><path d="M293,244.89v0a.13.13,0,0,0,0,.06c.05.54.1,1.1.15,1.66a13.45,13.45,0,0,0,7-.64c4.29-1.56,7.65-5.08,10.09-8.59a40.57,40.57,0,0,0,2.85-4.76,42.67,42.67,0,0,0,2-4.48.84.84,0,0,0-.52-1.07.83.83,0,0,0-1.07.51,36.34,36.34,0,0,1-2,4.5,39.73,39.73,0,0,1-2.65,4.39c-2.28,3.27-5.37,6.52-9.23,7.93A12,12,0,0,1,293,244.89Z" transform="translate(-12.72 -5.41)" fill="#384e4f"/><path d="M281.2,168.21c.12,1.78.27,3.57.46,5.35.92,8.95,4.35,38.88,7.44,47.26,11.38,5.52,24.13,7.52,36.29,7,2.31-.11,4.61-.3,6.87-.58,2-.24,4-.56,5.91-.93,12.63-2.45,23.69-7.54,30.55-14-3.24-12.57-7-35.34-8.45-45.11q-.39-2.73-.71-5.32c-.21-1.69-.39-3.34-.55-4.94-.19-1.83-.35-3.62-.48-5.35s-.25-3.65-.34-5.38-.15-3.65-.19-5.37c-.5-23.52,3.8-35.13,2.66-40.77-1.7-8.48-9.55-8.36-16.7-11-.41-.15-.83-.32-1.24-.5l-.82-.37a15.93,15.93,0,0,1-6.54-5.44l-21,0a29.88,29.88,0,0,1-4.75,2.94c-.28.15-.58.3-.89.44-.75.36-1.58.72-2.48,1.06a39.5,39.5,0,0,1-7.9,2.1c-9.4,1.51-14.8,11.52-15.79,27.74-.49,8.19-1,15.91-1.38,23.36,0,.49-.05,1-.07,1.47A234.71,234.71,0,0,0,281.2,168.21Z" transform="translate(-12.72 -5.41)" fill="#fff"/><polygon points="326.47 174.71 322.88 183.42 322.88 183.42 321.26 187.34 316.71 198.41 314.49 194.14 313.7 192.63 311.92 189.21 311.14 187.7 309.36 184.28 308.57 182.77 306.79 179.35 306.79 179.35 306 177.84 304.33 174.63 304.37 174.28 304.62 171.72 305.2 165.94 305.46 163.38 306.03 157.59 306.29 155.04 306.87 149.25 307.12 146.7 307.7 140.91 307.95 138.35 308.53 132.57 308.79 130.01 309.37 124.23 309.62 121.67 310.2 115.89 310.45 113.33 311.03 107.54 311.29 104.99 311.57 102.2 311.88 99 316.31 98.82 316.44 99.82 316.71 101.84 316.79 102.47 317.32 106.43 317.59 108.46 318.21 113.05 318.48 115.08 319.1 119.67 319.37 121.69 319.98 126.28 320.25 128.31 320.87 132.9 321.14 134.92 321.75 139.51 322.02 141.54 322.64 146.13 322.91 148.16 323.52 152.75 323.8 154.77 324.41 159.36 324.68 161.39 325.3 165.98 325.57 168.01 326.18 172.6 326.45 174.62 326.47 174.71" fill="#ff524b"/><polygon points="316.79 102.47 314.17 107.12 311.57 102.2 311.88 99 316.31 98.82 316.44 99.82 316.71 101.84 316.79 102.47" fill="#d63f2c"/><path d="M281.2,168.21c.12,1.78.27,3.57.46,5.35.92,8.95,4.35,38.88,7.44,47.26,11.38,5.52,24.13,7.52,36.29,7l6.39-10.1,6.39,8.59c12.63-2.45,23.69-7.54,30.55-14-1.17-4.55-2.42-10.45-3.6-16.58q-.42-2.21-.84-4.44c-1.72-9.38-3.22-18.71-4-24.09q-.39-2.73-.71-5.32c-.21-1.69-.39-3.34-.55-4.94-.19-1.83-.35-3.62-.48-5.35s-.25-3.65-.34-5.38-.15-3.65-.19-5.37c-.5-23.52,3.8-35.13,2.66-40.77-1.7-8.48-9.55-8.36-16.7-11l-.35.18-15.59,69-21.37-70.9-.39-.09a39.5,39.5,0,0,1-7.9,2.1c-9.4,1.51-14.8,11.52-15.79,27.74-.49,8.19-1,15.91-1.38,23.36,0,.49-.05,1-.07,1.47A234.71,234.71,0,0,0,281.2,168.21Z" transform="translate(-12.72 -5.41)" fill="#23585e"/><path d="M294.45,224.14a.76.76,0,0,1-.7-.49c-10.26-27.31-10.1-79.32-10.09-79.84a.74.74,0,0,1,.75-.75h0a.76.76,0,0,1,.75.75c0,.52-.17,52.26,10,79.31a.76.76,0,0,1-.44,1A.86.86,0,0,1,294.45,224.14Z" transform="translate(-12.72 -5.41)" fill="#1a4a4b"/><path d="M346.58,190.22a134.87,134.87,0,0,0,18.54,5.55q-.42-2.21-.84-4.44c-7.75-1.9-16.74-4.75-16.74-4.75Z" transform="translate(-12.72 -5.41)" fill="#1a4a4b"/><path d="M315,189.5s-15.26,9.17-22.25,11.79l2.12,3.72s13.28-6,21.92-12.2Z" transform="translate(-12.72 -5.41)" fill="#1a4a4b"/><path d="M343.61,89.27a7.44,7.44,0,0,1,9.44,2.63l-3.5,22.6-7.9,4.7,5.36,3.19-6,26.28-13,9.58Z" transform="translate(-12.72 -5.41)" fill="#1a4a4b"/><path d="M309.71,87.26S304,83.59,300,89.07l4.92,25.51,7.93,4.67-5.35,3.22,6.09,26.25L328,158.25Z" transform="translate(-12.72 -5.41)" fill="#1a4a4b"/><path d="M332.44,210.72a1.58,1.58,0,0,1-3.15-.26,1.58,1.58,0,1,1,3.15.26Z" transform="translate(-12.72 -5.41)" fill="#1a4a4b"/><path d="M331.77,199a1.58,1.58,0,1,1-1.44-1.71A1.58,1.58,0,0,1,331.77,199Z" transform="translate(-12.72 -5.41)" fill="#1a4a4b"/><path d="M331.1,187.27a1.58,1.58,0,1,1-1.44-1.71A1.57,1.57,0,0,1,331.1,187.27Z" transform="translate(-12.72 -5.41)" fill="#1a4a4b"/><path d="M330.43,175.54a1.58,1.58,0,1,1-1.44-1.71A1.59,1.59,0,0,1,330.43,175.54Z" transform="translate(-12.72 -5.41)" fill="#1a4a4b"/><path d="M329.76,163.82a1.58,1.58,0,1,1-1.44-1.71A1.57,1.57,0,0,1,329.76,163.82Z" transform="translate(-12.72 -5.41)" fill="#1a4a4b"/><path d="M357.42,141.72a.67.67,0,0,0,1.11-.5c0-5.16.19-10.71.57-16.56,0-.26,0-.47,0-.63a.68.68,0,0,0-.63-.72.69.69,0,0,0-.72.64c0,.15,0,.36,0,.63-.38,5.86-.57,11.43-.57,16.63a.66.66,0,0,0,.22.49Z" transform="translate(-12.72 -5.41)" fill="#1a4a4b"/><path d="M312.17,58.49s-4.8-3.43-5.93-8.83c-1-4.75,3-4.75,3-4.75s-3.27-5.15-1.31-9a7,7,0,0,1,7.35-3.9s-1.32-7.67,10.89-7,19.48,1.09,21.46,6.36a4.91,4.91,0,0,1-3,6.83s4.93,3,2.52,6.11a5.18,5.18,0,0,1-5.42,2.2Z" transform="translate(-12.72 -5.41)" fill="#00312d"/><path d="M336.83,56.37s1.51-5.7,6.14-4.64,5.52,16.27-3.2,16.2Z" transform="translate(-12.72 -5.41)" fill="#ed7462"/><path d="M314.9,84.43s-1.09,1.92,7.41,4.27a18.22,18.22,0,0,0,12.62-1.53A16.33,16.33,0,0,0,336.65,86c-1.38-6.44-.27-10.63.06-11.63l.08-.23-22.14-11Z" transform="translate(-12.72 -5.41)" fill="#ff9d8a"/><path d="M317.79,71.85s5.32,14.63,17.14,15.32A16.33,16.33,0,0,0,336.65,86c-1.38-6.44-.27-10.63.06-11.63Z" transform="translate(-12.72 -5.41)" fill="#00312d"/><path d="M326.38,79.49c9.12,1.68,16.35-2.31,17.14-10.13.19-1.89.27-4.61.27-7.46V60c0-.44,0-.88,0-1.32-.06-5.06-.25-9.66-.25-9.66-1.44-12.57-13.95-17.13-23.88-12.25s-5.93,20.16-5.83,27.64S318.55,78,326.38,79.49Z" transform="translate(-12.72 -5.41)" fill="#ff9d8a"/><path d="M328.18,64.56s1.29,4.17,4.7,4.85c3.89.77,4.76-4.09,4.76-4.09Z" transform="translate(-12.72 -5.41)" fill="#fff"/><path d="M325.72,52.17c-2.58.54-3.31-2.22-1-3.66a6.82,6.82,0,0,1,3.42-1.22c3.41,0,3.51,2.37,1.81,3.34A18.52,18.52,0,0,1,325.72,52.17Z" transform="translate(-12.72 -5.41)" fill="#00312d"/><path d="M340.39,50.79c2.62.23,3-2.6.53-3.75a7,7,0,0,0-3.55-.8c-3.38.39-3.19,2.79-1.38,3.55A18.32,18.32,0,0,0,340.39,50.79Z" transform="translate(-12.72 -5.41)" fill="#00312d"/><path d="M342.76,62a10.26,10.26,0,0,0,1-.14V60c0-.44,0-.88,0-1.32-.4,0-.83,0-1.27,0-2.29.18-4.09,1.07-4,2S340.47,62.21,342.76,62Z" transform="translate(-12.72 -5.41)" fill="#ed7462"/><path d="M341.91,61.33a5.67,5.67,0,1,1,4.47-6.66A5.68,5.68,0,0,1,341.91,61.33Zm-2-10.32a4.85,4.85,0,1,0,5.68,3.82A4.86,4.86,0,0,0,339.88,51Z" transform="translate(-12.72 -5.41)" fill="#fff"/><path d="M335.08,62.82a.6.6,0,0,0,.2-.07c2.05-1.42,2.45-2.16,2.5-2.3a.42.42,0,0,0,0-.39l-3-4.48,0,0c-.64-.75-.76-2.31-.84-4.11a.41.41,0,0,0-.82,0c.09,1.95.23,3.64,1,4.59l2.82,4.24a9.59,9.59,0,0,1-2.11,1.79.4.4,0,0,0-.1.56A.39.39,0,0,0,335.08,62.82Z" transform="translate(-12.72 -5.41)" fill="#00312d"/><path d="M318.83,60.33c.07.92,2,1.53,4.28,1.36s4.09-1.07,4-2-2-1.53-4.28-1.35S318.76,59.41,318.83,60.33Z" transform="translate(-12.72 -5.41)" fill="#ed7462"/><path d="M328.4,61.7A5.67,5.67,0,1,1,332.87,55,5.67,5.67,0,0,1,328.4,61.7Zm-2-10.31a4.84,4.84,0,1,0,5.68,3.81A4.85,4.85,0,0,0,326.37,51.39Z" transform="translate(-12.72 -5.41)" fill="#fff"/><path d="M335.61,56.19h0a.42.42,0,0,1-.48-.34s-.2-1.07-1-1a1.49,1.49,0,0,0-1.2,1,.42.42,0,0,1-.79-.26,2.32,2.32,0,0,1,2-1.59,1.92,1.92,0,0,1,1.84,1.72A.41.41,0,0,1,335.61,56.19Z" transform="translate(-12.72 -5.41)" fill="#fff"/><path d="M322.24,55.45a.41.41,0,0,1-.44-.21c-2.25-4-6.44-2.05-6.62-2a.42.42,0,0,1-.36-.75c.05,0,5.07-2.43,7.7,2.31a.42.42,0,0,1-.16.57Z" transform="translate(-12.72 -5.41)" fill="#fff"/><path d="M343.53,49.87h0a15.16,15.16,0,0,0-3.7-12.31c-6.3-7.24-19.15-6.84-24.28.53s-2.61,13.77-2.61,13.77,2.07.75,3.08,4.79l2.73-.11a20,20,0,0,0-.05-8.89c-1.08-5.52,8.65-11,15.25-9.78a11.91,11.91,0,0,1,8.71,7.25A20.5,20.5,0,0,1,343.53,49.87Z" transform="translate(-12.72 -5.41)" fill="#00312d"/><path d="M322.23,41.05s4.59-1.8,6.82-.93,5.44,2,7.86.28,5.21,3.43,5.21,3.43-3.08-9.22-10.69-7.3S323.85,37.72,322.23,41.05Z" transform="translate(-12.72 -5.41)" fill="#00312d"/><path d="M334,71.14a2.78,2.78,0,0,0,.29-.09.42.42,0,0,0,.23-.54.41.41,0,0,0-.54-.22,2.59,2.59,0,0,1-2.56-.41.4.4,0,0,0-.58.05.39.39,0,0,0,.05.57A3.35,3.35,0,0,0,334,71.14Z" transform="translate(-12.72 -5.41)" fill="#ed7462"/><path d="M315.55,54.11s-2.64-4.18-6.91-2.1-1.71,17.09,6.77,15.06Z" transform="translate(-12.72 -5.41)" fill="#ff9d8a"/><path d="M313.67,61.76l.09,0a.4.4,0,0,0,.27-.51c0-.18-1.39-4.51-5.36-5.12a.42.42,0,0,0-.47.35.41.41,0,0,0,.34.46c3.47.53,4.7,4.51,4.71,4.55A.42.42,0,0,0,313.67,61.76Z" transform="translate(-12.72 -5.41)" fill="#00312d"/><path d="M310,60.43a.42.42,0,0,0,.27-.14s.78-.87,1.69-1.74a.41.41,0,1,0-.56-.59c-.94.89-1.71,1.75-1.74,1.79a.41.41,0,0,0,0,.58A.45.45,0,0,0,310,60.43Z" transform="translate(-12.72 -5.41)" fill="#00312d"/><path d="M326.79,56.05c0,.9.44,1.64,1,1.63s.93-.75.92-1.65-.44-1.64-1-1.64S326.78,55.14,326.79,56.05Z" transform="translate(-12.72 -5.41)" fill="#00312d"/><path d="M337.37,56.08c0,.9.44,1.64,1,1.63s.93-.75.92-1.66-.44-1.63-1-1.63S337.36,55.17,337.37,56.08Z" transform="translate(-12.72 -5.41)" fill="#00312d"/><path d="M314.57,79.16s-3.16,1-4.86,8.1c2.2,6.48,8.4,11.93,17.09,13.52l0-12.76A22.47,22.47,0,0,1,314.57,79.16Z" transform="translate(-12.72 -5.41)" fill="#fff"/><path d="M336.21,81s5.22,1.18,7.4,8.3C338,96.1,335,98.68,326.8,100.78l0-12.76S331.7,87.94,336.21,81Z" transform="translate(-12.72 -5.41)" fill="#fff"/><polygon points="308.18 93.52 314.09 102.27 319.73 93.49 314.06 86.18 308.18 93.52" fill="#ff524b"/><path d="M338.7,107.88a.7.7,0,0,0,.41-.14.68.68,0,0,0,.13-.95l-11.92-15.6a.69.69,0,0,0-.52-.27.7.7,0,0,0-.53.23L314.5,104.68a.67.67,0,0,0,.06.95.68.68,0,0,0,1-.06l11.23-12.9,11.41,14.94A.68.68,0,0,0,338.7,107.88Z" transform="translate(-12.72 -5.41)" fill="#f2cec2"/><path d="M326.78,92.27h0a.68.68,0,0,0,.67-.68l0-3a.67.67,0,0,0-.68-.67h0a.68.68,0,0,0-.67.68l0,3A.67.67,0,0,0,326.78,92.27Z" transform="translate(-12.72 -5.41)" fill="#f2cec2"/><path d="M292.18,217.42c1.48-.41,3.65,1.14,5.61,1.66a23.61,23.61,0,0,1,8,4.08c1.09,1,6.53,7.15,9,9.85a1.55,1.55,0,0,1-.06,2.17c-.8.73-2.49.71-5.75-2.29l-1.25-1.08a7.14,7.14,0,0,0-2.89-1.42s1.81,1.63,4.91,4.58c-3.38,5.88-8.89,11.49-16.22,10a47.23,47.23,0,0,1-2.89-5.43c-1.38-2.52-5.68-9-6.92-12.55C282.92,224.6,287.49,218.71,292.18,217.42Z" transform="translate(-12.72 -5.41)" fill="#ff9d8a"/><path d="M289.16,94.71l-.67.53-.52.44-1,.84c-.65.56-1.27,1.11-1.88,1.66-1.21,1.11-2.38,2.22-3.53,3.35-2.29,2.27-4.48,4.59-6.6,7a137.64,137.64,0,0,0-11.64,15.25,125.41,125.41,0,0,0-9.37,17c-1.33,3-2.56,6-3.63,9.13-.55,1.55-1,3.12-1.52,4.7-.23.79-.46,1.58-.67,2.38l-.17.6-.08.3-.16.62a19.75,19.75,0,0,0-.49,2.92,23.66,23.66,0,0,0-.1,2.45c0,.76,0,1.45.1,2.11a32.76,32.76,0,0,0,.52,3.55,48.64,48.64,0,0,0,1.57,5.72c.58,1.73,1.21,3.34,1.86,4.89s1.32,3,2,4.48c1.39,2.9,2.85,5.65,4.34,8.34s3,5.3,4.6,7.88c3.14,5.14,6.41,10.11,9.76,15q2.53,3.66,5.13,7.25,1.31,1.8,2.62,3.59l1.34,1.79,1.38,1.82,18.07-12.73-1.08-1.73-1.1-1.79-2.21-3.59q-2.19-3.6-4.31-7.25c-2.84-4.84-5.58-9.72-8.17-14.59-1.28-2.43-2.52-4.87-3.7-7.29s-2.28-4.84-3.26-7.21a64.85,64.85,0,0,1-2.42-6.72,21.13,21.13,0,0,1-.58-2.65,5.34,5.34,0,0,1-.06-.74c0-.06,0-.09,0-.05a1,1,0,0,1,0,.29,5.23,5.23,0,0,1-.12.79l0,.14v0s0,0,0,0l0-.05.07-.22.14-.44c.19-.59.39-1.17.59-1.75.41-1.17.83-2.33,1.3-3.48.92-2.3,2-4.57,3.08-6.8a102.28,102.28,0,0,1,7.82-13c1.46-2.09,3-4.14,4.63-6.14s3.29-4,5-5.85,3.52-3.76,5.35-5.52c.92-.88,1.84-1.74,2.77-2.57l1.37-1.21.65-.56.48-.39Z" transform="translate(-12.72 -5.41)" fill="#23585e"/><path d="M273,165.13a.67.67,0,0,0,.15-1.33,67.91,67.91,0,0,0-10.51-1.5.68.68,0,1,0,0,1.35,68.31,68.31,0,0,1,10.26,1.47Z" transform="translate(-12.72 -5.41)" fill="#1a4a4b"/><path d="M272.56,165.05a.68.68,0,0,0,.54-.27.67.67,0,0,0-.13-.94c-2.27-1.74-5.46-3.67-5.6-3.75a.67.67,0,1,0-.7,1.15s3.27,2,5.48,3.67A.7.7,0,0,0,272.56,165.05Z" transform="translate(-12.72 -5.41)" fill="#1a4a4b"/><path d="M281.2,149.46a.68.68,0,0,0,.57-.31c.12-.19,12.16-18.86,20-25.58a.68.68,0,1,0-.89-1c-7.93,6.85-19.7,25.1-20.2,25.87a.68.68,0,0,0,.2.93A.66.66,0,0,0,281.2,149.46Z" transform="translate(-12.72 -5.41)" fill="#1a4a4b"/><path d="M297.14,127.86h.1L303,127a.67.67,0,0,0,.56-.77.68.68,0,0,0-.77-.57l-5.79.89a.67.67,0,0,0,.1,1.34Z" transform="translate(-12.72 -5.41)" fill="#1a4a4b"/><path d="M276.33,221.73a.68.68,0,0,0,.38-.12l17.9-12.34a.68.68,0,0,0,.18-.94.67.67,0,0,0-.94-.17l-17.91,12.33a.68.68,0,0,0,.39,1.24Z" transform="translate(-12.72 -5.41)" fill="#1a4a4b"/><path d="M287.12,226.81a.7.7,0,0,0,.37-.11.68.68,0,0,0,.19-.94l-5.53-8.32a.66.66,0,0,0-.93-.19.68.68,0,0,0-.19.94l5.53,8.32A.68.68,0,0,0,287.12,226.81Z" transform="translate(-12.72 -5.41)" fill="#1a4a4b"/><path d="M290.1,219.87a1.59,1.59,0,0,1-2.82-1.45,1.59,1.59,0,0,1,2.82,1.45Z" transform="translate(-12.72 -5.41)" fill="#1a4a4b"/></g><path d="M167.93,290.87c-19.8-1-37.54-7.26-49-5.08s-11.28-27.46.22-36.29c8.56-6.56-4.06-19.65-4-30.22-.76-1.52-2.73-12.15,5.31-20,8.75-8.57,17.72-8.91,26.74-4.48,5.93,2.13,11.69,7.88,13.45,22.43,3,25,13.15,21.22,28.45,41.9C198.07,271.2,187.73,291.83,167.93,290.87Z" transform="translate(-12.72 -5.41)" fill="#00312d"/><path d="M114.54,257l-2.82,4-2.78,4q-2.77,3.94-5.51,7.95c-3.63,5.33-7.22,10.71-10.71,16.25-1.74,2.78-3.46,5.59-5.14,8.53-.84,1.48-1.66,3-2.48,4.59-.41.8-.81,1.65-1.21,2.54a32.49,32.49,0,0,0-1.2,3.05l0,.11,0,.13-.07.24-.15.5-.15.58c0,.2-.1.41-.12.54-.06.29-.13.61-.18,1s-.11.74-.16,1.2a12.81,12.81,0,0,0,0,1.75v.46l0,.18c0,.12,0,.23,0,.36l.06.42a10.2,10.2,0,0,0,.71,2.38,8.19,8.19,0,0,0,.42.84c.09.15.18.3.28.45l.16.25.18.25.39.5c.15.18.32.35.48.52l.26.25.28.26c.2.17.41.33.62.48a9.28,9.28,0,0,0,1.39.83c.24.11.49.22.74.31s.48.17.73.25l.37.09.35.08.68.11.33,0,.3,0,.59,0,.52,0,.25,0,.24,0,.43-.06.4-.07.35-.08.33-.08.57-.18a10.79,10.79,0,0,0,1.53-.68l.53-.3.22-.14.2-.13.19-.13.18-.12.31-.23c.4-.3.7-.56,1-.8.55-.49,1-.91,1.37-1.32.77-.8,1.4-1.53,2-2.25,1.2-1.44,2.25-2.82,3.26-4.2q.77-1,1.5-2.07l.73-1.05.75-1.09a8.71,8.71,0,0,0-14.33-9.9l-.1.14-.61.88-.64.91L91,301.92c-.88,1.18-1.77,2.33-2.63,3.34-.42.5-.84,1-1.18,1.31l-.35.35s0,0,0-.05l.07-.05.12-.08.08-.05.09-.06.27-.15a6,6,0,0,1,1-.44l.43-.13.25-.07.28-.06.33-.06.35-.05.2,0,.22,0h1l.26,0,.29,0a6,6,0,0,1,.61.1l.31.07.33.08c.23.07.43.13.66.22s.46.18.68.29a8.91,8.91,0,0,1,1.26.75c.19.14.38.28.56.44l.25.23a2.39,2.39,0,0,1,.23.22,6.29,6.29,0,0,1,.43.47c.13.15.24.29.35.44s.11.14.16.22l.14.21.24.39a7.62,7.62,0,0,1,.35.71,8.08,8.08,0,0,1,.55,1.8c0,.09,0,.18,0,.27l0,.22,0,.18v.16a4.44,4.44,0,0,1,0,.56c0,.06,0,.05,0,0s0-.12,0-.21,0-.05,0-.05h0l0-.07v-.06l0,0a13.83,13.83,0,0,1,.56-1.39c.25-.56.54-1.16.85-1.78.63-1.23,1.34-2.52,2.08-3.82,1.49-2.6,3.1-5.23,4.76-7.85,3.32-5.25,6.82-10.48,10.38-15.67q2.68-3.9,5.41-7.78l2.73-3.86,2.74-3.82.06-.09A8.83,8.83,0,1,0,114.56,257Z" transform="translate(-12.72 -5.41)" fill="#ff9d8a"/><path d="M113.6,338.65c-.35,2.2-.33,3.88.32,4.87.94,1.41,8.56,2.88,18.18,3.82l1.82.17c2,.17,4.12.33,6.26.45l1.49.08c16.23.82,33.73-.13,34.77-5.13,2-9.66-3.74-24.26-2.41-39.31.53-6.07,5.6-18,6.07-25.56.71-11.45.91-22.19-.71-24.9-1.13-1.9-6-3.57-11.3-4.86-1.64-.4-3.31-.77-4.91-1.09-5.48-1.12-10.22-1.75-10.22-1.75s-14.09.73-23.67,3.17a33,33,0,0,0-4.68,1.52c-.21.08-.4.17-.59.26-.65.3-1.27.59-1.84.87-9.12,4.41-7.87,5.24-7.17,10.65,1,8,1.86,7.49-.24,14.41-.17.56-.36,1.17-.57,1.84-.52,1.64-1.17,3.63-2,6.1a22.63,22.63,0,0,0-1.12,5.3c0,.28,0,.56,0,.82-.06,8.26,8.34,7.59,8.34,18,0,6.37-1.46,12.88-2.94,18.59l-.21.82c-.86,3.25-1.7,6.23-2.26,8.73C113.85,337.28,113.71,338,113.6,338.65Z" transform="translate(-12.72 -5.41)" fill="#2d918e"/><path d="M159.49,266.84c.14,3.09,3.32,4.4,5.79,5-.14-.31-.27-.63-.4-1-2.1-.56-4.46-1.71-4.56-4a4.64,4.64,0,0,1,3.07-4.41c0-.29,0-.59,0-.89C161.6,262.27,159.36,263.84,159.49,266.84Z" transform="translate(-12.72 -5.41)" fill="#005b5c"/><path d="M155.28,257.5a8.08,8.08,0,0,0,4.87-1.64,3.75,3.75,0,0,0,1.58-2.69c.32-3.1-2.83-6.65-3-6.8a.41.41,0,1,0-.62.55s3,3.43,2.75,6.16a2.9,2.9,0,0,1-1.24,2.12,7.52,7.52,0,0,1-7.57.79.41.41,0,0,0-.55.18.42.42,0,0,0,.18.56A8.51,8.51,0,0,0,155.28,257.5Z" transform="translate(-12.72 -5.41)" fill="#005b5c"/><path d="M132,260.66a24.85,24.85,0,0,0,2.86-.17.42.42,0,0,0,.36-.47.42.42,0,0,0-.47-.35c-.06,0-5.85.77-8.1-1.06a2.16,2.16,0,0,1-.83-1.57c-.28-3.94,4.94-6.91,5-6.94a.41.41,0,0,0,.16-.56.43.43,0,0,0-.57-.16c-.23.13-5.73,3.27-5.41,7.72a2.93,2.93,0,0,0,1.13,2.15C127.54,260.4,130,260.66,132,260.66Z" transform="translate(-12.72 -5.41)" fill="#005b5c"/><path d="M171.66,333.66h.05a.42.42,0,0,0,.37-.46c0-.18-2-18.08-2.18-28.23s4.49-28.36,4.53-28.54a.41.41,0,0,0-.29-.51.43.43,0,0,0-.51.3c0,.18-4.73,18.54-4.55,28.77s2.15,28.12,2.17,28.3A.42.42,0,0,0,171.66,333.66Z" transform="translate(-12.72 -5.41)" fill="#005b5c"/><path d="M131.08,327.72c8.18,0,15.47-3.14,20.68-6.25a60.12,60.12,0,0,0,12.59-10,.42.42,0,1,0-.62-.56,58.94,58.94,0,0,1-12.41,9.9c-6.9,4.1-17.52,8.28-28.93,4.84a.41.41,0,1,0-.23.79A30.74,30.74,0,0,0,131.08,327.72Z" transform="translate(-12.72 -5.41)" fill="#005b5c"/><path d="M134.91,335a31.17,31.17,0,0,0,9.42-1.6,40.92,40.92,0,0,0,8.57-3.94.43.43,0,0,0,.12-.58.42.42,0,0,0-.57-.12c-.14.09-13.93,8.91-25.48,3.83a.41.41,0,0,0-.54.21.42.42,0,0,0,.21.55A20.42,20.42,0,0,0,134.91,335Z" transform="translate(-12.72 -5.41)" fill="#005b5c"/><path d="M135.43,273a24.17,24.17,0,0,0,11.7-3.25,34.84,34.84,0,0,0,9.11-7.37.42.42,0,0,0-.64-.53,34.44,34.44,0,0,1-8.89,7.19c-7.2,4-14.29,4.21-21.06.6a.4.4,0,0,0-.55.17.41.41,0,0,0,.17.56A21.33,21.33,0,0,0,135.43,273Z" transform="translate(-12.72 -5.41)" fill="#005b5c"/><path d="M180.1,278c.71-11.45.91-22.19-.71-24.9-1.13-1.9-6-3.57-11.3-4.86C156.57,264.14,168.44,285.91,180.1,278Z" transform="translate(-12.72 -5.41)" fill="#ff9d8a"/><path d="M114.77,276.32c6.21-7,7.3-18.84,7.41-25.06-9.12,4.41-7.87,5.24-7.17,10.65C116,269.88,116.87,269.4,114.77,276.32Z" transform="translate(-12.72 -5.41)" fill="#ff9d8a"/><path d="M129.29,248.61c1.06,5.66,2,16.28,10.88,16.28,8.67,0,20.06-14.07,23-17.7a74,74,0,0,1-10.7-3.17S138.87,246.17,129.29,248.61Z" transform="translate(-12.72 -5.41)" fill="#ff9d8a"/><path d="M119.57,267.69a6.35,6.35,0,0,1,2.54,3.53,4.41,4.41,0,0,1-1.46,3.87c-1.22,1.29-2.31,2.31-3.19,3.14-2.92,2.73-4.25,4-2.27,7.58a2,2,0,0,1,.08,2.16,4.54,4.54,0,0,1-4,1.6h-.21c0,.28,0,.56,0,.82h.46a5.13,5.13,0,0,0,4.43-2,2.81,2.81,0,0,0,0-3c-1.67-3-.8-3.85,2.1-6.57.89-.83,2-1.87,3.23-3.17a5.23,5.23,0,0,0,1.68-4.6,7.46,7.46,0,0,0-3.08-4.2Z" transform="translate(-12.72 -5.41)" fill="#005b5c"/><path d="M163.05,288.67a11,11,0,0,1-5.9-1.75,7.86,7.86,0,0,0-6.29-1.15,2.25,2.25,0,0,1-.36.06h0a6.18,6.18,0,0,1-7.19-5.18,5.91,5.91,0,0,1,4.8-7.09,6.65,6.65,0,0,1,5.94,1.78c4.53,4,6.39,3.66,8.74,3.3a14.17,14.17,0,0,1,2.82-.23c1.85.06,3.1,1.85,3,4.34-.08,3-2,5.93-5.48,5.92Zm-.14-9.21c-2.47.38-4.59.7-9.41-3.5a5.91,5.91,0,0,0-5.23-1.59,5,5,0,0,0-4.15,6.13,5.32,5.32,0,0,0,6.25,4.52h0l.35-.06a8.57,8.57,0,0,1,6.83,1.24,10.23,10.23,0,0,0,5.52,1.65h.08c3,0,4.6-2.56,4.66-5.12,0-1.7-.63-3.44-2.24-3.49h-.32A14.84,14.84,0,0,0,162.91,279.46Z" transform="translate(-12.72 -5.41)" fill="#005b5c"/><path d="M117.93,300.56c-2.19-2.15-3.15-4.56-2.78-7a.4.4,0,0,1,.27-.32s3.92-1.43,4.6-7.1a8,8,0,0,1,6.25-6.61,6.32,6.32,0,0,1,7,2.5c3.19,4.81,4.31,5.5,13.37,8.2,4,1.19,6.32,4.21,6.11,7.89s-3.35,8-9.84,9.18a25.93,25.93,0,0,1-4.39.36C131,307.7,122.28,304.83,117.93,300.56Zm8.53-20.18a7.18,7.18,0,0,0-5.62,5.89c-.65,5.41-4,7.27-4.91,7.69-.24,2.07.63,4.09,2.58,6,5,4.88,16.32,7.94,24.29,6.55,6-1,8.95-5,9.15-8.41.19-3.27-1.92-6-5.51-7-8.9-2.66-10.41-3.38-13.83-8.54a5.23,5.23,0,0,0-4.51-2.35A7.28,7.28,0,0,0,126.46,280.38Z" transform="translate(-12.72 -5.41)" fill="#005b5c"/><path d="M125,313.36a.44.44,0,0,1,.26-.41c.53-.21,12.85-5.08,16.82-3.7a.42.42,0,0,1,.28.36c0,.29.49,7.19-2.87,10.93a6.89,6.89,0,0,1-5.12,2.3H134C125.5,322.85,125,313.45,125,313.36Zm.85.25A12.6,12.6,0,0,0,127,317.8a7.3,7.3,0,0,0,7.28,4.22,6.09,6.09,0,0,0,4.53-2c2.76-3.07,2.73-8.71,2.68-10C137.89,309.05,127.66,312.9,125.82,313.61Z" transform="translate(-12.72 -5.41)" fill="#005b5c"/><path d="M156.6,339.52c-2.54-.18-4.15-1.29-4.43-3-.35-2.14,1.42-4.45,4.3-5.62,2.72-1.11,2.73-3.17,2.74-5.36,0-1.57,0-3.19,1.16-4.34a5.24,5.24,0,0,1,6-.72A3.72,3.72,0,0,1,168,325c-1.25,4.28,1.6,5.79,1.72,5.85h0a.38.38,0,0,1,.22.29.41.41,0,0,1-.09.35c-.28.33-6.89,8-12.75,8Zm10.56-14.72a2.9,2.9,0,0,0-1.16-3.63,4.35,4.35,0,0,0-5,.59c-.9.9-.91,2.29-.92,3.76,0,2.25,0,4.79-3.26,6.11-2.81,1.15-4,3.25-3.8,4.72s1.55,2.19,3.67,2.34c4.89.35,10.8-5.81,12.21-7.36C168,330.64,166,328.67,167.16,324.8Z" transform="translate(-12.72 -5.41)" fill="#005b5c"/><path d="M113.6,338.65a8.66,8.66,0,0,0,1.23,2.61,3.73,3.73,0,0,0,2.9,1.74,2,2,0,0,0,.42,0c1.62-.25,3-2,3.95-4.83,1.16-3.59,1-6.41-.44-8.39a7.64,7.64,0,0,0-5.18-2.76l-.21.82a6.88,6.88,0,0,1,4.73,2.44c1.28,1.75,1.38,4.32.31,7.63-.83,2.55-2,4.07-3.29,4.28a2.7,2.7,0,0,1-2.52-1.38,9,9,0,0,1-1.49-4.24C113.85,337.28,113.71,338,113.6,338.65Z" transform="translate(-12.72 -5.41)" fill="#005b5c"/><path d="M130,345.45l0,0a13.78,13.78,0,0,0,2.08,1.86l1.82.17a13.21,13.21,0,0,1-3.26-2.56c-.12-.16-1.28-1.88-.64-3.41.55-1.31,2.26-2.18,5.08-2.58,7.48-1.06,9.26,3.51,9.53,4.39a11,11,0,0,1-4.45,4.61l1.49.08a13.38,13.38,0,0,0,3.76-4.42.45.45,0,0,0,0-.3c0-.06-1.51-6.45-10.49-5.17-3.13.44-5,1.48-5.72,3.08C128.4,343.26,129.93,345.37,130,345.45Z" transform="translate(-12.72 -5.41)" fill="#005b5c"/><path d="M108.27,352.39c-.34-9.34-1.92-18.55-3.22-27.79,6.22,2.7,12.35,5.16,17.76,8.43h0c3.35,2,6.35,3.81,8.56,5,3.36,1.89,7.66,2.08,11.87,1.5a58.05,58.05,0,0,0,16.07-5.18s26.41-12,31.36-11.57c3.85.31-16.87,21.94-34,30.8a31,31,0,0,1-8.48,3.8c-16.77,5.34-32.52.52-39.86-2.49C108.32,354.08,108.3,353.24,108.27,352.39Z" transform="translate(-12.72 -5.41)" fill="#f3674f"/><polygon points="47.48 387.59 45.24 401.75 31.98 402.68 33.37 385.27 47.48 387.59" fill="#ff9d8a"/><path d="M13.79,427.91l47.41,0a6.52,6.52,0,0,0,.62-2.63c.3-4-1-10.41-1.62-14.45-.07-.47-.14-.91-.19-1.31a13.18,13.18,0,0,1-.14-1.64c0-3.3-2.92-2.73-2.92-2.73-4.79,4.71-10.23-2.34-13.4,0,0,0-1.37,1-5.13,4.37s-10.16,5.63-15.61,7.91c-7,2.95-9,5.89-9.41,7.91A3.68,3.68,0,0,0,13.79,427.91Z" transform="translate(-12.72 -5.41)" fill="#ffbf63"/><path d="M13.79,427.91l47.41,0a6.52,6.52,0,0,0,.62-2.63l-48.42,0A3.68,3.68,0,0,0,13.79,427.91Z" transform="translate(-12.72 -5.41)" fill="#ff9024"/><path d="M42.84,407.1S42,405,40.11,405.69s-1.69,3.76-1.69,3.76S39.55,412.28,42.84,407.1Z" transform="translate(-12.72 -5.41)" fill="#fff"/><path d="M43.43,416.42a.78.78,0,0,0,.78-.78,9.91,9.91,0,0,0-3.08-7.36.78.78,0,0,0-1,1.19,8.39,8.39,0,0,1,2.53,6.17A.78.78,0,0,0,43.43,416.42Z" transform="translate(-12.72 -5.41)" fill="#fff"/><path d="M33.57,410.29a.79.79,0,0,0,.52-.2c1-.88,3.9-1,5.51-.94a.79.79,0,0,0,.83-.73.78.78,0,0,0-.74-.83c-.49,0-4.84-.26-6.64,1.33a.79.79,0,0,0,.52,1.37Z" transform="translate(-12.72 -5.41)" fill="#fff"/><path d="M40.44,407.66l.4.4h-.05v.05l-.32,1.61.18,0a12,12,0,0,0,1.5.08h.31a29.06,29.06,0,0,0,3.47-.3,7.6,7.6,0,0,0,3.73-1.45,3.47,3.47,0,0,0,1.15-1.53c0-.05,0-.1,0-.15a2.39,2.39,0,0,0-.62-2.38,3.34,3.34,0,0,0-2.45-1h-.06a6.87,6.87,0,0,0-2.83.75,17.44,17.44,0,0,0-3.18,2.06l-.25.2c-.4.33-.73.63-1,.85l-.44.42Zm1.7.48h-.57c.33-.31.76-.68,1.25-1.07h0a17.42,17.42,0,0,1,2-1.37,8.24,8.24,0,0,1,1.8-.83,3.69,3.69,0,0,1,1.1-.19h0a1.64,1.64,0,0,1,1.25.51.78.78,0,0,1,.24.66c0,.05,0,.1,0,.15-.26.72-1.44,1.58-3.51,1.87l-1,.12A24.1,24.1,0,0,1,42.14,408.14Z" transform="translate(-12.72 -5.41)" fill="#fff"/><path d="M39.16,409l.73-1.53c-1.56-.73-3-2.68-3-3.85,0-.28.14-.64.88-.85a.93.93,0,0,1,.92.11c.82.63,1.08,2.77,1.05,4l1.69,0c0-.4.06-4-1.7-5.35a2.93,2.93,0,0,0-4.53,1.95C35.07,405.54,37.17,408,39.16,409Z" transform="translate(-12.72 -5.41)" fill="#fff"/><path d="M56.36,427.88h1.41a10.44,10.44,0,0,1-2.55-7.59,13.37,13.37,0,0,1,5-9.5c-.07-.47-.14-.91-.19-1.31a14.53,14.53,0,0,0-5.92,10.75A11.54,11.54,0,0,0,56.36,427.88Z" transform="translate(-12.72 -5.41)" fill="#ff9024"/><path d="M39.23,412.25a.77.77,0,0,0,.75-.59.78.78,0,0,0-.57-1l-3-.73a.78.78,0,1,0-.37,1.52l3,.73Z" transform="translate(-12.72 -5.41)" fill="#fff"/><path d="M36.27,414a.78.78,0,0,0,.18-1.54l-3-.74a.78.78,0,1,0-.37,1.52l3,.73A.58.58,0,0,0,36.27,414Z" transform="translate(-12.72 -5.41)" fill="#fff"/><path d="M33.31,415.63a.76.76,0,0,0,.75-.59.78.78,0,0,0-.57-1l-3-.73a.78.78,0,1,0-.37,1.52l3,.73A.58.58,0,0,0,33.31,415.63Z" transform="translate(-12.72 -5.41)" fill="#fff"/><path d="M30.08,417.17a.78.78,0,0,0,.18-1.54l-3-.74a.78.78,0,0,0-.94.58.77.77,0,0,0,.57.94l3,.73A.63.63,0,0,0,30.08,417.17Z" transform="translate(-12.72 -5.41)" fill="#fff"/><path d="M26.58,418.48a.78.78,0,0,0,.18-1.54l-3-.74a.78.78,0,0,0-.37,1.52l3,.73A.63.63,0,0,0,26.58,418.48Z" transform="translate(-12.72 -5.41)" fill="#fff"/><path d="M127.64,335.91c-16-8.47-44.17-25.39-56-27.79-20.67-4.19-27.4,88.1-27.4,88.1l16.59,1.62s15.52-39.78,16.75-55.12c0,0,21.59,20.75,65.31,21.62Z" transform="translate(-12.72 -5.41)" fill="#f3674f"/><path d="M62.9,393.65a8.69,8.69,0,0,1-2.4,5L43.3,397s-.39-3.92.48-5.51Z" transform="translate(-12.72 -5.41)" fill="#d63f2c"/><path d="M59.17,394.14a.48.48,0,0,0,.46-.35c0-.13,4.19-13.74,8.09-25.73,3.44-10.58,7.07-30.14,7.92-34.84a61.1,61.1,0,0,0,16.12,13.2,102.72,102.72,0,0,0,19,8.51,128.28,128.28,0,0,0,22.09,5.37.5.5,0,0,0,.54-.42.49.49,0,0,0-.42-.54A126.81,126.81,0,0,1,111.1,354c-11-3.71-26.07-10.58-35.37-22.2a.48.48,0,0,0-.5-.17.51.51,0,0,0-.36.39c0,.23-4.18,23.79-8.07,35.74s-8,25.62-8.09,25.75a.48.48,0,0,0,.32.61Z" transform="translate(-12.72 -5.41)" fill="#d63f2c"/><path d="M135.49,250.79c9.14,12.3,20.15-2.41,20-5.69-3.8-7.33-4.86-17-4.86-17l-17.58,9.83c.13.54.27,1.08.41,1.62a74.29,74.29,0,0,1,1.68,7.82A27,27,0,0,1,135.49,250.79Z" transform="translate(-12.72 -5.41)" fill="#ff9d8a"/><path d="M135.14,247.32c9.45-3.83,14.14-15,14.14-15l-15.82,7.2A74.29,74.29,0,0,1,135.14,247.32Z" transform="translate(-12.72 -5.41)" fill="#00312d"/><path d="M126.63,224.68s-2.21-4.37-5.78-2.71-1.71,14.14,5.36,12.6Z" transform="translate(-12.72 -5.41)" fill="#ed7462"/><path d="M126.15,243.68a6.31,6.31,0,1,1,6.1-6.51A6.32,6.32,0,0,1,126.15,243.68ZM125.77,232a5.37,5.37,0,1,0,5.54,5.19A5.38,5.38,0,0,0,125.77,232Z" transform="translate(-12.72 -5.41)" fill="#fff"/><path d="M151.13,229.5c-1.19,5.29-13.27,13.06-19,11.39-3.46-1-6.77-3.59-9.36-10l0-.1c-.15-.38-.3-.76-.43-1.13-.25-.67-.48-1.33-.67-2,0-.15-.1-.29-.14-.44-.12-.39-.22-.78-.31-1.15s-.21-.89-.29-1.3c-1.19-6.64-2.67-14.09,2.81-19.17s14.81-7.61,21.16-2.44c0,0,4.82,4.62,6.07,14.3S152,225.69,151.13,229.5Z" transform="translate(-12.72 -5.41)" fill="#ff9d8a"/><path d="M139.59,202.76s4.62,10,7.95,11.66,5.18-3.79,5.18-3.79S144.34,195.51,139.59,202.76Z" transform="translate(-12.72 -5.41)" fill="#00312d"/><path d="M126.64,204.91s7.09,7.79,14.31,4.75,1.33-8.59,1.33-8.59S127.56,197.26,126.64,204.91Z" transform="translate(-12.72 -5.41)" fill="#00312d"/><path d="M128.55,203.92s-2.21,11.67-9.81,10.75S120,201.34,125,201.12,128.55,203.92,128.55,203.92Z" transform="translate(-12.72 -5.41)" fill="#00312d"/><path d="M135.38,233.89a1.59,1.59,0,0,1-.29,0,.38.38,0,0,1,0-.76,2.42,2.42,0,0,0,2-1.32.37.37,0,0,1,.5-.17.37.37,0,0,1,.18.5A3.14,3.14,0,0,1,135.38,233.89Z" transform="translate(-12.72 -5.41)" fill="#ed7462"/><path d="M132.18,232a5.6,5.6,0,0,1-.83.08.39.39,0,0,1-.37-.39.38.38,0,0,1,.39-.37,4.75,4.75,0,0,0,4.89-4.58.38.38,0,0,1,.4-.36.4.4,0,0,1,.36.41A5.34,5.34,0,0,1,132.18,232Z" transform="translate(-12.72 -5.41)" fill="#1e1e1e"/><path d="M131.66,227.83a3.91,3.91,0,0,0,.72-.13.45.45,0,1,0-.25-.87,2.72,2.72,0,0,1-2.14-.31c1.07-2.15,1-7,1-7.25a.46.46,0,0,0-.91,0c0,1.51-.13,5.75-1.07,7.1a.46.46,0,0,0,.07.6A3.77,3.77,0,0,0,131.66,227.83Z" transform="translate(-12.72 -5.41)" fill="#00312d"/><path d="M122.76,230.78c-.15-.38-.3-.76-.43-1.13-.25-.67-.48-1.33-.67-2,0-.15-.1-.29-.14-.44l.33-.07c2.5-.47,4.68,0,4.86,1S125.14,230.28,122.76,230.78Z" transform="translate(-12.72 -5.41)" fill="#ed7462"/><path d="M146.1,224.1c.18,1-1.69,2.2-4.18,2.67s-4.67,0-4.86-1,1.68-2.2,4.17-2.67S145.91,223.1,146.1,224.1Z" transform="translate(-12.72 -5.41)" fill="#ed7462"/><path d="M131.14,221.51a6.15,6.15,0,1,1,6.55,5.71A6.17,6.17,0,0,1,131.14,221.51Zm.9-.06a5.24,5.24,0,1,0,4.87-5.59A5.25,5.25,0,0,0,132,221.45Z" transform="translate(-12.72 -5.41)" fill="#fff"/><path d="M117.23,224.28a6.15,6.15,0,1,1,6.56,5.71A6.17,6.17,0,0,1,117.23,224.28Zm.9-.06a5.24,5.24,0,1,0,4.87-5.59A5.26,5.26,0,0,0,118.13,224.22Z" transform="translate(-12.72 -5.41)" fill="#fff"/><path d="M129.38,223.3a1.52,1.52,0,0,1,2.06-.49l.43-.8a2.4,2.4,0,0,0-3.25.8Z" transform="translate(-12.72 -5.41)" fill="#fff"/><path d="M142.69,218.81a.59.59,0,0,0,.46-.26c.06-.06.95-1,5.21-2a.61.61,0,0,0-.28-1.18c-4.9,1.14-5.81,2.31-6,2.53a.61.61,0,0,0,.21.84A.55.55,0,0,0,142.69,218.81Z" transform="translate(-12.72 -5.41)" fill="#fff"/><path d="M117.71,224.7a.46.46,0,0,0,.26-.1,5.62,5.62,0,0,1,2.35-.85.45.45,0,0,0,.39-.51.46.46,0,0,0-.51-.39,6.81,6.81,0,0,0-2.81,1.05.46.46,0,0,0-.06.64A.47.47,0,0,0,117.71,224.7Z" transform="translate(-12.72 -5.41)" fill="#fff"/><path d="M132.45,213.13a5.18,5.18,0,0,1,4.39-2.07c1.57.12,1.61,1.65-.15,1.94a5.61,5.61,0,0,0-2.93,1.17A.84.84,0,0,1,132.45,213.13Z" transform="translate(-12.72 -5.41)" fill="#00312d"/><path d="M125.57,214.71a5.2,5.2,0,0,0-4.85-.21c-1.39.72-.84,2.15.89,1.73a5.68,5.68,0,0,1,3.17-.06A.83.83,0,0,0,125.57,214.71Z" transform="translate(-12.72 -5.41)" fill="#00312d"/><path d="M148.35,216.67s1.58-4.24,5.79-3.18,4.75,15-3.23,14.75Z" transform="translate(-12.72 -5.41)" fill="#ff9d8a"/><path d="M156.19,224.84c-.18.29-.27.58-.46.87a5.36,5.36,0,1,1-3.34.74c1.09-.51,1.19-1,1.15-1.5a6.31,6.31,0,1,0,7.92,5.89A6.41,6.41,0,0,0,156.19,224.84Z" transform="translate(-12.72 -5.41)" fill="#fff"/><path d="M151.05,222.76a.36.36,0,0,0,.34.4h.08a.36.36,0,0,0,.32-.34,7.87,7.87,0,0,1,.86-2.69c.87.55,1.58,1.07,1.59,1.08a.38.38,0,0,0,.27.07.33.33,0,0,0,.25-.15.37.37,0,0,0-.07-.52s-.74-.55-1.64-1.12a4.52,4.52,0,0,1,2.1-1.62.38.38,0,0,0,.22-.48.36.36,0,0,0-.48-.22C151.45,218.46,151.06,222.58,151.05,222.76Z" transform="translate(-12.72 -5.41)" fill="#00312d"/><path d="M136.41,220.81c.18.9-.09,1.71-.6,1.81s-1.08-.54-1.25-1.44.09-1.71.6-1.81S136.24,219.91,136.41,220.81Z" transform="translate(-12.72 -5.41)" fill="#00312d"/><path d="M126.41,223c.18.9-.09,1.71-.61,1.81s-1.07-.54-1.25-1.44.09-1.71.61-1.81S126.23,222.13,126.41,223Z" transform="translate(-12.72 -5.41)" fill="#00312d"/><path d="M100,337.61l73.36,7.89a.3.3,0,0,0,.33-.26h0a4.15,4.15,0,0,0-3.68-4.57l-69.54-7.48a.29.29,0,0,0-.32.26l-.42,3.83A.31.31,0,0,0,100,337.61Z" transform="translate(-12.72 -5.41)" fill="#384e4f"/><path d="M79.85,294.43l5,39.72a2.32,2.32,0,0,0,2,2l56.41,6.07a2.3,2.3,0,0,0,2.53-2.57l-5-39.72a2.29,2.29,0,0,0-2-2l-56.41-6.07A2.3,2.3,0,0,0,79.85,294.43Z" transform="translate(-12.72 -5.41)" fill="#00312d"/><path d="M116.5,317.77c-.45,3.47-6.81,7.18-6.81,7.18s-6.37-5.09-6.82-8.65c-.5-3.87,3.93-4.56,6.81-1.37C112.55,312.36,117,314,116.5,317.77Z" transform="translate(-12.72 -5.41)" fill="#384e4f"/><path d="M136.55,297.69,141.64,342l1.64.18a2.3,2.3,0,0,0,2.53-2.57l-5-39.72a2.29,2.29,0,0,0-2-2Z" transform="translate(-12.72 -5.41)" fill="#384e4f"/><path d="M113.07,370.18s6-1,7.89-2.94l3.93,12.54-14.41,3S110.65,372.16,113.07,370.18Z" transform="translate(-12.72 -5.41)" fill="#ff9d8a"/><path d="M77.91,400.8l18.63-41.34a6.18,6.18,0,0,1,2.54.49c3.62,1.31,8.7,4.94,12,7.08l1.07.68a12.71,12.71,0,0,0,1.38.77c2.87,1.29,1.39,2.23,1.39,2.23-6,2.33-2.13,11.23-5.39,13.09,0,0-1.39.8-5.82,2.75s-8.9,6.66-13,10.52c-5.33,5-8.68,5.56-10.59,5.11A3.55,3.55,0,0,1,77.91,400.8Z" transform="translate(-12.72 -5.41)" fill="#ffbf63"/><path d="M110.52,381.46s1.65,1.14.72,2.66-3.62.77-3.62.77S105.36,383.37,110.52,381.46Z" transform="translate(-12.72 -5.41)" fill="#fff"/><path d="M102.46,379.2a.7.7,0,0,1,.83-.54,8.92,8.92,0,0,1,5.87,4.08.7.7,0,1,1-1.23.66A7.52,7.52,0,0,0,103,380,.7.7,0,0,1,102.46,379.2Z" transform="translate(-12.72 -5.41)" fill="#fff"/><path d="M106,389a.62.62,0,0,1,.27-.42c1-.7,1.65-3.22,1.86-4.65a.7.7,0,1,1,1.39.21c-.07.43-.69,4.29-2.43,5.57a.69.69,0,0,1-1-.15A.68.68,0,0,1,106,389Z" transform="translate(-12.72 -5.41)" fill="#fff"/><path d="M109.85,383.9l.45-.31c.25-.17.57-.41.93-.7a1.92,1.92,0,0,0,.22-.18,14.74,14.74,0,0,0,2.41-2.4,6.12,6.12,0,0,0,1.19-2.34.43.43,0,0,0,0-.05,3,3,0,0,0-.45-2.34,2.16,2.16,0,0,0-2-1h-.14a3.18,3.18,0,0,0-1.56.71,7,7,0,0,0-2,3,29.08,29.08,0,0,0-.91,3c0,.09,0,.19-.06.27a12.08,12.08,0,0,0-.21,1.34,1.47,1.47,0,0,0,0,.16l1.48,0h0v0l.28.42Zm.25-4.24c.08-.26.18-.54.29-.83.64-1.76,1.61-2.64,2.3-2.73h.13a.67.67,0,0,1,.53.33,1.48,1.48,0,0,1,.22,1.19v0a3.22,3.22,0,0,1-.37.93,7.89,7.89,0,0,1-1.07,1.42,16.64,16.64,0,0,1-1.57,1.48h0c-.43.35-.84.66-1.17.89,0-.14.05-.3.09-.49A20.32,20.32,0,0,1,110.1,379.66Z" transform="translate(-12.72 -5.41)" fill="#fff"/><path d="M108.18,384.33l1.48-.34c.35,1.5,1.77,3.18,2.82,3.31.25,0,.58,0,.9-.61a.83.83,0,0,0,.09-.83c-.4-.83-2.23-1.46-3.28-1.66l.28-1.49c.35.06,3.51.7,4.37,2.5a2.37,2.37,0,0,1-.12,2.2,2.33,2.33,0,0,1-2.44,1.4C110.42,388.56,108.63,386.25,108.18,384.33Z" transform="translate(-12.72 -5.41)" fill="#fff"/><path d="M77.91,400.8l18.63-41.34a6.18,6.18,0,0,1,2.54.49l-19,42.23A3.55,3.55,0,0,1,77.91,400.8Z" transform="translate(-12.72 -5.41)" fill="#ff9024"/><path d="M94.64,363.67l.55-1.22a10,10,0,0,0,5.62,5.2,12.83,12.83,0,0,0,10.24-.62l1.07.68a13.93,13.93,0,0,1-11.7,1A11,11,0,0,1,94.64,363.67Z" transform="translate(-12.72 -5.41)" fill="#ff9024"/><path d="M101.55,384.75a.75.75,0,0,1,1.42.45l-.52,2.87a.76.76,0,0,1-.87.6.74.74,0,0,1-.6-.87l.52-2.87A1.21,1.21,0,0,1,101.55,384.75Z" transform="translate(-12.72 -5.41)" fill="#fff"/><path d="M104.86,383.16a.75.75,0,0,1,1.42.44l-.53,2.87a.74.74,0,0,1-.87.6.75.75,0,0,1-.6-.87l.53-2.87A.48.48,0,0,1,104.86,383.16Z" transform="translate(-12.72 -5.41)" fill="#fff"/><path d="M98.89,386.66a.74.74,0,0,1,1.41.44L99.78,390a.75.75,0,0,1-.87.61.76.76,0,0,1-.6-.87l.52-2.88A.58.58,0,0,1,98.89,386.66Z" transform="translate(-12.72 -5.41)" fill="#fff"/><path d="M96.28,388.59a.75.75,0,0,1,1.42.44l-.53,2.88a.75.75,0,0,1-.86.6.76.76,0,0,1-.61-.87l.53-2.87A1.21,1.21,0,0,1,96.28,388.59Z" transform="translate(-12.72 -5.41)" fill="#fff"/><path d="M93.68,390.81a.74.74,0,0,1,1.41.44l-.52,2.87a.74.74,0,0,1-.87.6.75.75,0,0,1-.6-.87l.52-2.87A.49.49,0,0,1,93.68,390.81Z" transform="translate(-12.72 -5.41)" fill="#fff"/><path d="M91.16,393.35a.75.75,0,0,1,1.42.44l-.52,2.87a.75.75,0,0,1-.87.6.73.73,0,0,1-.6-.86l.52-2.88A.84.84,0,0,1,91.16,393.35Z" transform="translate(-12.72 -5.41)" fill="#fff"/><path d="M190.68,322.82s16.71-9,26.4-2.05c17.7,12.75-12.34,37.28-46.71,49.26s-45.52,10.35-45.52,10.35-7.47-2.06-4.82-14.16c0,0,19.81-7.53,30.12-15.42S167.48,333.24,190.68,322.82Z" transform="translate(-12.72 -5.41)" fill="#f3674f"/><path d="M129,363.2a.46.46,0,0,0,.23-.06c.18-.1,17.24-9.7,24.28-15.48,5.66-4.64,18.07-13.36,18.2-13.45a.48.48,0,0,0-.56-.79c-.12.09-12.57,8.83-18.26,13.5-7,5.72-24,15.28-24.13,15.37a.48.48,0,0,0-.18.66A.47.47,0,0,0,129,363.2Z" transform="translate(-12.72 -5.41)" fill="#d63f2c"/><path d="M121.37,369.74c7.21-1.73,21.89-8.47,39.29-18,13-7.14,28-16.27,30.21-19.44,1.19-1.71,1.49-3.11.89-4.16-.89-1.57-3.47-1.73-4.64-1.72a.51.51,0,0,0-.52.56h0a.52.52,0,0,0,.52.49c1.15,0,3.16.19,3.74,1.19.47.83-.2,2.11-.85,3-1.77,2.56-14.33,10.6-29.86,19.12-13.37,7.35-30.64,15.91-39,17.92Z" transform="translate(-12.72 -5.41)" fill="#d63f2c"/><path d="M122.72,364.61c.82,6.37,2.46,12.15,6.06,16.58,0,0-3.08,2.22-5.89.63-2.14-1.22-6.28-11.15-4.71-16.46C120,364.38,121.53,364,122.72,364.61Z" transform="translate(-12.72 -5.41)" fill="#d63f2c"/><line x1="118.61" y1="324.28" x2="118.61" y2="317.6" fill="#ff9d8a"/><path d="M199.85,310.43c-.1-1.49-.27-2.88-.47-4.23-.39-2.7-.91-5.22-1.48-7.68s-1.22-4.86-1.9-7.21-1.4-4.68-2.15-7q-2.28-6.87-4.9-13.52c-.89-2.21-1.77-4.42-2.72-6.61-.47-1.09-.94-2.19-1.42-3.28l-.74-1.64-.38-.82-.4-.86a10.41,10.41,0,0,0-19.19,8l.05.13,2.32,6.29c.78,2.12,1.58,4.24,2.33,6.37,1.53,4.24,3,8.49,4.44,12.71s2.72,8.44,3.81,12.53c.28,1,.52,2,.76,3s.44,2,.62,2.92c.09.46.17.93.24,1.37-.68.2-1.39.39-2.11.57-2,.52-4.16,1-6.33,1.45s-4.36.88-6.58,1.31c-4.43.83-8.93,1.61-13.45,2.4l-6.78,1.17-.49.08c.63,5.28,1.52,10.52,1.95,15.81,2.33,0,4.67-.06,7-.12,4.72-.13,9.45-.38,14.22-.76,2.39-.19,4.78-.43,7.2-.7s4.86-.62,7.37-1c1.26-.22,2.54-.47,3.87-.76s2.7-.65,4.24-1.15c.78-.27,1.59-.56,2.55-1a16.56,16.56,0,0,0,1.58-.79,16.73,16.73,0,0,0,2.07-1.38c.21-.17.4-.33.64-.55l.34-.32.38-.38.18-.19.09-.11.1-.11.41-.49c.12-.15.28-.37.41-.57l.21-.3.21-.33c.14-.25.28-.5.41-.75l.1-.2.1-.22c.07-.15.14-.3.2-.45l.18-.46c.06-.15.12-.34.17-.51l.15-.53.06-.26,0-.16.17-.86c0-.14.06-.29.08-.42l.06-.39c0-.26.07-.53.1-.78l.07-.73,0-.36,0-.34A35.64,35.64,0,0,0,199.85,310.43Z" transform="translate(-12.72 -5.41)" fill="#ff9d8a"/><path d="M190,315.23a.49.49,0,0,1-.34-.14c-3.87-3.62-10.26-3.67-10.32-3.67a.5.5,0,0,1-.5-.5.5.5,0,0,1,.5-.5c.28,0,6.84.05,11,3.94a.5.5,0,0,1,0,.71A.46.46,0,0,1,190,315.23Z" transform="translate(-12.72 -5.41)" fill="#ed7462"/><path d="M181.21,311.57a.5.5,0,0,1-.25-.93c2.54-1.45,7.35-.75,7.55-.72a.51.51,0,0,1,.42.57.5.5,0,0,1-.57.42s-4.66-.68-6.9.59A.45.45,0,0,1,181.21,311.57Z" transform="translate(-12.72 -5.41)" fill="#ed7462"/><path d="M28,264.93v17.81A4.27,4.27,0,0,0,32.28,287H64.63l9.76,3.5A1.24,1.24,0,0,0,76,288.89l-3.69-9.53V264.93A4.27,4.27,0,0,0,68,260.66H32.28A4.27,4.27,0,0,0,28,264.93Z" transform="translate(-12.72 -5.41)" fill="#23585e"/><path d="M56.12,274.34a3.09,3.09,0,1,0,3.08-3.08A3.08,3.08,0,0,0,56.12,274.34Z" transform="translate(-12.72 -5.41)" fill="#1a4a4b"/><path d="M46.35,274.34a3.09,3.09,0,1,0,3.09-3.08A3.09,3.09,0,0,0,46.35,274.34Z" transform="translate(-12.72 -5.41)" fill="#1a4a4b"/><path d="M36.58,274.34a3.09,3.09,0,1,0,3.09-3.08A3.09,3.09,0,0,0,36.58,274.34Z" transform="translate(-12.72 -5.41)" fill="#1a4a4b"/><path d="M280.77,344.19h1.53V341.9l-58,.08a7,7,0,1,0,0,13.91l57.94-.07v-2h-1.53Z" transform="translate(-12.72 -5.41)" fill="#ffbf63"/><path d="M281.17,344.19v9.64L228,353.9a4.75,4.75,0,0,1-4.7-4.81,4.89,4.89,0,0,1,1.37-3.42,4.62,4.62,0,0,1,3.32-1.41Z" transform="translate(-12.72 -5.41)" fill="#fff"/><path d="M281.17,346.63v1.48l-51.8.06a.73.73,0,0,1-.73-.73h0a.73.73,0,0,1,.73-.73Z" transform="translate(-12.72 -5.41)" fill="#f2cec2"/><path d="M281.17,350.26v1.48l-51.8.06a.74.74,0,0,1-.74-.73h0a.74.74,0,0,1,.73-.74Z" transform="translate(-12.72 -5.41)" fill="#f2cec2"/><path d="M275.59,330.28h1.53V328l-58,.08a7,7,0,1,0,0,13.91l57.95-.07v-2H275.6Z" transform="translate(-12.72 -5.41)" fill="#2d918e"/><path d="M276,330.28v9.65l-53.17.06a4.76,4.76,0,0,1-4.71-4.81,4.91,4.91,0,0,1,1.37-3.41,4.61,4.61,0,0,1,3.32-1.42Z" transform="translate(-12.72 -5.41)" fill="#fff"/><path d="M276,332.72v1.48l-51.8.06a.73.73,0,0,1-.73-.73h0a.74.74,0,0,1,.73-.74Z" transform="translate(-12.72 -5.41)" fill="#f2cec2"/><path d="M276,336.35v1.48l-51.8.07a.74.74,0,0,1-.74-.74h0a.74.74,0,0,1,.74-.74Z" transform="translate(-12.72 -5.41)" fill="#f2cec2"/><path d="M285.69,316.35h1.53v-2.29l-58,.08a7,7,0,1,0,0,13.91l58-.07v-2H285.7Z" transform="translate(-12.72 -5.41)" fill="#f3674f"/><path d="M286.09,316.35V326l-53.17.07a4.77,4.77,0,0,1-4.71-4.82,4.87,4.87,0,0,1,1.38-3.41,4.59,4.59,0,0,1,3.32-1.42Z" transform="translate(-12.72 -5.41)" fill="#fff"/><path d="M286.09,318.79v1.48l-51.79.07a.74.74,0,0,1-.74-.74h0a.74.74,0,0,1,.73-.74Z" transform="translate(-12.72 -5.41)" fill="#f2cec2"/><path d="M286.1,322.43v1.47l-51.8.07a.74.74,0,0,1-.74-.74h0a.74.74,0,0,1,.74-.74Z" transform="translate(-12.72 -5.41)" fill="#f2cec2"/><rect x="229.25" y="278.19" width="4.17" height="31.46" transform="translate(-54.57 33.01) rotate(-8.71)" fill="#f3674f"/><polygon points="218.3 272.64 214.17 273.27 215.08 270.13 215.55 268.5 216.49 269.91 218.3 272.64" fill="#ff9d8a"/><rect x="231.46" y="307.19" width="4.17" height="2.29" transform="translate(-56.72 33.51) rotate(-8.71)" fill="#00312d"/><path d="M235.79,311l-3.58.55a.29.29,0,0,1-.32-.23l-.23-1.53,4.12-.63.24,1.53A.27.27,0,0,1,235.79,311Z" transform="translate(-12.72 -5.41)" fill="#fd615b"/><polygon points="216.49 269.91 215.08 270.13 215.55 268.5 216.49 269.91" fill="#00312d"/><rect x="231.17" y="305.58" width="4.17" height="1.64" transform="translate(-56.42 33.43) rotate(-8.71)" fill="#d63f2c"/><path d="M228.16,280.06l3.52,23a.33.33,0,0,0,.37.27h0a.32.32,0,0,0,.26-.37l-3.52-23a.32.32,0,0,0-.37-.27h0A.32.32,0,0,0,228.16,280.06Z" transform="translate(-12.72 -5.41)" fill="#d63f2c"/><path d="M229.77,279.81l3.53,23a.31.31,0,0,0,.36.27h0a.33.33,0,0,0,.27-.36l-3.53-23a.32.32,0,0,0-.36-.27h0A.32.32,0,0,0,229.77,279.81Z" transform="translate(-12.72 -5.41)" fill="#d63f2c"/><rect x="234.36" y="278.21" width="4.17" height="31.46" transform="translate(-13.69 -4.64) rotate(-0.19)" fill="#2d918e"/><polygon points="225.76 272.79 221.58 272.8 222.95 269.82 223.66 268.28 224.37 269.81 225.76 272.79" fill="#ff9d8a"/><rect x="234.41" y="307.38" width="4.17" height="2.29" transform="translate(-13.73 -4.64) rotate(-0.19)" fill="#00312d"/><path d="M238.31,311.48h-3.62a.28.28,0,0,1-.28-.28v-1.54h4.17v1.54A.29.29,0,0,1,238.31,311.48Z" transform="translate(-12.72 -5.41)" fill="#fd615b"/><polygon points="224.37 269.81 222.95 269.82 223.66 268.28 224.37 269.81" fill="#00312d"/><rect x="234.4" y="305.74" width="4.17" height="1.64" transform="translate(-13.73 -4.64) rotate(-0.19)" fill="#005b5c"/><path d="M235.35,279.76l.07,23.3a.32.32,0,0,0,.32.31h0a.32.32,0,0,0,.32-.32L236,279.76a.32.32,0,0,0-.32-.32h0A.32.32,0,0,0,235.35,279.76Z" transform="translate(-12.72 -5.41)" fill="#005b5c"/><path d="M237,279.75l.08,23.3a.32.32,0,0,0,.32.32h0a.32.32,0,0,0,.31-.32l-.07-23.3a.33.33,0,0,0-.32-.32h0A.32.32,0,0,0,237,279.75Z" transform="translate(-12.72 -5.41)" fill="#005b5c"/><rect x="225.67" y="291.84" width="31.46" height="4.17" transform="translate(-96.28 486.16) rotate(-81.91)" fill="#ff9024"/><polygon points="232.96 273.23 228.82 272.64 230.6 269.89 231.53 268.46 232.01 270.09 232.96 273.23" fill="#ff9d8a"/><rect x="237.26" y="307.22" width="4.17" height="2.29" transform="translate(33.03 -36.02) rotate(8.09)" fill="#00312d"/><path d="M240.72,311.55l-3.58-.51a.28.28,0,0,1-.24-.31l.22-1.53,4.13.59-.21,1.53A.29.29,0,0,1,240.72,311.55Z" transform="translate(-12.72 -5.41)" fill="#fd615b"/><polygon points="232.01 270.09 230.6 269.89 231.53 268.46 232.01 270.09" fill="#00312d"/><rect x="238.8" y="304.33" width="1.64" height="4.17" transform="translate(-110.19 495.13) rotate(-81.91)" fill="#de7110"/><path d="M242.36,279.74l-3.28,23.06a.32.32,0,0,0,.27.36h0a.32.32,0,0,0,.36-.27L243,279.83a.32.32,0,0,0-.27-.36h0A.31.31,0,0,0,242.36,279.74Z" transform="translate(-12.72 -5.41)" fill="#de7110"/><path d="M244,280,240.7,303a.32.32,0,0,0,.27.36h0a.33.33,0,0,0,.36-.27l3.27-23.07a.32.32,0,0,0-.27-.36h0A.33.33,0,0,0,244,280Z" transform="translate(-12.72 -5.41)" fill="#de7110"/><polygon points="234.98 285.56 234.64 288.6 234.51 289.82 232.41 308.69 214.7 308.69 212.83 291.92 212.47 288.6 212.13 285.56 234.98 285.56" fill="#ffbf63"/><polygon points="234.64 288.6 234.51 289.82 212.83 291.92 212.47 288.6 234.64 288.6" fill="#ff9024"/><polygon points="235.72 288.6 211.43 288.6 210.96 284.16 236.19 284.16 235.72 288.6" fill="#ffbf63"/></svg>